<svg width="76" height="69" viewBox="0 0 76 69" xmlns="http://www.w3.org/2000/svg"><title>3DEFA451-FDC5-4228-9AC2-D3878721483A</title><g stroke-width="4.071" fill="none" fill-rule="evenodd" stroke-linejoin="round"><path d="M21.714 66.543V56.066" stroke="#F16521"/><path d="M12.643 66.68h60.396" stroke="#F16521" stroke-linecap="round"/><path d="M51.942 39.63c0 7.145-5.772 12.938-12.894 12.938-7.12 0-12.891-5.793-12.891-12.937 0-7.145 5.771-12.938 12.891-12.938 7.122 0 12.894 5.793 12.894 12.938z" stroke="#F16521"/><path d="M38.679 66.543V35.825M33.05 39.63l5.999 3.667M44.358 43.297l-5.309 3.459" stroke="#F16521" stroke-linecap="round"/><path stroke="#F16521" d="M61.594 41.29l-9.652 17.78h19.58z"/><path d="M61.071 51.184v15.359" stroke="#F16521" stroke-linecap="round"/><path d="M54.892 30.782a5.006 5.006 0 0 0 1.463-3.543c0-2.766-2.236-5.01-4.994-5.01a4.91 4.91 0 0 0-1.53.265c-.206-2.833-2.493-5.073-5.344-5.17-.792-2.448-3.06-4.23-5.763-4.23-.872 0-1.696.191-2.444.522-1.643-6.527-7.514-11.364-14.528-11.364-8.286 0-15.002 6.74-15.002 15.053 0 2.122.443 4.14 1.233 5.97-3.058 1.055-5.269 3.936-5.269 7.361 0 4.319 3.488 7.817 7.79 7.817" stroke="#F16521"/><path d="M71.824 10.9c0 3.592-2.903 6.505-6.482 6.505s-6.48-2.913-6.48-6.504c0-3.592 2.901-6.504 6.48-6.504 3.58 0 6.482 2.912 6.482 6.504z" stroke="#FAAB18"/><path d="M26.156 39.63c0-3.915 1.74-7.415 4.478-9.788-.928-6.932-3.813-12.916-7.872-16.748-4.962 4.686-8.22 12.557-8.22 21.485 0 8.93 3.258 16.802 8.22 21.486 2.415-2.28 4.415-5.325 5.843-8.868a12.9 12.9 0 0 1-2.449-7.567z" stroke="#F16521"/></g></svg>