<?xml version="1.0" encoding="UTF-8" standalone="no"?>
<svg width="81px" height="86px" viewBox="0 0 81 86" version="1.1" xmlns="http://www.w3.org/2000/svg" xmlns:xlink="http://www.w3.org/1999/xlink" xmlns:sketch="http://www.bohemiancoding.com/sketch/ns">
    <!-- Generator: Sketch 3.3.2 (12043) - http://www.bohemiancoding.com/sketch -->
    <title>cheers</title>
    <desc>Created with Sketch.</desc>
    <defs></defs>
    <g id="Page-1" stroke="none" stroke-width="1" fill="none" fill-rule="evenodd" sketch:type="MSPage">
        <g id="cheers" sketch:type="MSArtboardGroup">
            <g id="Oval-8-Copy-9-+-Group-Copy-6" sketch:type="MSLayerGroup">
                <circle id="Oval-8-Copy-9" fill="#FFDD2E" sketch:type="MSShapeGroup" cx="40.5" cy="45" r="40.5"></circle>
                <g id="Group-Copy-6" transform="translate(10.500000, 0.000000)" stroke="#000000" sketch:type="MSShapeGroup">
                    <path d="M11.3245041,77.5698117 L21.8764675,48.5785304 C17.2969427,46.0630607 15.1089538,40.515795 16.9513689,35.4538011 L19.0140473,29.7866385 C22.6045467,19.9218225 31.1820761,0.700486251 31.1820761,0.700486251 L48.6387089,7.05418098 C48.6387089,7.05418098 42.8542408,27.2921084 39.2637414,37.1569244 C37.3477053,42.4211902 37.2010629,42.824087 37.2010629,42.824087 C35.4583248,47.6122206 30.6758441,50.4149204 25.8258734,49.8441391 L25.8258734,49.8441391 L15.218676,78.9871744 C18.8099789,80.4957079 23.5225113,82.8289011 23.5225113,82.8289011 L22.6720937,85.1654043 L1.64356524,77.5116458 L2.49398284,75.1751427 C2.49398284,75.1751427 7.60373983,76.4169704 11.3245041,77.5698117 L11.3245041,77.5698117 Z" id="Rectangle-24" stroke-width="1.5" stroke-linejoin="round" fill="#FFFFFF"></path>
                    <path d="M46.4137973,77.2099665 L30.9878588,50.4914572 C26.1172354,52.3826639 20.4613711,50.493047 17.7679404,45.8278882 L14.7525062,40.6050029 C9.50354725,31.5135394 0.292678982,12.5875338 0.292678982,12.5875338 L16.3807988,3.29905353 C16.3807988,3.29905353 28.1657662,20.7389022 33.4147252,29.8303657 L36.4301594,35.053251 C38.9778721,39.4660189 38.0507454,44.9311523 34.4960004,48.2795543 L34.4960004,48.2795543 L50.0026856,75.1379209 C53.4667343,73.3564899 58.2832215,71.2462284 58.2832215,71.2462284 L59.5264488,73.3995613 L40.1464522,84.5886076 L38.9032248,82.4352746 C38.9032248,82.4352746 43.1390085,79.3192052 46.4137973,77.2099665 L46.4137973,77.2099665 Z" id="Rectangle-24-Copy" stroke-width="1.5" stroke-linejoin="round" fill="#FFFFFF"></path>
                    <path d="M7.58622109,24.9549103 C16.7512513,19.8507068 18.2317302,26.9676922 27.9148661,21.1843302" id="Path-67" stroke-width="0.75"></path>
                    <path d="M26.5944637,18.0127138 C35.8430508,15.2936528 34.8492343,22.3408437 44.7430163,19.0998418" id="Path-67-Copy" stroke-width="0.75"></path>
                    <g id="Line-Copy-34-+-Line-Copy-35-+-Line-Copy-36" transform="translate(3.750000, 40.205269)" stroke-width="0.75" stroke-linecap="square">
                        <path d="M5.42100906,1.4762109 L0.166902483,0.799108135" id="Line-Copy-34"></path>
                        <path d="M6.17100906,5.34210211 L0.702392578,7.15567407" id="Line-Copy-35"></path>
                        <path d="M8.42100906,8.43481508 L4.69188207,11.7905806" id="Line-Copy-36"></path>
                    </g>
                    <g id="Line-Copy-39-+-Line-Copy-37-+-Line-Copy-38" transform="translate(45.000000, 45.230927) rotate(215.000000) translate(-45.000000, -45.230927) translate(40.500000, 38.658912)" stroke-width="0.75" stroke-linecap="square">
                        <path d="M6,2.13997069 L0.745893419,1.46286792" id="Line-Copy-39"></path>
                        <path d="M6.75,6.0058619 L1.28138351,7.81943386" id="Line-Copy-37"></path>
                        <path d="M9,9.09857486 L5.270873,12.4543404" id="Line-Copy-38"></path>
                    </g>
                </g>
            </g>
        </g>
    </g>
</svg>