<?xml version="1.0" encoding="UTF-8"?>
<svg width="140px" height="140px" viewBox="0 0 140 140" version="1.1" xmlns="http://www.w3.org/2000/svg" xmlns:xlink="http://www.w3.org/1999/xlink" style="background: #FFFFFF;">
    <!-- Generator: Sketch 42 (36781) - http://www.bohemiancoding.com/sketch -->
    <title>Artboard Copy</title>
    <desc>Created with Sketch.</desc>
    <defs></defs>
    <g id="Page-1" stroke="none" stroke-width="1" fill="none" fill-rule="evenodd">
        <g id="Artboard-Copy">
            <g id="Group-9" transform="translate(17.000000, 25.000000)">
                <g id="0435-window-copy" fill-rule="nonzero" fill="#393939">
                    <g id="Group">
                        <path d="M64.75,0 L5.25,0 C2.3555,0 0,2.3555 0,5.25 L0,57.75 C0,60.6445 2.3555,63 5.25,63 L64.75,63 C67.6445,63 70,60.6445 70,57.75 L70,5.25 C70,2.3555 67.6445,0 64.75,0 Z M5.25,3.5 L64.75,3.5 C65.716,3.5 66.5,4.284 66.5,5.25 L66.5,14 L3.5,14 L3.5,5.25 C3.5,4.284 4.284,3.5 5.25,3.5 Z M64.75,59.5 L5.25,59.5 C4.284,59.5 3.5,58.716 3.5,57.75 L3.5,17.5 L66.5,17.5 L66.5,57.75 C66.5,58.716 65.716,59.5 64.75,59.5 Z" id="Shape"></path>
                        <path d="M10.5,8.75 C10.5,9.716 9.716,10.5 8.75,10.5 C7.784,10.5 7,9.716 7,8.75 C7,7.784 7.784,7 8.75,7 C9.716,7 10.5,7.784 10.5,8.75 Z" id="Shape"></path>
                        <path d="M17.5,8.75 C17.5,9.716 16.716,10.5 15.75,10.5 C14.784,10.5 14,9.716 14,8.75 C14,7.784 14.784,7 15.75,7 C16.716,7 17.5,7.784 17.5,8.75 Z" id="Shape"></path>
                        <path d="M24.5,8.75 C24.5,9.716 23.716,10.5 22.75,10.5 C21.784,10.5 21,9.716 21,8.75 C21,7.784 21.784,7 22.75,7 C23.716,7 24.5,7.784 24.5,8.75 Z" id="Shape"></path>
                    </g>
                </g>
                <rect id="Rectangle-2" fill="#FFFFFF" x="34" y="37" width="44" height="49"></rect>
                <g id="0046-pencil-ruler" transform="translate(41.000000, 25.000000)" fill-rule="nonzero" fill="#393939">
                    <path d="M64.8359,59.4866667 L40.8968,35.6666667 L62.46745,14.2033333 C64.4272,12.2533333 64.4272,9.08333333 62.46745,7.13333333 L58.82935,3.51333333 C57.8813,2.57 56.6217,2.05333333 55.275,2.05333333 C53.9283,2.05333333 52.6687,2.57333333 51.72065,3.51333333 L30.15,24.9766667 L6.2109,1.15666667 C5.12215,0.0733333333 3.59455,-0.25 2.2244,0.313333333 C0.85425,0.876666667 0.00335,2.18333333 0.00335,3.72 L0.00335,60.67 C0.00335,63.4266667 2.2579,65.67 5.02835,65.67 L62.2631,65.67 C63.80745,65.67 65.1173,64.8233333 65.6868,63.46 C66.2563,62.0966667 65.928,60.5766667 64.83925,59.4933333 L64.8359,59.4866667 Z M21.775,45.6666667 L30.15,45.6666667 C30.59555,45.6666667 31.021,45.49 31.3359,45.18 L31.825,44.6933333 L39.50655,52.3366667 L15.075,52.3366667 C14.1504,52.3366667 13.4,51.59 13.4,50.67 L13.4,26.36 L21.08155,34.0033333 L20.59245,34.49 C20.27755,34.8033333 20.10335,35.2266667 20.10335,35.67 L20.10335,44.0033333 C20.10335,44.9233333 20.85375,45.67 21.77835,45.67 L21.775,45.6666667 Z M29.45655,42.3333333 L23.45,42.3333333 L23.45,36.3566667 L50.25,9.69 L56.25655,15.6666667 L29.45655,42.3333333 Z M55.275,5.38333333 C55.7239,5.38333333 56.146,5.55666667 56.4609,5.86666667 L60.099,9.48666667 C60.75225,10.1366667 60.75225,11.1933333 60.099,11.8433333 L58.62835,13.3066667 L52.6218,7.33 L54.09245,5.86666667 C54.40735,5.55333333 54.8261,5.38333333 55.27835,5.38333333 L55.275,5.38333333 Z M62.58805,62.18 C62.53445,62.3066667 62.38035,62.3333333 62.25975,62.3333333 L5.025,62.3333333 C4.1004,62.3333333 3.35,61.5866667 3.35,60.6666667 L3.35,55.6666667 L5.025,55.6666667 C5.9496,55.6666667 6.7,54.92 6.7,54 C6.7,53.08 5.9496,52.3333333 5.025,52.3333333 L3.35,52.3333333 L3.35,45.6666667 L5.025,45.6666667 C5.9496,45.6666667 6.7,44.92 6.7,44 C6.7,43.08 5.9496,42.3333333 5.025,42.3333333 L3.35,42.3333333 L3.35,35.6666667 L5.025,35.6666667 C5.9496,35.6666667 6.7,34.92 6.7,34 C6.7,33.08 5.9496,32.3333333 5.025,32.3333333 L3.35,32.3333333 L3.35,25.6666667 L5.025,25.6666667 C5.9496,25.6666667 6.7,24.92 6.7,24 C6.7,23.08 5.9496,22.3333333 5.025,22.3333333 L3.35,22.3333333 L3.35,3.71666667 C3.35,3.59666667 3.3768,3.44333333 3.5041,3.39 C3.6314,3.33666667 3.75535,3.42666667 3.8391,3.51 L27.7782,27.33 L23.44665,31.64 L15.276,23.51 C13.6814,21.9233333 12.29785,22.25 11.7786,22.4633333 C11.25935,22.6766667 10.05,23.42 10.05,25.6633333 L10.05,50.6633333 C10.05,53.42 12.30455,55.6633333 15.075,55.6633333 L40.2,55.6633333 C42.4579,55.6633333 43.2016,54.46 43.416,53.9433333 C43.6304,53.4266667 43.9587,52.05 42.3641,50.4633333 L34.19345,42.3333333 L38.525,38.0233333 L62.4641,61.8433333 C62.54785,61.9266667 62.6383,62.0533333 62.5847,62.1766667 L62.58805,62.18 Z" id="Shape"></path>
                </g>
                <circle id="Oval" fill="#393939" cx="68.25" cy="36.75" r="1.75"></circle>
                <circle id="Oval-Copy" fill="#393939" cx="34.25" cy="61.25" r="1.75"></circle>
            </g>
        </g>
    </g>
</svg>