<?xml version="1.0" encoding="UTF-8" standalone="no"?>
<svg width="23px" height="36px" viewBox="0 0 23 36" version="1.1" xmlns="http://www.w3.org/2000/svg" xmlns:xlink="http://www.w3.org/1999/xlink" xmlns:sketch="http://www.bohemiancoding.com/sketch/ns">
    <!-- Generator: Sketch 3.3.2 (12043) - http://www.bohemiancoding.com/sketch -->
    <title>Fill 13</title>
    <desc>Created with Sketch.</desc>
    <defs></defs>
    <g id="Page-1" stroke="none" stroke-width="1" fill="none" fill-rule="evenodd" sketch:type="MSPage">
        <g id="Desktop" sketch:type="MSArtboardGroup" transform="translate(-510.000000, -2779.000000)" fill="#454545">
            <path d="M521.265228,2791.49277 C519.489862,2791.49277 518.052722,2790.14309 518.052722,2788.48109 C518.052722,2786.81669 519.490824,2785.46791 521.265228,2785.46791 C523.038674,2785.46791 524.475814,2786.81759 524.475814,2788.48109 C524.476772,2790.14399 523.038674,2791.49277 521.265228,2791.49277 L521.265228,2791.49277 Z M531.864574,2806.635 L528.186047,2797.24648 L530.228535,2797.24648 L530.228535,2798.76058 L531.224638,2798.76058 L531.224638,2794.79572 L530.228535,2794.79572 L530.228535,2796.31162 L527.818676,2796.31162 L525.436043,2790.23026 C525.69067,2789.69069 525.836402,2789.09852 525.836402,2788.47207 C525.836402,2786.2651 524.082497,2784.46062 521.816767,2784.17174 L521.816767,2779 L520.568598,2779 L520.568598,2784.17084 C518.300307,2784.45971 516.547359,2786.2645 516.547359,2788.47117 C516.547359,2789.35522 516.829857,2790.17706 517.315735,2790.86452 L515.178762,2796.31072 L512.674419,2796.31072 L512.674419,2794.79482 L511.678315,2794.79482 L511.678315,2798.75998 L512.674419,2798.75998 L512.674419,2797.24558 L514.813312,2797.24558 L511.134785,2806.6341 L511.368597,2809.27664 L510,2815 L513.079264,2809.93615 L515.292147,2807.98949 L521.49904,2793.07721 L527.709777,2807.98949 L529.920736,2809.93615 L533,2815 L531.631403,2809.27664 L531.864574,2806.635 Z" id="Fill-13" sketch:type="MSShapeGroup"></path>
        </g>
    </g>
</svg>