<?xml version="1.0" encoding="UTF-8"?>
<svg width="140px" height="140px" viewBox="0 0 140 140" version="1.1" xmlns="http://www.w3.org/2000/svg" xmlns:xlink="http://www.w3.org/1999/xlink" style="background: #FFFFFF;">
    <!-- Generator: Sketch 42 (36781) - http://www.bohemiancoding.com/sketch -->
    <title>Artboard Copy 2</title>
    <desc>Created with Sketch.</desc>
    <defs></defs>
    <g id="Page-1" stroke="none" stroke-width="1" fill="none" fill-rule="evenodd">
        <g id="Artboard-Copy-2">
            <g id="Group-8" transform="translate(16.000000, 23.000000)">
                <g id="0094-database" fill-rule="nonzero" fill="#393939">
                    <path d="M66.5626316,5.89966667 C64.7315789,4.70433333 62.1673684,3.64466667 58.94,2.75366667 C52.5221053,0.979 44.0189474,0.00366666667 35,0.00366666667 C25.9810526,0.00366666667 17.4778947,0.982666667 11.06,2.75366667 C7.82894737,3.64466667 5.26473684,4.70433333 3.43736842,5.89966667 C1.15684211,7.392 0,9.10433333 0,11 L0,55 C0,56.8956667 1.15684211,58.6116667 3.43736842,60.1003333 C5.26842105,61.2956667 7.83263158,62.3553333 11.06,63.2463333 C17.4778947,65.021 25.9810526,65.9963333 35,65.9963333 C44.0189474,65.9963333 52.5221053,65.0173333 58.94,63.2426667 C62.1710526,62.3516667 64.7352632,61.292 66.5626316,60.0966667 C68.8431579,58.608 70,56.892 70,54.9963333 L70,10.9963333 C70,9.10066667 68.8431579,7.38466667 66.5626316,5.896 L66.5626316,5.89966667 Z M12.0473684,6.28466667 C18.1557895,4.598 26.3052632,3.66666667 35,3.66666667 C43.6947368,3.66666667 51.8478947,4.598 57.9526316,6.28466667 C64.5657895,8.11433333 66.3157895,10.1676667 66.3157895,11 C66.3157895,11.8323333 64.5694737,13.8856667 57.9526316,15.7153333 C51.8442105,17.402 43.6947368,18.3333333 35,18.3333333 C26.3052632,18.3333333 18.1521053,17.402 12.0473684,15.7153333 C5.43421053,13.8856667 3.68421053,11.8323333 3.68421053,11 C3.68421053,10.1676667 5.43052632,8.11433333 12.0473684,6.28466667 L12.0473684,6.28466667 Z M57.9526316,59.7153333 C51.8442105,61.402 43.6947368,62.3333333 35,62.3333333 C26.3052632,62.3333333 18.1521053,61.402 12.0473684,59.7153333 C5.43421053,57.8856667 3.68421053,55.8323333 3.68421053,55 L3.68421053,45.5913333 C5.49684211,46.7243333 7.97263158,47.729 11.06,48.5833333 C17.4778947,50.358 25.9810526,51.3333333 35,51.3333333 C44.0189474,51.3333333 52.5221053,50.3543333 58.94,48.5796667 C62.0273684,47.7253333 64.5068421,46.7206667 66.3157895,45.5876667 L66.3157895,54.9963333 C66.3157895,55.8286667 64.5694737,57.882 57.9526316,59.7116667 L57.9526316,59.7153333 Z M57.9526316,45.0486667 C51.8442105,46.7353333 43.6947368,47.6666667 35,47.6666667 C26.3052632,47.6666667 18.1521053,46.7353333 12.0473684,45.0486667 C5.43421053,43.219 3.68421053,41.1656667 3.68421053,40.3333333 L3.68421053,30.9246667 C5.49684211,32.0576667 7.97263158,33.0623333 11.06,33.9166667 C17.4778947,35.6913333 25.9810526,36.6666667 35,36.6666667 C44.0189474,36.6666667 52.5221053,35.6876667 58.94,33.9166667 C62.0273684,33.0623333 64.5068421,32.0576667 66.3157895,30.9246667 L66.3157895,40.3333333 C66.3157895,41.1656667 64.5694737,43.219 57.9526316,45.0486667 Z M57.9526316,30.382 C51.8442105,32.0686667 43.6947368,33 35,33 C26.3052632,33 18.1521053,32.0686667 12.0473684,30.382 C5.43421053,28.5523333 3.68421053,26.499 3.68421053,25.6666667 L3.68421053,16.258 C5.49684211,17.391 7.97263158,18.3956667 11.06,19.25 C17.4778947,21.0246667 25.9810526,22 35,22 C44.0189474,22 52.5221053,21.021 58.94,19.25 C62.0273684,18.3956667 64.5068421,17.391 66.3157895,16.258 L66.3157895,25.6666667 C66.3157895,26.499 64.5694737,28.5523333 57.9526316,30.382 Z" id="Shape"></path>
                </g>
                <polygon id="Rectangle-3" fill="#FFFFFF" points="36 43 62 34 80 34 80 71 36 71"></polygon>
                <g id="0119-hammer-wrench" transform="translate(40.000000, 37.000000)" fill-rule="nonzero" fill="#393939">
                    <path d="M64.086,43.9658824 L48.2135,29.4176471 L50.0685,27.3352941 C51.6365,27.9317647 53.2885,28.2352941 54.9965,28.2352941 C62.7175,28.2352941 68.9965,21.9035294 68.9965,14.1176471 C68.9965,11.8623529 68.454,9.61764706 67.432,7.62705882 C67.1765,7.12588235 66.697,6.78 66.1475,6.69529412 C65.598,6.61058824 65.038,6.79411765 64.6425,7.19294118 L57.7755,14.1176471 L55,14.1176471 L55,11.3188235 L61.867,4.39411765 C62.2625,3.99529412 62.4445,3.43411765 62.3605,2.87647059 C62.2765,2.31882353 61.9335,1.83882353 61.4365,1.58117647 C59.4625,0.547058824 57.2365,0.00352941176 55,0.00352941176 C47.279,0.00352941176 41,6.33529412 41,14.1211765 C41,15.8435294 41.301,17.5094118 41.8925,19.0905882 L39.4075,21.3458824 L30.7695,13.4258824 C30.437,13.1223529 30.2515,12.7164706 30.241,12.2788235 C30.2305,11.8411765 30.3985,11.4282353 30.717,11.1070588 L38.7425,3.01411765 C39.243,2.50941176 39.3935,1.75058824 39.1205,1.09058824 C38.8475,0.430588235 38.2105,0 37.5035,0 C37.36,0 33.909,0.00352941176 30.1815,0.222352941 C23.0625,0.645882353 21.3265,1.46117647 20.5145,2.28 L8.2645,14.6329412 C7.9355,14.9647059 7.7535,15.4129412 7.7535,15.8823529 L7.7535,17.6470588 L6.0035,17.6470588 C5.538,17.6470588 5.0935,17.8341176 4.7645,18.1623529 L1.2645,21.6917647 C0.582,22.38 0.582,23.4988235 1.2645,24.1870588 L8.2645,31.2458824 C8.947,31.9341176 10.0565,31.9341176 10.739,31.2458824 L14.239,27.7164706 C14.568,27.3847059 14.75,26.9364706 14.75,26.4670588 L14.75,24.7023529 L16.5,24.7023529 C16.9655,24.7023529 17.41,24.5152941 17.739,24.1870588 L20.5145,21.3882353 C20.8225,21.0776471 21.2215,20.9082353 21.638,20.9082353 C22.0825,20.9082353 22.499,21.0988235 22.8105,21.4411765 L30.22,29.6611765 L14.4315,43.9694118 C13.378,44.9223529 12.7795,46.2247059 12.741,47.6329412 C12.7025,49.0411765 13.2345,50.3752941 14.2355,51.3847059 L18.0365,55.2176471 C19.006,56.1952941 20.273,56.7282353 21.617,56.7282353 C21.6625,56.7282353 21.708,56.7282353 21.7535,56.7247059 C23.15,56.6858824 24.4415,56.0823529 25.3865,55.02 L39.152,39.5752941 L53.096,55.0411765 C54.0655,56.1141176 55.4375,56.7317647 56.8585,56.7317647 C58.213,56.7317647 59.4905,56.1952941 60.4565,55.2176471 L64.2575,51.3847059 C65.2585,50.3752941 65.7905,49.0447059 65.7555,47.6364706 C65.7205,46.2282353 65.129,44.9223529 64.0825,43.9623529 L64.086,43.9658824 Z M45.5675,18.7729412 C44.857,17.3152941 44.5,15.7482353 44.5,14.1176471 C44.5,8.28 49.211,3.52941176 55,3.52941176 C55.8505,3.52941176 56.6765,3.62823529 57.4815,3.82588235 L52.011,9.34235294 C51.682,9.67411765 51.5,10.1223529 51.5,10.5917647 L51.5,15.8858824 C51.5,16.86 52.284,17.6505882 53.25,17.6505882 L58.5,17.6505882 C58.9655,17.6505882 59.41,17.4635294 59.739,17.1352941 L65.2095,11.6188235 C65.4055,12.4305882 65.5035,13.2670588 65.5035,14.1211765 C65.5035,19.9588235 60.7925,24.7094118 55.0035,24.7094118 C53.383,24.7094118 51.829,24.3458824 50.387,23.6329412 C49.6835,23.2835294 48.8365,23.4494118 48.315,24.0388235 L45.6305,27.0494118 L42.0115,23.7317647 L45.1685,20.8694118 C45.7495,20.34 45.914,19.4894118 45.571,18.78 L45.5675,18.7729412 Z M21.6345,17.3823529 C20.28,17.3823529 19.0025,17.9188235 18.0365,18.8964706 L15.7755,21.1764706 L13,21.1764706 C12.034,21.1764706 11.25,21.9670588 11.25,22.9411765 L11.25,25.74 L9.5,27.5047059 L4.9745,22.9411765 L6.7245,21.1764706 L9.5,21.1764706 C10.466,21.1764706 11.25,20.3858824 11.25,19.4117647 L11.25,16.6129412 L22.94,4.82470588 C23.1605,4.69764706 24.55,4.07294118 30.7205,3.72705882 C31.5745,3.67764706 32.411,3.64235294 33.1915,3.61411765 L28.239,8.60823529 C27.238,9.61764706 26.706,10.9482353 26.741,12.3564706 C26.776,13.7647059 27.3675,15.0705882 28.414,16.0305882 L31.466,18.8294118 L28.176,22.1470588 L25.4005,19.0694118 C24.431,17.9964706 23.059,17.3788235 21.638,17.3788235 L21.6345,17.3823529 Z M22.7895,52.6658824 C22.492,53.0011765 22.093,53.1917647 21.666,53.2023529 C21.239,53.2129412 20.8295,53.0435294 20.5145,52.7258824 L16.7135,48.8929412 C16.3985,48.5752941 16.2305,48.1623529 16.241,47.7317647 C16.2515,47.3011765 16.4405,46.8988235 16.773,46.5988235 L32.5755,32.2764706 L36.793,36.9529412 L22.7895,52.6623529 L22.7895,52.6658824 Z M61.7865,48.8964706 L57.9855,52.7294118 C57.6775,53.04 57.2785,53.2094118 56.862,53.2094118 C56.4175,53.2094118 56.001,53.0188235 55.6895,52.6764706 L30.5315,24.7694118 L34.0595,21.2117647 L61.734,46.5811765 C62.0665,46.8847059 62.252,47.2905882 62.2625,47.7282353 C62.273,48.1658824 62.105,48.5788235 61.7865,48.9 L61.7865,48.8964706 Z" id="Shape"></path>
                </g>
                <circle id="Oval-2" fill="#393939" cx="68.125" cy="33.875" r="1.875"></circle>
                <circle id="Oval-2-Copy" fill="#393939" cx="36.0249512" cy="49.4750245" r="1.82500005"></circle>
                <circle id="Oval-2-Copy-2" fill="#393939" cx="35.825" cy="64.1749756" r="1.82500005"></circle>
            </g>
        </g>
    </g>
</svg>