<?xml version="1.0" encoding="UTF-8" standalone="no"?>
<svg width="81px" height="81px" viewBox="0 0 81 81" version="1.1" xmlns="http://www.w3.org/2000/svg" xmlns:xlink="http://www.w3.org/1999/xlink" xmlns:sketch="http://www.bohemiancoding.com/sketch/ns">
    <!-- Generator: Sketch 3.3.2 (12043) - http://www.bohemiancoding.com/sketch -->
    <title>Rectangle 1 Copy + Fill 13</title>
    <desc>Created with Sketch.</desc>
    <defs></defs>
    <g id="Page-1" stroke="none" stroke-width="1" fill="none" fill-rule="evenodd" sketch:type="MSPage">
        <g id="Desktop" sketch:type="MSArtboardGroup" transform="translate(-485.000000, -3010.000000)">
            <g id="Rectangle-1-Copy-+-Fill-13" sketch:type="MSLayerGroup" transform="translate(485.000000, 3010.000000)">
                <rect id="Rectangle-1-Copy" fill="#FFDD2E" sketch:type="MSShapeGroup" x="0" y="0" width="81" height="81" rx="92.16"></rect>
                <path d="M40.244813,34.8808529 C38.3150672,34.8808529 36.7529585,33.3812076 36.7529585,31.5345465 C36.7529585,29.6852096 38.3161131,28.1865701 40.244813,28.1865701 C42.1724721,28.1865701 43.7345808,29.6862155 43.7345808,31.5345465 C43.7356217,33.3822134 42.1724721,34.8808529 40.244813,34.8808529 L40.244813,34.8808529 Z M51.7658412,51.705559 L47.7674424,41.2738649 L49.9875378,41.2738649 L49.9875378,42.9562055 L51.0702592,42.9562055 L51.0702592,38.5507997 L49.9875378,38.5507997 L49.9875378,40.2351376 L47.3681265,40.2351376 L44.7783074,33.4780682 C45.055076,32.878544 45.2134807,32.2205743 45.2134807,31.5245265 C45.2134807,29.0723302 43.3070621,27.0673503 40.8443123,26.746381 L40.8443123,21 L39.4876062,21 L39.4876062,26.7453799 C37.0220726,27.0663492 35.1166948,29.0716613 35.1166948,31.5235254 C35.1166948,32.5058044 35.4237579,33.4189537 35.9518863,34.1827982 L33.6290896,40.2341366 L30.906977,40.2341366 L30.906977,38.5497986 L29.8242556,38.5497986 L29.8242556,42.9555366 L30.906977,42.9555366 L30.906977,41.2728638 L33.2318603,41.2728638 L29.2334616,51.7045579 L29.4876052,54.6407155 L28,61 L31.3470258,55.3735036 L33.7523342,53.2105465 L40.4989567,36.6413424 L47.2497575,53.2105465 L49.6529742,55.3735036 L53,61 L51.5123948,54.6407155 L51.7658412,51.705559 Z" id="Fill-13" fill="#454545" sketch:type="MSShapeGroup"></path>
            </g>
        </g>
    </g>
</svg>