<?xml version="1.0" encoding="UTF-8" standalone="no"?>
<svg width="122px" height="122px" viewBox="0 0 122 122" version="1.1" xmlns="http://www.w3.org/2000/svg" xmlns:xlink="http://www.w3.org/1999/xlink" xmlns:sketch="http://www.bohemiancoding.com/sketch/ns">
    <!-- Generator: Sketch 3.3.2 (12043) - http://www.bohemiancoding.com/sketch -->
    <title>Artboard</title>
    <desc>Created with Sketch.</desc>
    <defs></defs>
    <g id="Page-1" stroke="none" stroke-width="1" fill="none" fill-rule="evenodd" sketch:type="MSPage">
        <g id="Artboard" sketch:type="MSArtboardGroup">
            <g id="Rectangle-1-Copy-+-Fill-13-Copy-Copy" sketch:type="MSLayerGroup">
                <rect id="Rectangle-1-Copy" fill="#FFDD2E" sketch:type="MSShapeGroup" x="0" y="0" width="122" height="122" rx="138.24"></rect>
                <path d="M60.6156443,52.5365933 C57.7091136,52.5365933 55.3563078,50.2778682 55.3563078,47.4964775 C55.3563078,44.7110565 57.7106888,42.4538464 60.6156443,42.4538464 C63.519032,42.4538464 65.8718378,44.7125715 65.8718378,47.4964775 C65.8734055,50.2793832 63.519032,52.5365933 60.6156443,52.5365933 L60.6156443,52.5365933 Z M77.968304,77.8775086 L71.9460244,62.1655743 L75.2898717,62.1655743 L75.2898717,64.6994701 L76.9206373,64.6994701 L76.9206373,58.0641674 L75.2898717,58.0641674 L75.2898717,60.6010714 L71.3445856,60.6010714 L67.4438704,50.423757 C67.8607318,49.52077 68.0993166,48.5297539 68.0993166,47.4813856 C68.0993166,43.7879542 65.2279207,40.7681078 61.5185939,40.2846726 L61.5185939,31.6296296 L59.47516,31.6296296 L59.47516,40.2831649 C55.7616402,40.7666001 52.891812,43.7869466 52.891812,47.4798778 C52.891812,48.9593598 53.354302,50.3347203 54.1497546,51.4852022 L50.6512214,60.5995637 L46.5512493,60.5995637 L46.5512493,58.0626596 L44.9204837,58.0626596 L44.9204837,64.6984625 L46.5512493,64.6984625 L46.5512493,62.1640665 L50.0529254,62.1640665 L44.0306458,77.8760008 L44.4134301,82.2983617 L42.1728395,91.8765432 L47.2140389,83.4020672 L50.836849,80.1442798 L60.9984285,55.1881947 L71.1663014,80.1442798 L74.7859611,83.4020672 L79.8271605,91.8765432 L77.5865699,82.2983617 L77.968304,77.8775086 Z" id="Fill-13" fill="#454545" sketch:type="MSShapeGroup"></path>
            </g>
        </g>
    </g>
</svg>