<?xml version="1.0" encoding="UTF-8" standalone="no"?>
<svg width="47px" height="47px" viewBox="0 0 47 47" version="1.1" xmlns="http://www.w3.org/2000/svg" xmlns:xlink="http://www.w3.org/1999/xlink" xmlns:sketch="http://www.bohemiancoding.com/sketch/ns">
    <!-- Generator: Sketch 3.3.2 (12043) - http://www.bohemiancoding.com/sketch -->
    <title>f copy + Oval 282</title>
    <desc>Created with Sketch.</desc>
    <defs></defs>
    <g id="Page-1" stroke="none" stroke-width="1" fill="none" fill-rule="evenodd" sketch:type="MSPage">
        <g id="Blog" sketch:type="MSArtboardGroup" transform="translate(-326.000000, -1560.000000)">
            <g id="f-copy-+-Oval-282-+-l-copy-+-Oval-282-Copy-+-i-copy-+-Oval-282-Copy-2" sketch:type="MSLayerGroup" transform="translate(209.000000, 1561.000000)">
                <g id="f-copy-+-Oval-282" transform="translate(118.000000, 0.000000)" sketch:type="MSShapeGroup">
                    <path d="M17,23.556 L20.016,23.556 L20.016,32.72 L23.786,32.72 L23.786,23.556 L27.556,23.556 L27.556,19.786 L23.786,19.786 L23.786,17.872 C23.786,17.5626651 23.8633326,17.2920012 24.018,17.06 C24.1726674,16.8279988 24.3466657,16.712 24.54,16.712 L27.556,16.712 L27.556,13 L24.54,13 C23.3026605,13 22.2393378,13.4833285 21.35,14.45 C20.4606622,15.4166715 20.016,16.5766599 20.016,17.93 L20.016,19.786 L17,19.786 L17,23.556 Z" id="f-copy" fill="#454545"></path>
                    <circle id="Oval-282" stroke="#454545" cx="22.5" cy="22.5" r="22.5"></circle>
                </g>
            </g>
        </g>
    </g>
</svg>