<?xml version="1.0" encoding="UTF-8" standalone="no"?>
<svg width="81px" height="81px" viewBox="0 0 81 81" version="1.1" xmlns="http://www.w3.org/2000/svg" xmlns:xlink="http://www.w3.org/1999/xlink" xmlns:sketch="http://www.bohemiancoding.com/sketch/ns">
    <!-- Generator: Sketch 3.3.2 (12043) - http://www.bohemiancoding.com/sketch -->
    <title>Rectangle 1 Copy + Group</title>
    <desc>Created with Sketch.</desc>
    <defs></defs>
    <g id="Page-1" stroke="none" stroke-width="1" fill="none" fill-rule="evenodd" sketch:type="MSPage">
        <g id="Desktop" sketch:type="MSArtboardGroup" transform="translate(-264.000000, -3007.000000)">
            <g id="Rectangle-1-Copy-+-Group" sketch:type="MSLayerGroup" transform="translate(264.000000, 3007.000000)">
                <rect id="Rectangle-1-Copy" fill="#FFDD2E" sketch:type="MSShapeGroup" x="0" y="0" width="81" height="81" rx="92.16"></rect>
                <g id="Group" transform="translate(15.000000, 16.000000)" sketch:type="MSShapeGroup">
                    <g fill="#454545">
                        <circle id="Oval-145-Copy-3" cx="25.5" cy="2.5" r="2.5"></circle>
                        <circle id="Oval-145-Copy-4" cx="25.5" cy="47.5" r="2.5"></circle>
                        <circle id="Oval-145-Copy-3" transform="translate(41.409903, 9.090097) rotate(-315.000000) translate(-41.409903, -9.090097) " cx="41.4099026" cy="9.09009742" r="2.5"></circle>
                        <circle id="Oval-145-Copy-4" transform="translate(9.590097, 40.909903) rotate(-315.000000) translate(-9.590097, -40.909903) " cx="9.59009742" cy="40.9099026" r="2.5"></circle>
                        <circle id="Oval-145-Copy-3" transform="translate(9.590097, 9.090097) rotate(-45.000000) translate(-9.590097, -9.090097) " cx="9.59009742" cy="9.09009742" r="2.5"></circle>
                        <circle id="Oval-145-Copy-4" transform="translate(41.409903, 40.909903) rotate(-45.000000) translate(-41.409903, -40.909903) " cx="41.4099026" cy="40.9099026" r="2.5"></circle>
                        <path d="M27.267767,17.267767 C28.2440777,16.2914562 28.2440777,14.7085438 27.267767,13.732233 C26.2914562,12.7559223 24.7085438,12.7559223 23.732233,13.732233 C22.7559223,14.7085438 22.7559223,16.2914562 23.732233,17.267767 C24.7085438,18.2440777 26.2914562,18.2440777 27.267767,17.267767 L27.267767,17.267767 Z" id="Oval-145-Copy-5"></path>
                        <path d="M17.267767,31.267767 C18.2440777,30.2914562 18.2440777,28.7085438 17.267767,27.732233 C16.2914562,26.7559223 14.7085438,26.7559223 13.732233,27.732233 C12.7559223,28.7085438 12.7559223,30.2914562 13.732233,31.267767 C14.7085438,32.2440777 16.2914562,32.2440777 17.267767,31.267767 L17.267767,31.267767 Z" id="Oval-145-Copy-6"></path>
                        <path d="M37.267767,31.267767 C38.2440777,30.2914562 38.2440777,28.7085438 37.267767,27.732233 C36.2914562,26.7559223 34.7085438,26.7559223 33.732233,27.732233 C32.7559223,28.7085438 32.7559223,30.2914562 33.732233,31.267767 C34.7085438,32.2440777 36.2914562,32.2440777 37.267767,31.267767 L37.267767,31.267767 Z" id="Oval-145-Copy-7"></path>
                        <circle id="Oval-145-Copy-3" transform="translate(3.000000, 25.000000) rotate(-90.000000) translate(-3.000000, -25.000000) " cx="3" cy="25" r="2.5"></circle>
                        <circle id="Oval-145-Copy-4" transform="translate(48.000000, 25.000000) rotate(-90.000000) translate(-48.000000, -25.000000) " cx="48" cy="25" r="2.5"></circle>
                    </g>
                    <path d="M25.5,6.5 L25.5,14.5622578" id="Line" stroke="#454545" stroke-linecap="square" stroke-dasharray="1,2"></path>
                    <path d="M23.5,17.5 L16.5,28.5" id="Line-Copy-2" stroke="#454545" stroke-linecap="square" stroke-dasharray="1,2"></path>
                    <path d="M33.5,29.5 L17.5,29.5" id="Line-Copy-4" stroke="#454545" stroke-linecap="square" stroke-dasharray="1,2"></path>
                    <path d="M41.5,41.5 L26.5,47.5" id="Line-Copy-18" stroke="#454545" stroke-linecap="square" stroke-dasharray="1,2"></path>
                    <path d="M10.5,41.5 L24.5,47.5" id="Line-Copy-19" stroke="#454545" stroke-linecap="square" stroke-dasharray="1,2"></path>
                    <path d="M47.5,25.5 L37.5,29.5" id="Line-Copy-10" stroke="#454545" stroke-linecap="square" stroke-dasharray="1,2"></path>
                    <path d="M14.5,25.5 L4.5,29.5" id="Line-Copy-11" stroke="#454545" stroke-linecap="square" stroke-dasharray="1,2" transform="translate(9.500000, 27.500000) scale(-1, 1) translate(-9.500000, -27.500000) "></path>
                    <path d="M24.5,3.5 L9.5,8.5" id="Line-Copy-9" stroke="#454545" stroke-linecap="square" stroke-dasharray="1,2"></path>
                    <path d="M40.5,9.5 L25.5,2.5" id="Line-Copy-8" stroke="#454545" stroke-linecap="square" stroke-dasharray="1,2"></path>
                    <path d="M27.5,17.5 L34.5,28.5" id="Line-Copy-3" stroke="#454545" stroke-linecap="square" stroke-dasharray="1,2"></path>
                    <path d="M26.5,31.5 L34.5,46.5" id="Line-Copy-14" stroke="#454545" stroke-linecap="square" stroke-dasharray="1,2" transform="translate(30.500000, 39.000000) scale(1, -1) translate(-30.500000, -39.000000) "></path>
                    <path d="M16.5,31.5 L24.5,46.5" id="Line-Copy-15" stroke="#454545" stroke-linecap="square" stroke-dasharray="1,2" transform="translate(20.500000, 39.000000) scale(-1, -1) translate(-20.500000, -39.000000) "></path>
                    <path d="M42.5,10.5 L47.5,24.5" id="Line-Copy-12" stroke="#454545" stroke-linecap="square" stroke-dasharray="1,2"></path>
                    <path d="M47.5,27.5 L42.5,39.5" id="Line-Copy-17" stroke="#454545" stroke-linecap="square" stroke-dasharray="1,2"></path>
                    <path d="M3.5,10.5 L8.5,24.5" id="Line-Copy-13" stroke="#454545" stroke-linecap="square" stroke-dasharray="1,2" transform="translate(6.000000, 17.500000) scale(-1, 1) translate(-6.000000, -17.500000) "></path>
                    <path d="M8.5,25.5 L2.5,39.5" id="Line-Copy-16" stroke="#454545" stroke-linecap="square" stroke-dasharray="1,2" transform="translate(5.500000, 32.500000) scale(-1, 1) translate(-5.500000, -32.500000) "></path>
                    <path d="M27.5,14.5 L39.5,9.5" id="Line-Copy-6" stroke="#454545" stroke-linecap="square" stroke-dasharray="1,2"></path>
                    <path d="M11.5,14.5 L23.5,9.5" id="Line-Copy-7" stroke="#454545" stroke-linecap="square" stroke-dasharray="1,2" transform="translate(17.500000, 12.000000) scale(-1, 1) translate(-17.500000, -12.000000) "></path>
                </g>
            </g>
        </g>
    </g>
</svg>