<?xml version="1.0" encoding="UTF-8" standalone="no"?>
<svg width="122px" height="122px" viewBox="0 0 122 122" version="1.1" xmlns="http://www.w3.org/2000/svg" xmlns:xlink="http://www.w3.org/1999/xlink" xmlns:sketch="http://www.bohemiancoding.com/sketch/ns">
    <!-- Generator: Sketch 3.3.2 (12043) - http://www.bohemiancoding.com/sketch -->
    <title>Artboard</title>
    <desc>Created with Sketch.</desc>
    <defs></defs>
    <g id="Page-1" stroke="none" stroke-width="1" fill="none" fill-rule="evenodd" sketch:type="MSPage">
        <g id="Artboard" sketch:type="MSArtboardGroup">
            <g id="Rectangle-1-Copy-+-Group-Copy" sketch:type="MSLayerGroup">
                <rect id="Rectangle-1-Copy" fill="#FFDD2E" sketch:type="MSShapeGroup" x="0" y="0" width="122" height="122" rx="138.24"></rect>
                <g id="Group" transform="translate(22.592593, 24.098765)" sketch:type="MSShapeGroup">
                    <g fill="#454545">
                        <ellipse id="Oval-145-Copy-3" cx="38.4074074" cy="3.7654321" rx="3.7654321" ry="3.7654321"></ellipse>
                        <ellipse id="Oval-145-Copy-4" cx="38.4074074" cy="71.5432099" rx="3.7654321" ry="3.7654321"></ellipse>
                        <ellipse id="Oval-145-Copy-3" transform="translate(62.370471, 13.691258) rotate(-315.000000) translate(-62.370471, -13.691258) " cx="62.3704705" cy="13.6912578" rx="3.7654321" ry="3.7654321"></ellipse>
                        <ellipse id="Oval-145-Copy-4" transform="translate(14.444344, 61.617384) rotate(-315.000000) translate(-14.444344, -61.617384) " cx="14.4443443" cy="61.6173841" rx="3.7654321" ry="3.7654321"></ellipse>
                        <ellipse id="Oval-145-Copy-3" transform="translate(14.444344, 13.691258) rotate(-45.000000) translate(-14.444344, -13.691258) " cx="14.4443443" cy="13.6912578" rx="3.7654321" ry="3.7654321"></ellipse>
                        <ellipse id="Oval-145-Copy-4" transform="translate(62.370471, 61.617384) rotate(-45.000000) translate(-62.370471, -61.617384) " cx="62.3704705" cy="61.6173841" rx="3.7654321" ry="3.7654321"></ellipse>
                        <path d="M41.06997,26.0082416 C42.5404627,24.5377489 42.5404627,22.1536091 41.06997,20.6831164 C39.5994773,19.2126237 37.2153375,19.2126237 35.7448448,20.6831164 C34.2743521,22.1536091 34.2743521,24.5377489 35.7448448,26.0082416 C37.2153375,27.4787343 39.5994773,27.4787343 41.06997,26.0082416 L41.06997,26.0082416 Z" id="Oval-145-Copy-5"></path>
                        <path d="M26.0082416,47.0946613 C27.4787343,45.6241686 27.4787343,43.2400289 26.0082416,41.7695362 C24.5377489,40.2990435 22.1536091,40.2990435 20.6831164,41.7695362 C19.2126237,43.2400289 19.2126237,45.6241686 20.6831164,47.0946613 C22.1536091,48.565154 24.5377489,48.565154 26.0082416,47.0946613 L26.0082416,47.0946613 Z" id="Oval-145-Copy-6"></path>
                        <path d="M56.1316984,47.0946613 C57.6021911,45.6241686 57.6021911,43.2400289 56.1316984,41.7695362 C54.6612057,40.2990435 52.2770659,40.2990435 50.8065732,41.7695362 C49.3360805,43.2400289 49.3360805,45.6241686 50.8065732,47.0946613 C52.2770659,48.565154 54.6612057,48.565154 56.1316984,47.0946613 L56.1316984,47.0946613 Z" id="Oval-145-Copy-7"></path>
                        <ellipse id="Oval-145-Copy-3" transform="translate(4.518519, 37.654321) rotate(-90.000000) translate(-4.518519, -37.654321) " cx="4.51851852" cy="37.654321" rx="3.7654321" ry="3.7654321"></ellipse>
                        <ellipse id="Oval-145-Copy-4" transform="translate(72.296296, 37.654321) rotate(-90.000000) translate(-72.296296, -37.654321) " cx="72.2962963" cy="37.654321" rx="3.7654321" ry="3.7654321"></ellipse>
                    </g>
                    <path d="M38.4074074,9.79012346 L38.4074074,21.9332771" id="Line" stroke="#454545" stroke-width="1.5" stroke-linecap="square" stroke-dasharray="1,2"></path>
                    <path d="M35.3950617,26.3580247 L24.8518519,42.9259259" id="Line-Copy-2" stroke="#454545" stroke-width="1.5" stroke-linecap="square" stroke-dasharray="1,2"></path>
                    <path d="M50.4567901,44.4320988 L26.3580247,44.4320988" id="Line-Copy-4" stroke="#454545" stroke-width="1.5" stroke-linecap="square" stroke-dasharray="1,2"></path>
                    <path d="M62.5061728,62.5061728 L39.9135802,71.5432099" id="Line-Copy-18" stroke="#454545" stroke-width="1.5" stroke-linecap="square" stroke-dasharray="1,2"></path>
                    <path d="M15.8148148,62.5061728 L36.9012346,71.5432099" id="Line-Copy-19" stroke="#454545" stroke-width="1.5" stroke-linecap="square" stroke-dasharray="1,2"></path>
                    <path d="M71.5432099,38.4074074 L56.4814815,44.4320988" id="Line-Copy-10" stroke="#454545" stroke-width="1.5" stroke-linecap="square" stroke-dasharray="1,2"></path>
                    <path d="M21.8395062,38.4074074 L6.77777778,44.4320988" id="Line-Copy-11" stroke="#454545" stroke-width="1.5" stroke-linecap="square" stroke-dasharray="1,2" transform="translate(14.308642, 41.419753) scale(-1, 1) translate(-14.308642, -41.419753) "></path>
                    <path d="M36.9012346,5.27160494 L14.308642,12.8024691" id="Line-Copy-9" stroke="#454545" stroke-width="1.5" stroke-linecap="square" stroke-dasharray="1,2"></path>
                    <path d="M61,14.308642 L38.4074074,3.7654321" id="Line-Copy-8" stroke="#454545" stroke-width="1.5" stroke-linecap="square" stroke-dasharray="1,2"></path>
                    <path d="M41.4197531,26.3580247 L51.962963,42.9259259" id="Line-Copy-3" stroke="#454545" stroke-width="1.5" stroke-linecap="square" stroke-dasharray="1,2"></path>
                    <path d="M39.9135802,47.4444444 L51.962963,70.037037" id="Line-Copy-14" stroke="#454545" stroke-width="1.5" stroke-linecap="square" stroke-dasharray="1,2" transform="translate(45.938272, 58.740741) scale(1, -1) translate(-45.938272, -58.740741) "></path>
                    <path d="M24.8518519,47.4444444 L36.9012346,70.037037" id="Line-Copy-15" stroke="#454545" stroke-width="1.5" stroke-linecap="square" stroke-dasharray="1,2" transform="translate(30.876543, 58.740741) scale(-1, -1) translate(-30.876543, -58.740741) "></path>
                    <path d="M64.0123457,15.8148148 L71.5432099,36.9012346" id="Line-Copy-12" stroke="#454545" stroke-width="1.5" stroke-linecap="square" stroke-dasharray="1,2"></path>
                    <path d="M71.5432099,41.4197531 L64.0123457,59.4938272" id="Line-Copy-17" stroke="#454545" stroke-width="1.5" stroke-linecap="square" stroke-dasharray="1,2"></path>
                    <path d="M5.27160494,15.8148148 L12.8024691,36.9012346" id="Line-Copy-13" stroke="#454545" stroke-width="1.5" stroke-linecap="square" stroke-dasharray="1,2" transform="translate(9.037037, 26.358025) scale(-1, 1) translate(-9.037037, -26.358025) "></path>
                    <path d="M12.8024691,38.4074074 L3.7654321,59.4938272" id="Line-Copy-16" stroke="#454545" stroke-width="1.5" stroke-linecap="square" stroke-dasharray="1,2" transform="translate(8.283951, 48.950617) scale(-1, 1) translate(-8.283951, -48.950617) "></path>
                    <path d="M41.4197531,21.8395062 L59.4938272,14.308642" id="Line-Copy-6" stroke="#454545" stroke-width="1.5" stroke-linecap="square" stroke-dasharray="1,2"></path>
                    <path d="M17.3209877,21.8395062 L35.3950617,14.308642" id="Line-Copy-7" stroke="#454545" stroke-width="1.5" stroke-linecap="square" stroke-dasharray="1,2" transform="translate(26.358025, 18.074074) scale(-1, 1) translate(-26.358025, -18.074074) "></path>
                </g>
            </g>
        </g>
    </g>
</svg>