<?xml version="1.0" encoding="UTF-8" standalone="no"?>
<svg width="81px" height="81px" viewBox="0 0 81 81" version="1.1" xmlns="http://www.w3.org/2000/svg" xmlns:xlink="http://www.w3.org/1999/xlink" xmlns:sketch="http://www.bohemiancoding.com/sketch/ns">
    <!-- Generator: Sketch 3.3.2 (12043) - http://www.bohemiancoding.com/sketch -->
    <title>Rectangle 1 Copy + Group</title>
    <desc>Created with Sketch.</desc>
    <defs></defs>
    <g id="Page-1" stroke="none" stroke-width="1" fill="none" fill-rule="evenodd" sketch:type="MSPage">
        <g id="Desktop" sketch:type="MSArtboardGroup" transform="translate(-264.000000, -3105.000000)">
            <g id="Rectangle-1-Copy-+-Group" sketch:type="MSLayerGroup" transform="translate(264.000000, 3105.000000)">
                <rect id="Rectangle-1-Copy" fill="#FFDD2E" sketch:type="MSShapeGroup" x="0" y="0" width="81" height="81" rx="92.16"></rect>
                <g id="Group" transform="translate(19.000000, 19.000000)" sketch:type="MSShapeGroup">
                    <g id="Imported-Layers-2-Copy" fill="#454545">
                        <path d="M21.2586637,42.5078465 C15.5865315,42.5078465 10.2537256,40.2990142 6.24290079,36.2881129 C2.23199951,32.2772116 0.023167164,26.9445586 0.023167164,21.2723499 C0.023167164,15.6001413 2.23199951,10.2674118 6.24290079,6.25658701 C10.2537256,2.24568572 15.5865315,0.0367769171 21.2586637,0.0367769171 C26.9309489,0.0367769171 32.2636018,2.24568572 36.2745031,6.25658701 C40.285328,10.2674118 42.4941603,15.6001413 42.4941603,21.2723499 C42.4941603,26.9445586 40.285328,32.2772116 36.2745031,36.2881129 C32.2636018,40.2990142 26.9309489,42.5078465 21.2586637,42.5078465 L21.2586637,42.5078465 Z M21.2586637,0.648451214 C15.7498486,0.648451214 10.5708023,2.79374589 6.67543098,6.68904073 C2.78005968,10.5844885 0.634841461,15.7635348 0.634841461,21.2723499 C0.634841461,26.7811651 2.78005968,31.9602879 6.67543098,35.8555827 C10.5708023,39.7508775 15.7498486,41.8961722 21.2586637,41.8961722 C26.7674789,41.8961722 31.9466016,39.7508775 35.8418965,35.8555827 C39.7372678,31.9602879 41.882486,26.7811651 41.882486,21.2723499 C41.882486,15.7635348 39.7372678,10.5844885 35.8418965,6.68904073 C31.9466016,2.79374589 26.7674789,0.648451214 21.2586637,0.648451214 L21.2586637,0.648451214 Z" id="Fill-1"></path>
                        <path d="M33.5713615,9.24522762 C30.2824653,5.95633138 25.9097586,4.14516379 21.2586637,4.14516379 C16.6075688,4.14516379 12.2348622,5.95633138 8.94604243,9.24522762 C5.65722265,12.5340474 3.8459786,16.906754 3.8459786,21.5578489 C3.8459786,26.2089438 5.65722265,30.5817269 8.94604243,33.8704702 C12.2348622,37.1593665 16.6075688,38.9705341 21.2586637,38.9705341 C25.9097586,38.9705341 30.2824653,37.1593665 33.5713615,33.8704702 C36.8601813,30.5817269 38.6714253,26.2089438 38.6714253,21.5578489 C38.6714253,16.906754 36.8601813,12.5340474 33.5713615,9.24522762 L33.5713615,9.24522762 Z" id="Fill-4"></path>
                    </g>
                    <path d="M22.6944444,40.6111111 L21.5,40.6111111 C21.5,40.6111111 11.9523374,19.1268971 7.16666667,9.55555556 L8.36111111,8.36111111 L22.6944444,40.6111111 Z" id="Path-950" fill="#FFDD2E"></path>
                    <path d="M14.3333333,19.1111111 C14.3333333,19.1111111 14.3333333,11.9444444 9.55555556,8.36111111 C4.77777778,4.77777778 19.1111111,4.77777778 21.5,8.36111111 C23.8888889,11.9444444 31.0555556,9.55555556 31.0555556,8.36111111 C31.0555556,7.16666667 32.25,14.3333333 28.6666667,15.5277778 C25.0833333,16.7222222 22.6944444,15.5277778 20.3055556,15.5277778 C17.9166667,15.5277778 14.3333333,19.1111111 14.3333333,19.1111111 Z" id="Path-951" fill="#FFDD2E"></path>
                    <path d="M37.5602053,31.7259535 C33.8995221,28.3440992 29.005435,26.2777778 23.6287327,26.2777778 C16.9812253,26.2777778 11.0714297,29.4362972 7.31822747,34.3344545 C11.0433758,37.5073852 15.8728589,39.4223821 21.1496135,39.4223821 C27.7470575,39.4223821 33.6453216,36.4288377 37.5602032,31.7259516 Z" id="Oval-153" fill="#FFDD2E"></path>
                    <path d="M23.3795669,29.8353377 C23.3834687,29.8389349 23.3873686,29.8425341 23.3912666,29.8461352 C20.4159961,33.4202813 15.9333747,35.6953449 10.9193838,35.6953449 C6.90910347,35.6953449 3.23874497,34.2399665 0.407669764,31.8285711 C0.586972014,31.5945708 0.772750579,31.3657946 0.964737616,31.1425105 C2.47143931,31.8627361 4.07965858,32.4304256 5.77447759,32.8217054 C12.0546282,34.2715925 18.3278807,33.0231336 23.3795669,29.8353377 Z" id="Oval-153-Copy-2" fill="#454545" transform="translate(11.899468, 32.765341) rotate(-315.000000) translate(-11.899468, -32.765341) "></path>
                    <ellipse id="Oval-155" fill="#454545" transform="translate(28.666667, 30.458333) rotate(12.000000) translate(-28.666667, -30.458333) " cx="28.6666667" cy="30.4583333" rx="3.58333333" ry="1.79166667"></ellipse>
                    <ellipse id="Oval-155-Copy" fill="#454545" transform="translate(16.722222, 31.055556) rotate(-14.000000) translate(-16.722222, -31.055556) " cx="16.7222222" cy="31.0555556" rx="2.38888889" ry="1.19444444"></ellipse>
                    <ellipse id="Oval-155-Copy-2" fill="#454545" transform="translate(23.823424, 28.550762) rotate(-2.000000) translate(-23.823424, -28.550762) " cx="23.8234244" cy="28.5507624" rx="0.90548218" ry="0.45274109"></ellipse>
                    <ellipse id="Oval-155-Copy-3" fill="#454545" transform="translate(20.240091, 35.717429) rotate(-2.000000) translate(-20.240091, -35.717429) " cx="20.2400911" cy="35.717429" rx="0.90548218" ry="0.45274109"></ellipse>
                </g>
            </g>
        </g>
    </g>
</svg>