<?xml version="1.0" encoding="UTF-8" standalone="no"?>
<svg width="36px" height="36px" viewBox="0 0 36 36" version="1.1" xmlns="http://www.w3.org/2000/svg" xmlns:xlink="http://www.w3.org/1999/xlink" xmlns:sketch="http://www.bohemiancoding.com/sketch/ns">
    <!-- Generator: Sketch 3.3.2 (12043) - http://www.bohemiancoding.com/sketch -->
    <title>Imported Layers 2</title>
    <desc>Created with Sketch.</desc>
    <defs></defs>
    <g id="Page-1" stroke="none" stroke-width="1" fill="none" fill-rule="evenodd" sketch:type="MSPage">
        <g id="Desktop" sketch:type="MSArtboardGroup" transform="translate(-503.000000, -2875.000000)" fill="#454545">
            <g id="Imported-Layers-2" sketch:type="MSLayerGroup" transform="translate(503.000000, 2875.000000)">
                <path d="M17.797951,35.5879645 C13.0491892,35.5879645 8.58451447,33.7387095 5.22661462,30.3807457 C1.86865075,27.0227818 0.0193957652,22.5582351 0.0193957652,17.8094093 C0.0193957652,13.0605834 1.86865075,8.59597269 5.22661462,5.23807284 C8.58451447,1.88010898 13.0491892,0.0307899771 17.797951,0.0307899771 C22.5468409,0.0307899771 27.0113876,1.88010898 30.3693515,5.23807284 C33.7272513,8.59597269 35.5765063,13.0605834 35.5765063,17.8094093 C35.5765063,22.5582351 33.7272513,27.0227818 30.3693515,30.3807457 C27.0113876,33.7387095 22.5468409,35.5879645 17.797951,35.5879645 L17.797951,35.5879645 Z M17.797951,0.542889388 C13.1859197,0.542889388 8.849974,2.33895005 5.58873291,5.60012713 C2.32749182,8.86143223 0.531495177,13.1973779 0.531495177,17.8094093 C0.531495177,22.4214406 2.32749182,26.7574503 5.58873291,30.0186274 C8.849974,33.2798044 13.1859197,35.0758651 17.797951,35.0758651 C22.4099823,35.0758651 26.7459921,33.2798044 30.0071691,30.0186274 C33.2684102,26.7574503 35.0644069,22.4214406 35.0644069,17.8094093 C35.0644069,13.1973779 33.2684102,8.86143223 30.0071691,5.60012713 C26.7459921,2.33895005 22.4099823,0.542889388 17.797951,0.542889388 L17.797951,0.542889388 Z" id="Fill-1" sketch:type="MSShapeGroup"></path>
                <path d="M14.9814043,18.575574 C14.5589863,18.575574 14.2153035,18.2318273 14.2153035,17.8094093 C14.2153035,17.3869913 14.5589863,17.0433085 14.9814043,17.0433085 C15.4038863,17.0433085 15.747569,17.3869913 15.747569,17.8094093 C15.747569,18.2318273 15.4038863,18.575574 14.9814043,18.575574 L14.9814043,18.575574 Z M14.9814043,17.0965669 C14.588304,17.0965669 14.2685619,17.4163089 14.2685619,17.8094093 C14.2685619,18.2024456 14.588304,18.5222516 14.9814043,18.5222516 C15.3745046,18.5222516 15.6943107,18.2024456 15.6943107,17.8094093 C15.6943107,17.4163089 15.3745046,17.0965669 14.9814043,17.0965669 L14.9814043,17.0965669 Z" id="Fill-2" sketch:type="MSShapeGroup"></path>
                <path d="M14.9814043,18.7779173 C14.4473486,18.7779173 14.0129603,18.3434009 14.0129603,17.8094093 C14.0129603,17.2753536 14.4473486,16.8409653 14.9814043,16.8409653 C15.5154599,16.8409653 15.9498483,17.2753536 15.9498483,17.8094093 C15.9498483,18.3434009 15.5154599,18.7779173 14.9814043,18.7779173 L14.9814043,18.7779173 Z M14.9814043,16.9397364 C14.5018872,16.9397364 14.1117314,17.3298922 14.1117314,17.8094093 C14.1117314,18.2889263 14.5018872,18.6791461 14.9814043,18.6791461 C15.4609214,18.6791461 15.8510771,18.2889263 15.8510771,17.8094093 C15.8510771,17.3298922 15.4609214,16.9397364 14.9814043,16.9397364 L14.9814043,16.9397364 Z" id="Fill-3" sketch:type="MSShapeGroup"></path>
                <path d="M28.1062561,7.74019057 C25.3527616,4.98669604 21.6918909,3.47036969 17.797951,3.47036969 C13.9040111,3.47036969 10.2431405,4.98669604 7.48970994,7.74019057 C4.73627943,10.4936211 3.21988906,14.1544917 3.21988906,18.0484317 C3.21988906,21.9423716 4.73627943,25.6033062 7.48970994,28.3566727 C10.2431405,31.1101673 13.9040111,32.6264936 17.797951,32.6264936 C21.6918909,32.6264936 25.3527616,31.1101673 28.1062561,28.3566727 C30.8596866,25.6033062 32.376077,21.9423716 32.376077,18.0484317 C32.376077,14.1544917 30.8596866,10.4936211 28.1062561,7.74019057 L28.1062561,7.74019057 Z M28.0835957,10.1278541 C28.4964759,10.1278541 28.8377901,10.4303128 28.9005863,10.8254615 L27.2666691,10.8254615 C27.3294653,10.4303128 27.6707796,10.1278541 28.0835957,10.1278541 L28.0835957,10.1278541 Z M23.6773004,12.8738591 C24.3156323,12.5053396 25.1319187,12.724006 25.5004383,13.362402 C25.8690218,14.0007339 25.6502914,14.8170204 25.0119595,15.1855399 C24.3735635,15.5541234 23.5573411,15.335393 23.1887575,14.6970611 C22.820238,14.0586651 23.0389684,13.2424427 23.6773004,12.8738591 L23.6773004,12.8738591 Z M20.4218204,10.5954648 C20.7904039,9.95706892 21.6066264,9.73840247 22.2450223,10.106922 C22.8833542,10.4755056 23.1020847,11.291728 22.7335011,11.9301239 C22.3649816,12.5684559 21.5486951,12.7871863 20.9103632,12.4186028 C20.2719673,12.0500832 20.0533009,11.2337968 20.4218204,10.5954648 L20.4218204,10.5954648 Z M17.797951,8.91533069 C18.5350541,8.91533069 19.1326101,9.51288669 19.1326101,10.2499898 C19.1326101,10.9870929 18.5350541,11.5846489 17.797951,11.5846489 C17.0608479,11.5846489 16.4632919,10.9870929 16.4632919,10.2499898 C16.4632919,9.51288669 17.0608479,8.91533069 17.797951,8.91533069 L17.797951,8.91533069 Z M13.3509438,10.106922 C13.9892757,9.73840247 14.8055621,9.95706892 15.1740817,10.5954648 C15.5426652,11.2337968 15.3239348,12.0500832 14.6856028,12.4186028 C14.0472069,12.7871863 13.2309845,12.5684559 12.8624009,11.9301239 C12.4938814,11.291728 12.7125478,10.4755056 13.3509438,10.106922 L13.3509438,10.106922 Z M10.0954638,13.362402 C10.4640473,12.724006 11.2802698,12.5053396 11.9186657,12.8738591 C12.5569976,13.2424427 12.7757281,14.0586651 12.4071445,14.6970611 C12.038625,15.335393 11.2223385,15.5541234 10.5840066,15.1855399 C9.94561069,14.8170204 9.72694424,14.0007339 10.0954638,13.362402 L10.0954638,13.362402 Z M7.51230633,10.1278541 C7.92518648,10.1278541 8.26650074,10.4303128 8.32929693,10.8254615 L6.69531573,10.8254615 C6.75811192,10.4303128 7.09942618,10.1278541 7.51230633,10.1278541 L7.51230633,10.1278541 Z M8.32929693,11.0868242 C8.26650074,11.4819729 7.92518648,11.7843676 7.51230633,11.7843676 C7.09942618,11.7843676 6.75811192,11.4819729 6.69531573,11.0868242 L8.32929693,11.0868242 L8.32929693,11.0868242 Z M6.92665664,26.204511 C6.63469596,25.9125503 6.60717062,25.4574219 6.84222425,25.1335831 L7.99758453,26.2888793 C7.67374567,26.523933 7.2185533,26.4964076 6.92665664,26.204511 L6.92665664,26.204511 Z M8.18238841,26.1041395 L7.02702812,24.9487792 C7.35086699,24.7137256 7.80605935,24.7412509 8.09795602,25.0331476 C8.38991669,25.3251082 8.41744204,25.7803006 8.18238841,26.1041395 L8.18238841,26.1041395 Z M8.90387247,17.8094093 C8.90387247,17.0723062 9.50142847,16.4747502 10.2385316,16.4747502 C10.9756346,16.4747502 11.5731906,17.0723062 11.5731906,17.8094093 C11.5731906,18.5465123 10.9756346,19.1440683 10.2385316,19.1440683 C9.50142847,19.1440683 8.90387247,18.5465123 8.90387247,17.8094093 L8.90387247,17.8094093 Z M11.9186657,22.7449594 C11.2802698,23.1135429 10.4640473,22.8948125 10.0954638,22.2564805 C9.72694424,21.6180846 9.94561069,20.8018622 10.5840066,20.4332786 C11.2223385,20.0647591 12.038625,20.2834255 12.4071445,20.9218215 C12.7757281,21.5601534 12.5569976,22.3764398 11.9186657,22.7449594 L11.9186657,22.7449594 Z M15.1740817,25.0234177 C14.8055621,25.6617496 13.9892757,25.8804801 13.3509438,25.5118965 C12.7125478,25.143377 12.4938814,24.3270905 12.8624009,23.6887586 C13.2309845,23.0504267 14.0472069,22.8316962 14.6856028,23.2002157 C15.3239348,23.5687993 15.5426652,24.3850217 15.1740817,25.0234177 L15.1740817,25.0234177 Z M17.797951,26.7034878 C17.0608479,26.7034878 16.4632919,26.1059318 16.4632919,25.3688287 C16.4632919,24.6317256 17.0608479,24.0341696 17.797951,24.0341696 C18.5350541,24.0341696 19.1326101,24.6317256 19.1326101,25.3688287 C19.1326101,26.1059318 18.5350541,26.7034878 17.797951,26.7034878 L17.797951,26.7034878 Z M22.2450223,25.5118965 C21.6066264,25.8804801 20.7904039,25.6617496 20.4218204,25.0234177 C20.0533009,24.3850217 20.2719673,23.5687993 20.9103632,23.2002157 C21.5486951,22.8316962 22.3649816,23.0504267 22.7335011,23.6887586 C23.1020847,24.3270905 22.8833542,25.143377 22.2450223,25.5118965 L22.2450223,25.5118965 Z M25.5004383,22.2564805 C25.1319187,22.8948125 24.3156323,23.1135429 23.6773004,22.7449594 C23.0389684,22.3764398 22.820238,21.5601534 23.1887575,20.9218215 C23.5573411,20.2834255 24.3735635,20.0647591 25.0119595,20.4332786 C25.6502914,20.8018622 25.8690218,21.6180846 25.5004383,22.2564805 L25.5004383,22.2564805 Z M23.6068227,17.8094093 C23.6068227,17.9665598 23.6003574,18.122238 23.588067,18.2761879 L26.7335096,18.4961346 C26.91044,18.508553 27.0579246,18.6197426 27.1186084,18.7863029 C27.1792282,18.9529272 27.1376201,19.1329302 27.0101073,19.2560901 L26.30245,19.9396148 C26.1485641,20.0883156 25.9458367,20.1702516 25.7317152,20.1702516 C25.5999776,20.1702516 25.4684961,20.1379253 25.3516094,20.0768574 L24.0017153,19.5172608 C23.7993721,19.4120244 23.5638703,19.4113842 23.3692086,19.5073389 L23.3521172,19.5150844 C22.6233998,21.8908416 20.4124746,23.6182809 17.797951,23.6182809 C14.5898403,23.6182809 11.9891434,21.017584 11.9891434,17.8094093 C11.9891434,14.6012985 14.5898403,12.0006016 17.797951,12.0006016 C20.3572959,12.0006016 22.5298776,13.6557709 23.3040439,15.9540091 L23.3673522,15.9826226 C23.5658547,16.0803056 23.804301,16.0764648 23.9965943,15.9759653 L25.3567304,15.4116318 C25.4684961,15.3529324 25.5999776,15.3206061 25.7317152,15.3206061 C25.9458367,15.3206061 26.1485641,15.402478 26.30245,15.5511789 L27.0101073,16.2347676 C27.1376201,16.3579275 27.1792282,16.5379304 27.1186084,16.7044908 C27.0579246,16.8711151 26.91044,16.9823047 26.7335096,16.9946591 L23.5768009,17.2153739 C23.5966447,17.4107399 23.6068227,17.6088583 23.6068227,17.8094093 L23.6068227,17.8094093 Z M28.0835957,26.4471181 C27.6707796,26.4471181 27.3294653,26.1446593 27.2666691,25.7495106 L28.9005863,25.7495106 C28.8377901,26.1446593 28.4964759,26.4471181 28.0835957,26.4471181 L28.0835957,26.4471181 Z M27.2666691,25.4881479 C27.3294653,25.0929992 27.6707796,24.7906045 28.0835957,24.7906045 C28.4964759,24.7906045 28.8377901,25.0929992 28.9005863,25.4881479 L27.2666691,25.4881479 L27.2666691,25.4881479 Z M28.0835957,11.7843676 C27.6707796,11.7843676 27.3294653,11.4819729 27.2666691,11.0868242 L28.9005863,11.0868242 C28.8377901,11.4819729 28.4964759,11.7843676 28.0835957,11.7843676 L28.0835957,11.7843676 Z" id="Fill-4" sketch:type="MSShapeGroup"></path>
                <path d="M17.797951,18.8880827 C17.2031476,18.8880827 16.7192136,18.4042127 16.7192136,17.8094093 C16.7192136,17.2146058 17.2031476,16.7306718 17.797951,16.7306718 C18.3927545,16.7306718 18.8766884,17.2146058 18.8766884,17.8094093 C18.8766884,18.4042127 18.3927545,18.8880827 17.797951,18.8880827 L17.797951,18.8880827 Z M17.797951,16.81408 C17.2491725,16.81408 16.8026218,17.2605667 16.8026218,17.8094093 C16.8026218,18.3581878 17.2491725,18.8047385 17.797951,18.8047385 C18.3467296,18.8047385 18.7932802,18.3581878 18.7932802,17.8094093 C18.7932802,17.2605667 18.3467296,16.81408 17.797951,16.81408 L17.797951,16.81408 Z" id="Fill-5" sketch:type="MSShapeGroup"></path>
                <path d="M17.797951,15.7521779 C16.6635228,15.7521779 15.7406557,16.675045 15.7406557,17.8094093 C15.7406557,18.9438375 16.6635228,19.8666406 17.797951,19.8666406 C18.9323793,19.8666406 19.8552464,18.9438375 19.8552464,17.8094093 C19.8552464,16.675045 18.9323793,15.7521779 17.797951,15.7521779 L17.797951,15.7521779 Z M17.797951,19.0878654 C17.0929822,19.0878654 16.5194948,18.5143781 16.5194948,17.8094093 C16.5194948,17.1044404 17.0929822,16.5309531 17.797951,16.5309531 C18.5029199,16.5309531 19.0764072,17.1044404 19.0764072,17.8094093 C19.0764072,18.5143781 18.5029199,19.0878654 17.797951,19.0878654 L17.797951,19.0878654 Z" id="Fill-6" sketch:type="MSShapeGroup"></path>
                <path d="M17.797951,16.6297242 C17.1475208,16.6297242 16.618266,17.158979 16.618266,17.8094093 C16.618266,18.4598395 17.1475208,18.9890302 17.797951,18.9890302 C18.4483813,18.9890302 18.977636,18.4598395 18.977636,17.8094093 C18.977636,17.158979 18.4483813,16.6297242 17.797951,16.6297242" id="Fill-7" sketch:type="MSShapeGroup"></path>
                <path d="M15.8688085,14.7693311 C15.8202871,14.4639278 15.5564919,14.2302184 15.23739,14.2302184 C14.918352,14.2302184 14.6545568,14.4639278 14.6060354,14.7693311 L15.8688085,14.7693311" id="Fill-8" sketch:type="MSShapeGroup"></path>
                <path d="M14.6060354,14.9713543 C14.6545568,15.2767576 14.918352,15.510467 15.23739,15.510467 C15.5564919,15.510467 15.8202871,15.2767576 15.8688085,14.9713543 L14.6060354,14.9713543" id="Fill-9" sketch:type="MSShapeGroup"></path>
                <path d="M21.0685379,15.2453915 C21.2501412,14.9951029 21.2288891,14.6433546 21.0032453,14.4177108 C20.7776655,14.192067 20.4258532,14.1708149 20.1755646,14.3524822 L21.0685379,15.2453915" id="Fill-10" sketch:type="MSShapeGroup"></path>
                <path d="M20.0327529,14.4952939 C19.8511496,14.7455825 19.8724017,15.0973308 20.0979815,15.3229746 C20.3236253,15.5486184 20.6754376,15.5698705 20.9257262,15.3882032 L20.0327529,14.4952939" id="Fill-11" sketch:type="MSShapeGroup"></path>
                <path d="M15.8688085,20.6475282 C15.8202871,20.3421249 15.5564919,20.1083515 15.23739,20.1083515 C14.918352,20.1083515 14.6545568,20.3421249 14.6060354,20.6475282 L15.8688085,20.6475282" id="Fill-12" sketch:type="MSShapeGroup"></path>
                <path d="M14.6060354,20.8494874 C14.6545568,21.1548907 14.918352,21.3886641 15.23739,21.3886641 C15.5564919,21.3886641 15.8202871,21.1548907 15.8688085,20.8494874 L14.6060354,20.8494874" id="Fill-13" sketch:type="MSShapeGroup"></path>
                <path d="M20.9257262,20.2306153 C20.6754376,20.049012 20.3236253,20.0702641 20.0979815,20.2958439 C19.8724017,20.5214877 19.8511496,20.8733 20.0327529,21.1235886 L20.9257262,20.2306153" id="Fill-14" sketch:type="MSShapeGroup"></path>
                <path d="M20.1755646,21.2664003 C20.4258532,21.4480036 20.7776655,21.4267515 21.0032453,21.2011717 C21.2288891,20.9755279 21.2501412,20.6237156 21.0685379,20.373427 L20.1755646,21.2664003" id="Fill-15" sketch:type="MSShapeGroup"></path>
                <path id="Fill-16" sketch:type="MSShapeGroup" d="M13.3230343,16.3766191 C13.3957525,16.2764397 13.3872388,16.1356123 13.2969173,16.0452908 C13.2066597,15.9549693 13.0658324,15.9464556 12.965653,16.0191737 L13.3230343,16.3766191"></path>
                <path id="Fill-17" sketch:type="MSShapeGroup" d="M12.9084899,16.0763368 C12.8357717,16.1765163 12.8442854,16.3173436 12.9346069,16.4076651 C13.0249285,16.4979867 13.1656918,16.5065003 13.2658712,16.4337822 L12.9084899,16.0763368"></path>
                <path id="Fill-18" sketch:type="MSShapeGroup" d="M12.863041,19.4507519 C12.8825008,19.5729516 12.9880573,19.6665378 13.1157621,19.6665378 C13.2434669,19.6665378 13.3490874,19.5729516 13.3684832,19.4507519 L12.863041,19.4507519"></path>
                <path id="Fill-19" sketch:type="MSShapeGroup" d="M13.3684832,19.3699042 C13.3490874,19.2476405 13.2434669,19.1541183 13.1157621,19.1541183 C12.9880573,19.1541183 12.8825008,19.2476405 12.863041,19.3699042 L13.3684832,19.3699042"></path>
                <path id="Fill-20" sketch:type="MSShapeGroup" d="M13.3718118,16.7931732 L12.8597764,16.7931732 C12.8243775,16.7931732 12.7957,16.7484732 12.7957,16.6931732 C12.7957,16.6378732 12.8243775,16.5931732 12.8597764,16.5931732 L13.3718118,16.5931732 C13.4072107,16.5931732 13.4358882,16.6378732 13.4358882,16.6931732 C13.4358882,16.7484732 13.4072107,16.7931732 13.3718118,16.7931732"></path>
                <path id="Fill-21" sketch:type="MSShapeGroup" d="M13.3718118,17.0492229 L12.8597764,17.0492229 C12.8243775,17.0492229 12.7957,17.0045229 12.7957,16.9492229 C12.7957,16.8939229 12.8243775,16.8492229 12.8597764,16.8492229 L13.3718118,16.8492229 C13.4072107,16.8492229 13.4358882,16.8939229 13.4358882,16.9492229 C13.4358882,17.0045229 13.4072107,17.0492229 13.3718118,17.0492229"></path>
                <path id="Fill-22" sketch:type="MSShapeGroup" d="M13.3718118,17.3052726 L12.8597764,17.3052726 C12.8243775,17.3052726 12.7957,17.2605726 12.7957,17.2052726 C12.7957,17.1499726 12.8243775,17.1052726 12.8597764,17.1052726 L13.3718118,17.1052726 C13.4072107,17.1052726 13.4358882,17.1499726 13.4358882,17.2052726 C13.4358882,17.2605726 13.4072107,17.3052726 13.3718118,17.3052726"></path>
                <path id="Fill-23" sketch:type="MSShapeGroup" d="M13.3718118,17.5613223 L12.8597764,17.5613223 C12.8243775,17.5613223 12.7957,17.5166223 12.7957,17.4613223 C12.7957,17.4060223 12.8243775,17.3613223 12.8597764,17.3613223 L13.3718118,17.3613223 C13.4072107,17.3613223 13.4358882,17.4060223 13.4358882,17.4613223 C13.4358882,17.5166223 13.4072107,17.5613223 13.3718118,17.5613223"></path>
                <path id="Fill-24" sketch:type="MSShapeGroup" d="M13.3718118,17.817372 L12.8597764,17.817372 C12.8243775,17.817372 12.7957,17.772672 12.7957,17.717372 C12.7957,17.662072 12.8243775,17.617372 12.8597764,17.617372 L13.3718118,17.617372 C13.4072107,17.617372 13.4358882,17.662072 13.4358882,17.717372 C13.4358882,17.772672 13.4072107,17.817372 13.3718118,17.817372"></path>
                <path id="Fill-25" sketch:type="MSShapeGroup" d="M13.3718118,18.0734217 L12.8597764,18.0734217 C12.8243775,18.0734217 12.7957,18.0287217 12.7957,17.9734217 C12.7957,17.9181217 12.8243775,17.8734217 12.8597764,17.8734217 L13.3718118,17.8734217 C13.4072107,17.8734217 13.4358882,17.9181217 13.4358882,17.9734217 C13.4358882,18.0287217 13.4072107,18.0734217 13.3718118,18.0734217"></path>
                <path id="Fill-26" sketch:type="MSShapeGroup" d="M13.3718118,18.3294714 L12.8597764,18.3294714 C12.8243775,18.3294714 12.7957,18.2847714 12.7957,18.2294714 C12.7957,18.1741714 12.8243775,18.1294714 12.8597764,18.1294714 L13.3718118,18.1294714 C13.4072107,18.1294714 13.4358882,18.1741714 13.4358882,18.2294714 C13.4358882,18.2847714 13.4072107,18.3294714 13.3718118,18.3294714"></path>
                <path id="Fill-27" sketch:type="MSShapeGroup" d="M13.3718118,18.5855211 L12.8597764,18.5855211 C12.8243775,18.5855211 12.7957,18.5408211 12.7957,18.4855211 C12.7957,18.4302211 12.8243775,18.3855211 12.8597764,18.3855211 L13.3718118,18.3855211 C13.4072107,18.3855211 13.4358882,18.4302211 13.4358882,18.4855211 C13.4358882,18.5408211 13.4072107,18.5855211 13.3718118,18.5855211"></path>
                <path id="Fill-28" sketch:type="MSShapeGroup" d="M13.3718118,18.8415708 L12.8597764,18.8415708 C12.8243775,18.8415708 12.7957,18.7968708 12.7957,18.7415708 C12.7957,18.6862708 12.8243775,18.6415708 12.8597764,18.6415708 L13.3718118,18.6415708 C13.4072107,18.6415708 13.4358882,18.6862708 13.4358882,18.7415708 C13.4358882,18.7968708 13.4072107,18.8415708 13.3718118,18.8415708"></path>
                <path id="Fill-29" sketch:type="MSShapeGroup" d="M13.3718118,19.0976205 L12.8597764,19.0976205 C12.8243775,19.0976205 12.7957,19.0529205 12.7957,18.9976205 C12.7957,18.9423205 12.8243775,18.8976205 12.8597764,18.8976205 L13.3718118,18.8976205 C13.4072107,18.8976205 13.4358882,18.9423205 13.4358882,18.9976205 C13.4358882,19.0529205 13.4072107,19.0976205 13.3718118,19.0976205"></path>
            </g>
        </g>
    </g>
</svg>