<?xml version="1.0" encoding="UTF-8" standalone="no"?>
<svg width="81px" height="81px" viewBox="0 0 81 81" version="1.1" xmlns="http://www.w3.org/2000/svg" xmlns:xlink="http://www.w3.org/1999/xlink" xmlns:sketch="http://www.bohemiancoding.com/sketch/ns">
    <!-- Generator: Sketch 3.3.2 (12043) - http://www.bohemiancoding.com/sketch -->
    <title>Rectangle 1 Copy + Imported Layers 2</title>
    <desc>Created with Sketch.</desc>
    <defs></defs>
    <g id="Page-1" stroke="none" stroke-width="1" fill="none" fill-rule="evenodd" sketch:type="MSPage">
        <g id="Desktop" sketch:type="MSArtboardGroup" transform="translate(-485.000000, -3105.000000)">
            <g id="Rectangle-1-Copy-+-Imported-Layers-2" sketch:type="MSLayerGroup" transform="translate(485.000000, 3105.000000)">
                <rect id="Rectangle-1-Copy" fill="#FFDD2E" sketch:type="MSShapeGroup" x="0" y="0" width="81" height="81" rx="92.16"></rect>
                <g id="Imported-Layers-2" transform="translate(19.000000, 19.000000)" fill="#454545" sketch:type="MSShapeGroup">
                    <path d="M21.2586637,42.5078465 C15.5865315,42.5078465 10.2537256,40.2990142 6.24290079,36.2881129 C2.23199951,32.2772116 0.023167164,26.9445586 0.023167164,21.2723499 C0.023167164,15.6001413 2.23199951,10.2674118 6.24290079,6.25658701 C10.2537256,2.24568572 15.5865315,0.0367769171 21.2586637,0.0367769171 C26.9309489,0.0367769171 32.2636018,2.24568572 36.2745031,6.25658701 C40.285328,10.2674118 42.4941603,15.6001413 42.4941603,21.2723499 C42.4941603,26.9445586 40.285328,32.2772116 36.2745031,36.2881129 C32.2636018,40.2990142 26.9309489,42.5078465 21.2586637,42.5078465 L21.2586637,42.5078465 Z M21.2586637,0.648451214 C15.7498486,0.648451214 10.5708023,2.79374589 6.67543098,6.68904073 C2.78005968,10.5844885 0.634841461,15.7635348 0.634841461,21.2723499 C0.634841461,26.7811651 2.78005968,31.9602879 6.67543098,35.8555827 C10.5708023,39.7508775 15.7498486,41.8961722 21.2586637,41.8961722 C26.7674789,41.8961722 31.9466016,39.7508775 35.8418965,35.8555827 C39.7372678,31.9602879 41.882486,26.7811651 41.882486,21.2723499 C41.882486,15.7635348 39.7372678,10.5844885 35.8418965,6.68904073 C31.9466016,2.79374589 26.7674789,0.648451214 21.2586637,0.648451214 L21.2586637,0.648451214 Z" id="Fill-1"></path>
                    <path d="M17.8944551,22.1874912 C17.3899003,22.1874912 16.9793903,21.7769048 16.9793903,21.2723499 C16.9793903,20.7677951 17.3899003,20.3572852 17.8944551,20.3572852 C18.3990864,20.3572852 18.8095963,20.7677951 18.8095963,21.2723499 C18.8095963,21.7769048 18.3990864,22.1874912 17.8944551,22.1874912 L17.8944551,22.1874912 Z M17.8944551,20.4208993 C17.4249186,20.4208993 17.0430045,20.8028135 17.0430045,21.2723499 C17.0430045,21.74181 17.4249186,22.1238006 17.8944551,22.1238006 C18.3639916,22.1238006 18.7459822,21.74181 18.7459822,21.2723499 C18.7459822,20.8028135 18.3639916,20.4208993 17.8944551,20.4208993 L17.8944551,20.4208993 Z" id="Fill-2"></path>
                    <path d="M17.8944551,22.429179 C17.2565553,22.429179 16.7377025,21.9101733 16.7377025,21.2723499 C16.7377025,20.6344501 17.2565553,20.1155974 17.8944551,20.1155974 C18.5323549,20.1155974 19.0512077,20.6344501 19.0512077,21.2723499 C19.0512077,21.9101733 18.5323549,22.429179 17.8944551,22.429179 L17.8944551,22.429179 Z M17.8944551,20.2335741 C17.3216986,20.2335741 16.8556792,20.6995934 16.8556792,21.2723499 C16.8556792,21.8451065 17.3216986,22.3112023 17.8944551,22.3112023 C18.4672116,22.3112023 18.933231,21.8451065 18.933231,21.2723499 C18.933231,20.6995934 18.4672116,20.2335741 17.8944551,20.2335741 L17.8944551,20.2335741 Z" id="Fill-3"></path>
                    <path d="M33.5713615,9.24522762 C30.2824653,5.95633138 25.9097586,4.14516379 21.2586637,4.14516379 C16.6075688,4.14516379 12.2348622,5.95633138 8.94604243,9.24522762 C5.65722265,12.5340474 3.8459786,16.906754 3.8459786,21.5578489 C3.8459786,26.2089438 5.65722265,30.5817269 8.94604243,33.8704702 C12.2348622,37.1593665 16.6075688,38.9705341 21.2586637,38.9705341 C25.9097586,38.9705341 30.2824653,37.1593665 33.5713615,33.8704702 C36.8601813,30.5817269 38.6714253,26.2089438 38.6714253,21.5578489 C38.6714253,16.906754 36.8601813,12.5340474 33.5713615,9.24522762 L33.5713615,9.24522762 Z M33.5442949,12.097159 C34.0374573,12.097159 34.4451382,12.4584292 34.5201448,12.9304123 L32.5685215,12.9304123 C32.643528,12.4584292 33.051209,12.097159 33.5442949,12.097159 L33.5442949,12.097159 Z M28.2812199,15.3771095 C29.0436719,14.9369334 30.0186807,15.1981183 30.4588568,15.9606468 C30.8991094,16.7230988 30.637848,17.6981076 29.875396,18.1382838 C29.1128675,18.5785363 28.1379352,18.317275 27.6976826,17.5548229 C27.2575065,16.7922945 27.5187679,15.8173621 28.2812199,15.3771095 L28.2812199,15.3771095 Z M24.3927299,12.6556941 C24.8329825,11.8931657 25.8079149,11.6319807 26.5704433,12.0721568 C27.3328953,12.5124094 27.5941567,13.4873418 27.1539041,14.2498703 C26.713728,15.0123223 25.7387192,15.2735837 24.9762672,14.8333311 C24.2137387,14.393155 23.9525538,13.4181461 24.3927299,12.6556941 L24.3927299,12.6556941 Z M21.2586637,10.6488672 C22.1390924,10.6488672 22.8528399,11.3626147 22.8528399,12.2430433 C22.8528399,13.123472 22.1390924,13.8372195 21.2586637,13.8372195 C20.378235,13.8372195 19.6644876,13.123472 19.6644876,12.2430433 C19.6644876,11.3626147 20.378235,10.6488672 21.2586637,10.6488672 L21.2586637,10.6488672 Z M15.9469606,12.0721568 C16.7094126,11.6319807 17.6844214,11.8931657 18.1245976,12.6556941 C18.5648501,13.4181461 18.3035887,14.393155 17.5411367,14.8333311 C16.7786083,15.2735837 15.8036759,15.0123223 15.3634233,14.2498703 C14.9232472,13.4873418 15.1844321,12.5124094 15.9469606,12.0721568 L15.9469606,12.0721568 Z M12.0584706,15.9606468 C12.4987232,15.1981183 13.4736556,14.9369334 14.236184,15.3771095 C14.9986361,15.8173621 15.2598974,16.7922945 14.8196449,17.5548229 C14.3794688,18.317275 13.4044599,18.5785363 12.6420079,18.1382838 C11.8794794,17.6981076 11.6182945,16.7230988 12.0584706,15.9606468 L12.0584706,15.9606468 Z M8.97303256,12.097159 C9.46619496,12.097159 9.87387588,12.4584292 9.94888244,12.9304123 L7.99718268,12.9304123 C8.07218924,12.4584292 8.47987016,12.097159 8.97303256,12.097159 L8.97303256,12.097159 Z M9.94888244,13.2425956 C9.87387588,13.7145788 9.46619496,14.0757725 8.97303256,14.0757725 C8.47987016,14.0757725 8.07218924,13.7145788 7.99718268,13.2425956 L9.94888244,13.2425956 L9.94888244,13.2425956 Z M8.27350654,31.2998325 C7.92477573,30.9511017 7.89189824,30.4074762 8.17265674,30.0206687 L9.55267041,31.4006059 C9.16586288,31.6813644 8.62216089,31.6484869 8.27350654,31.2998325 L8.27350654,31.2998325 Z M9.77340838,31.1799444 L8.3933947,29.7999307 C8.78020224,29.5191722 9.32390423,29.5520497 9.67255858,29.900704 C10.0212894,30.2494348 10.0541669,30.7931368 9.77340838,31.1799444 L9.77340838,31.1799444 Z M10.635181,21.2723499 C10.635181,20.3919213 11.3489284,19.6781738 12.2293571,19.6781738 C13.1097858,19.6781738 13.8235333,20.3919213 13.8235333,21.2723499 C13.8235333,22.1527786 13.1097858,22.8665261 12.2293571,22.8665261 C11.3489284,22.8665261 10.635181,22.1527786 10.635181,21.2723499 L10.635181,21.2723499 Z M14.236184,27.1675904 C13.4736556,27.6078429 12.4987232,27.3465815 12.0584706,26.5841295 C11.6182945,25.8216011 11.8794794,24.8466687 12.6420079,24.4064161 C13.4044599,23.96624 14.3794688,24.2274249 14.8196449,24.9899534 C15.2598974,25.7524054 14.9986361,26.7274142 14.236184,27.1675904 L14.236184,27.1675904 Z M18.1245976,29.8890822 C17.6844214,30.6515342 16.7094126,30.9127956 15.9469606,30.472543 C15.1844321,30.0323669 14.9232472,29.0573581 15.3634233,28.2949061 C15.8036759,27.5324541 16.7786083,27.2711927 17.5411367,27.7113688 C18.3035887,28.1516214 18.5648501,29.1265538 18.1245976,29.8890822 L18.1245976,29.8890822 Z M21.2586637,31.8958327 C20.378235,31.8958327 19.6644876,31.1820852 19.6644876,30.3016565 C19.6644876,29.4212278 20.378235,28.7074804 21.2586637,28.7074804 C22.1390924,28.7074804 22.8528399,29.4212278 22.8528399,30.3016565 C22.8528399,31.1820852 22.1390924,31.8958327 21.2586637,31.8958327 L21.2586637,31.8958327 Z M26.5704433,30.472543 C25.8079149,30.9127956 24.8329825,30.6515342 24.3927299,29.8890822 C23.9525538,29.1265538 24.2137387,28.1516214 24.9762672,27.7113688 C25.7387192,27.2711927 26.713728,27.5324541 27.1539041,28.2949061 C27.5941567,29.0573581 27.3328953,30.0323669 26.5704433,30.472543 L26.5704433,30.472543 Z M30.4588568,26.5841295 C30.0186807,27.3465815 29.0436719,27.6078429 28.2812199,27.1675904 C27.5187679,26.7274142 27.2575065,25.7524054 27.6976826,24.9899534 C28.1379352,24.2274249 29.1128675,23.96624 29.875396,24.4064161 C30.637848,24.8466687 30.8991094,25.8216011 30.4588568,26.5841295 L30.4588568,26.5841295 Z M28.1970382,21.2723499 C28.1970382,21.4600575 28.1893158,21.6460065 28.1746356,21.8298911 L31.9316921,22.0926052 C32.1430255,22.1074383 32.3191877,22.2402481 32.3916711,22.4391951 C32.4640781,22.6382186 32.4143796,22.8532222 32.2620727,23.0003298 L31.4168152,23.8167621 C31.2330071,23.994377 30.9908606,24.0922449 30.7351042,24.0922449 C30.577751,24.0922449 30.4207036,24.053633 30.281089,23.9806908 L28.6687155,23.3122837 C28.4270277,23.1865847 28.145734,23.1858201 27.9132213,23.3004325 L27.8928067,23.3096841 C27.0223942,26.1473941 24.3815669,28.2107244 21.2586637,28.2107244 C17.4267536,28.2107244 14.3203657,25.1043365 14.3203657,21.2723499 C14.3203657,17.4404399 17.4267536,14.3340519 21.2586637,14.3340519 C24.3156589,14.3340519 26.9106872,16.3110597 27.8353858,19.0561775 L27.911004,19.0903548 C28.1481043,19.2070317 28.4329151,19.2024441 28.6625988,19.082403 L30.2872057,18.408338 C30.4207036,18.3382248 30.577751,18.2996129 30.7351042,18.2996129 C30.9908606,18.2996129 31.2330071,18.3974043 31.4168152,18.5750192 L32.2620727,19.3915279 C32.4143796,19.5386356 32.4640781,19.7536391 32.3916711,19.9525862 C32.3191877,20.1516097 32.1430255,20.2844195 31.9316921,20.2991761 L28.1611788,20.5628078 C28.1848812,20.7961615 28.1970382,21.032803 28.1970382,21.2723499 L28.1970382,21.2723499 Z M33.5442949,31.5896132 C33.051209,31.5896132 32.643528,31.2283431 32.5685215,30.7563599 L34.5201448,30.7563599 C34.4451382,31.2283431 34.0374573,31.5896132 33.5442949,31.5896132 L33.5442949,31.5896132 Z M32.5685215,30.4441766 C32.643528,29.9721935 33.051209,29.6109998 33.5442949,29.6109998 C34.0374573,29.6109998 34.4451382,29.9721935 34.5201448,30.4441766 L32.5685215,30.4441766 L32.5685215,30.4441766 Z M33.5442949,14.0757725 C33.051209,14.0757725 32.643528,13.7145788 32.5685215,13.2425956 L34.5201448,13.2425956 C34.4451382,13.7145788 34.0374573,14.0757725 33.5442949,14.0757725 L33.5442949,14.0757725 Z" id="Fill-4"></path>
                    <path d="M21.2586637,22.5607654 C20.548204,22.5607654 19.9701718,21.9828096 19.9701718,21.2723499 C19.9701718,20.5618902 20.548204,19.983858 21.2586637,19.983858 C21.9691234,19.983858 22.5471556,20.5618902 22.5471556,21.2723499 C22.5471556,21.9828096 21.9691234,22.5607654 21.2586637,22.5607654 L21.2586637,22.5607654 Z M21.2586637,20.0834845 C20.6031783,20.0834845 20.0697983,20.616788 20.0697983,21.2723499 C20.0697983,21.9278354 20.6031783,22.4612154 21.2586637,22.4612154 C21.9141492,22.4612154 22.4475292,21.9278354 22.4475292,21.2723499 C22.4475292,20.616788 21.9141492,20.0834845 21.2586637,20.0834845 L21.2586637,20.0834845 Z" id="Fill-5"></path>
                    <path d="M21.2586637,18.8151014 C19.9036522,18.8151014 18.8013387,19.9174149 18.8013387,21.2723499 C18.8013387,22.6273614 19.9036522,23.7295985 21.2586637,23.7295985 C22.6136752,23.7295985 23.7159888,22.6273614 23.7159888,21.2723499 C23.7159888,19.9174149 22.6136752,18.8151014 21.2586637,18.8151014 L21.2586637,18.8151014 Z M21.2586637,22.7993948 C20.4166176,22.7993948 19.7316188,22.1143961 19.7316188,21.2723499 C19.7316188,20.4303038 20.4166176,19.7453051 21.2586637,19.7453051 C22.1007099,19.7453051 22.7857086,20.4303038 22.7857086,21.2723499 C22.7857086,22.1143961 22.1007099,22.7993948 21.2586637,22.7993948 L21.2586637,22.7993948 Z" id="Fill-6"></path>
                    <path d="M21.2586637,19.8632817 C20.4817609,19.8632817 19.8495955,20.4954471 19.8495955,21.2723499 C19.8495955,22.0492528 20.4817609,22.6813417 21.2586637,22.6813417 C22.0355665,22.6813417 22.6677319,22.0492528 22.6677319,21.2723499 C22.6677319,20.4954471 22.0355665,19.8632817 21.2586637,19.8632817" id="Fill-7"></path>
                    <path d="M18.9544102,17.6411455 C18.8964541,17.2763582 18.5813653,16.9972054 18.2002158,16.9972054 C17.8191427,16.9972054 17.504054,17.2763582 17.4460978,17.6411455 L18.9544102,17.6411455" id="Fill-8"></path>
                    <path d="M17.4460978,17.882451 C17.504054,18.2472382 17.8191427,18.5263911 18.2002158,18.5263911 C18.5813653,18.5263911 18.8964541,18.2472382 18.9544102,17.882451 L17.4460978,17.882451" id="Fill-9"></path>
                    <path d="M25.1651981,18.2097732 C25.3821131,17.9108174 25.3567286,17.4906736 25.0872096,17.2211546 C24.8177671,16.9516356 24.3975468,16.9262511 24.098591,17.1432426 L25.1651981,18.2097732" id="Fill-10"></path>
                    <path d="M23.9280104,17.3138233 C23.7110954,17.6127791 23.7364798,18.0329229 24.0059224,18.3024419 C24.2754414,18.5719608 24.6956616,18.5973453 24.9946174,18.3803539 L23.9280104,17.3138233" id="Fill-11"></path>
                    <path d="M18.9544102,24.6623254 C18.8964541,24.2975381 18.5813653,24.0183088 18.2002158,24.0183088 C17.8191427,24.0183088 17.504054,24.2975381 17.4460978,24.6623254 L18.9544102,24.6623254" id="Fill-12"></path>
                    <path d="M17.4460978,24.9035544 C17.504054,25.2683417 17.8191427,25.547571 18.2002158,25.547571 C18.5813653,25.547571 18.8964541,25.2683417 18.9544102,24.9035544 L17.4460978,24.9035544" id="Fill-13"></path>
                    <path d="M24.9946174,24.164346 C24.6956616,23.947431 24.2754414,23.9728155 24.0059224,24.242258 C23.7364798,24.511777 23.7110954,24.9319973 23.9280104,25.2309531 L24.9946174,24.164346" id="Fill-14"></path>
                    <path d="M24.098591,25.4015337 C24.3975468,25.6184487 24.8177671,25.5930643 25.0872096,25.3236217 C25.3567286,25.0541027 25.3821131,24.6338825 25.1651981,24.3349267 L24.098591,25.4015337" id="Fill-15"></path>
                    <path id="Fill-16" d="M15.9136243,19.5609617 C16.0004821,19.4413029 15.990313,19.2730925 15.882429,19.1652084 C15.7746214,19.0573244 15.6064109,19.0471553 15.4867521,19.1340131 L15.9136243,19.5609617"></path>
                    <path id="Fill-17" d="M15.418474,19.2022912 C15.3316163,19.32195 15.3417853,19.4901604 15.4496694,19.5980445 C15.5575534,19.7059285 15.7256874,19.7160976 15.8453462,19.6292399 L15.418474,19.2022912"></path>
                    <path id="Fill-18" d="M15.3641879,23.2328425 C15.3874315,23.3788033 15.5135129,23.4905868 15.6660492,23.4905868 C15.8185855,23.4905868 15.9447433,23.3788033 15.9679104,23.2328425 L15.3641879,23.2328425"></path>
                    <path id="Fill-19" d="M15.9679104,23.1362744 C15.9447433,22.9902372 15.8185855,22.8785302 15.6660492,22.8785302 C15.5135129,22.8785302 15.3874315,22.9902372 15.3641879,23.1362744 L15.9679104,23.1362744"></path>
                    <path id="Fill-20" d="M15.9718863,20.0585124 L15.3602885,20.0585124 C15.3180065,20.0585124 15.2837527,20.0051207 15.2837527,19.9390679 C15.2837527,19.8730152 15.3180065,19.8196235 15.3602885,19.8196235 L15.9718863,19.8196235 C16.0141683,19.8196235 16.0484221,19.8730152 16.0484221,19.9390679 C16.0484221,20.0051207 16.0141683,20.0585124 15.9718863,20.0585124"></path>
                    <path id="Fill-21" d="M15.9718863,20.3643495 L15.3602885,20.3643495 C15.3180065,20.3643495 15.2837527,20.3109579 15.2837527,20.2449051 C15.2837527,20.1788523 15.3180065,20.1254606 15.3602885,20.1254606 L15.9718863,20.1254606 C16.0141683,20.1254606 16.0484221,20.1788523 16.0484221,20.2449051 C16.0484221,20.3109579 16.0141683,20.3643495 15.9718863,20.3643495"></path>
                    <path id="Fill-22" d="M15.9718863,20.6701867 L15.3602885,20.6701867 C15.3180065,20.6701867 15.2837527,20.616795 15.2837527,20.5507422 C15.2837527,20.4846895 15.3180065,20.4312978 15.3602885,20.4312978 L15.9718863,20.4312978 C16.0141683,20.4312978 16.0484221,20.4846895 16.0484221,20.5507422 C16.0484221,20.616795 16.0141683,20.6701867 15.9718863,20.6701867"></path>
                    <path id="Fill-23" d="M15.9718863,20.9760238 L15.3602885,20.9760238 C15.3180065,20.9760238 15.2837527,20.9226322 15.2837527,20.8565794 C15.2837527,20.7905266 15.3180065,20.7371349 15.3602885,20.7371349 L15.9718863,20.7371349 C16.0141683,20.7371349 16.0484221,20.7905266 16.0484221,20.8565794 C16.0484221,20.9226322 16.0141683,20.9760238 15.9718863,20.9760238"></path>
                    <path id="Fill-24" d="M15.9718863,21.281861 L15.3602885,21.281861 C15.3180065,21.281861 15.2837527,21.2284693 15.2837527,21.1624165 C15.2837527,21.0963637 15.3180065,21.0429721 15.3602885,21.0429721 L15.9718863,21.0429721 C16.0141683,21.0429721 16.0484221,21.0963637 16.0484221,21.1624165 C16.0484221,21.2284693 16.0141683,21.281861 15.9718863,21.281861"></path>
                    <path id="Fill-25" d="M15.9718863,21.5876981 L15.3602885,21.5876981 C15.3180065,21.5876981 15.2837527,21.5343065 15.2837527,21.4682537 C15.2837527,21.4022009 15.3180065,21.3488092 15.3602885,21.3488092 L15.9718863,21.3488092 C16.0141683,21.3488092 16.0484221,21.4022009 16.0484221,21.4682537 C16.0484221,21.5343065 16.0141683,21.5876981 15.9718863,21.5876981"></path>
                    <path id="Fill-26" d="M15.9718863,21.8935353 L15.3602885,21.8935353 C15.3180065,21.8935353 15.2837527,21.8401436 15.2837527,21.7740908 C15.2837527,21.708038 15.3180065,21.6546464 15.3602885,21.6546464 L15.9718863,21.6546464 C16.0141683,21.6546464 16.0484221,21.708038 16.0484221,21.7740908 C16.0484221,21.8401436 16.0141683,21.8935353 15.9718863,21.8935353"></path>
                    <path id="Fill-27" d="M15.9718863,22.1993724 L15.3602885,22.1993724 C15.3180065,22.1993724 15.2837527,22.1459807 15.2837527,22.079928 C15.2837527,22.0138752 15.3180065,21.9604835 15.3602885,21.9604835 L15.9718863,21.9604835 C16.0141683,21.9604835 16.0484221,22.0138752 16.0484221,22.079928 C16.0484221,22.1459807 16.0141683,22.1993724 15.9718863,22.1993724"></path>
                    <path id="Fill-28" d="M15.9718863,22.5052096 L15.3602885,22.5052096 C15.3180065,22.5052096 15.2837527,22.4518179 15.2837527,22.3857651 C15.2837527,22.3197123 15.3180065,22.2663207 15.3602885,22.2663207 L15.9718863,22.2663207 C16.0141683,22.2663207 16.0484221,22.3197123 16.0484221,22.3857651 C16.0484221,22.4518179 16.0141683,22.5052096 15.9718863,22.5052096"></path>
                    <path id="Fill-29" d="M15.9718863,22.8110467 L15.3602885,22.8110467 C15.3180065,22.8110467 15.2837527,22.757655 15.2837527,22.6916023 C15.2837527,22.6255495 15.3180065,22.5721578 15.3602885,22.5721578 L15.9718863,22.5721578 C16.0141683,22.5721578 16.0484221,22.6255495 16.0484221,22.6916023 C16.0484221,22.757655 16.0141683,22.8110467 15.9718863,22.8110467"></path>
                </g>
            </g>
        </g>
    </g>
</svg>