<?xml version="1.0" encoding="UTF-8" standalone="no"?>
<svg width="122px" height="122px" viewBox="0 0 122 122" version="1.1" xmlns="http://www.w3.org/2000/svg" xmlns:xlink="http://www.w3.org/1999/xlink" xmlns:sketch="http://www.bohemiancoding.com/sketch/ns">
    <!-- Generator: Sketch 3.3.2 (12043) - http://www.bohemiancoding.com/sketch -->
    <title>Artboard</title>
    <desc>Created with Sketch.</desc>
    <defs></defs>
    <g id="Page-1" stroke="none" stroke-width="1" fill="none" fill-rule="evenodd" sketch:type="MSPage">
        <g id="Artboard" sketch:type="MSArtboardGroup">
            <g id="Rectangle-1-Copy-+-Imported-Layers-2-Copy-Copy" sketch:type="MSLayerGroup">
                <rect id="Rectangle-1-Copy" fill="#FFDD2E" sketch:type="MSShapeGroup" x="0" y="0" width="122" height="122" rx="138.24"></rect>
                <g id="Imported-Layers-2" transform="translate(28.617284, 28.617284)" fill="#454545" sketch:type="MSShapeGroup">
                    <path d="M32.0192219,64.0241639 C23.4760104,64.0241639 15.443883,60.6972806 9.40288761,54.65617 C3.36177704,48.6150594 0.0348937532,40.5831624 0.0348937532,32.0398357 C0.0348937532,23.4965091 3.36177704,15.4644968 9.40288761,9.42350142 C15.443883,3.38239084 23.4760104,0.0553923937 32.0192219,0.0553923937 C40.5626637,0.0553923937 48.5945608,3.38239084 54.6356714,9.42350142 C60.6766668,15.4644968 64.0035501,23.4965091 64.0035501,32.0398357 C64.0035501,40.5831624 60.6766668,48.6150594 54.6356714,54.65617 C48.5945608,60.6972806 40.5626637,64.0241639 32.0192219,64.0241639 L32.0192219,64.0241639 Z M32.0192219,0.976679606 C23.7219941,0.976679606 15.9214553,4.20786418 10.0543528,10.0748515 C4.18725038,15.9420691 0.956180966,23.7426079 0.956180966,32.0398357 C0.956180966,40.3370635 4.18725038,48.1377175 10.0543528,54.0047048 C15.9214553,59.8716921 23.7219941,63.1028767 32.0192219,63.1028767 C40.3164497,63.1028767 48.1171037,59.8716921 53.984091,54.0047048 C59.8511934,48.1377175 63.0822629,40.3370635 63.0822629,32.0398357 C63.0822629,23.7426079 59.8511934,15.9420691 53.984091,10.0748515 C48.1171037,4.20786418 40.3164497,0.976679606 32.0192219,0.976679606 L32.0192219,0.976679606 Z" id="Fill-1"></path>
                    <path d="M26.9521422,33.4181965 C26.1921955,33.4181965 25.5738966,32.7997825 25.5738966,32.0398357 C25.5738966,31.2798889 26.1921955,30.66159 26.9521422,30.66159 C27.7122042,30.66159 28.3305031,31.2798889 28.3305031,32.0398357 C28.3305031,32.7997825 27.7122042,33.4181965 26.9521422,33.4181965 L26.9521422,33.4181965 Z M26.9521422,30.7574039 C26.2449391,30.7574039 25.6697104,31.3326326 25.6697104,32.0398357 C25.6697104,32.7469237 26.2449391,33.3222675 26.9521422,33.3222675 C27.6593453,33.3222675 28.2346892,32.7469237 28.2346892,32.0398357 C28.2346892,31.3326326 27.6593453,30.7574039 26.9521422,30.7574039 L26.9521422,30.7574039 Z" id="Fill-2"></path>
                    <path d="M26.9521422,33.7822202 C25.9913548,33.7822202 25.209873,33.000508 25.209873,32.0398357 C25.209873,31.0790483 25.9913548,30.2975664 26.9521422,30.2975664 C27.9129296,30.2975664 28.6944115,31.0790483 28.6944115,32.0398357 C28.6944115,33.000508 27.9129296,33.7822202 26.9521422,33.7822202 L26.9521422,33.7822202 Z M26.9521422,30.4752597 C26.0894719,30.4752597 25.3875662,31.1771654 25.3875662,32.0398357 C25.3875662,32.902506 26.0894719,33.6045269 26.9521422,33.6045269 C27.8148126,33.6045269 28.5167183,32.902506 28.5167183,32.0398357 C28.5167183,31.1771654 27.8148126,30.4752597 26.9521422,30.4752597 L26.9521422,30.4752597 Z" id="Fill-3"></path>
                    <path d="M50.5642729,13.9249107 C45.6106267,8.97126456 39.0245747,6.24333312 32.0192219,6.24333312 C25.0138691,6.24333312 18.4278171,8.97126456 13.4742861,13.9249107 C8.52075511,18.8784418 5.79270851,25.4644937 5.79270851,32.4698465 C5.79270851,39.4751993 8.52075511,46.0613664 13.4742861,51.0147823 C18.4278171,55.9684285 25.0138691,58.6963599 32.0192219,58.6963599 C39.0245747,58.6963599 45.6106267,55.9684285 50.5642729,51.0147823 C55.5178039,46.0613664 58.2458505,39.4751993 58.2458505,32.4698465 C58.2458505,25.4644937 55.5178039,18.8784418 50.5642729,13.9249107 L50.5642729,13.9249107 Z M50.5235059,18.2204124 C51.2662937,18.2204124 51.8803316,18.7645476 51.9933045,19.4754359 L49.0538225,19.4754359 C49.1667953,18.7645476 49.7808332,18.2204124 50.5235059,18.2204124 L50.5235059,18.2204124 Z M42.5964052,23.1605847 C43.7447898,22.4976034 45.2133216,22.8909931 45.8763029,24.0394927 C46.5393994,25.1878772 46.1458946,26.6564091 44.99751,27.3193904 C43.8490104,27.9824868 42.3805937,27.588982 41.7174972,26.4405975 C41.0545159,25.2920978 41.4480207,23.8236812 42.5964052,23.1605847 L42.5964052,23.1605847 Z M36.7396673,19.0616628 C37.4027637,17.9131631 38.8711804,17.5197734 40.0196801,18.1827548 C41.1680646,18.8458512 41.5615694,20.3142679 40.8984729,21.4627675 C40.2354916,22.6111521 38.7669598,23.0046569 37.6185753,22.3415604 C36.4700756,21.6785791 36.076686,20.2100473 36.7396673,19.0616628 L36.7396673,19.0616628 Z M32.0192219,16.0390346 C33.3452997,16.0390346 34.4203267,17.1140616 34.4203267,18.4401394 C34.4203267,19.7662171 33.3452997,20.8412442 32.0192219,20.8412442 C30.6931441,20.8412442 29.6181171,19.7662171 29.6181171,18.4401394 C29.6181171,17.1140616 30.6931441,16.0390346 32.0192219,16.0390346 L32.0192219,16.0390346 Z M24.0188789,18.1827548 C25.1672634,17.5197734 26.6357952,17.9131631 27.2987766,19.0616628 C27.961873,20.2100473 27.5683682,21.6785791 26.4199837,22.3415604 C25.271484,23.0046569 23.8030674,22.6111521 23.1399709,21.4627675 C22.4769896,20.3142679 22.8703792,18.8458512 24.0188789,18.1827548 L24.0188789,18.1827548 Z M18.1621409,24.0394927 C18.8252374,22.8909931 20.2936541,22.4976034 21.4421537,23.1605847 C22.5905383,23.8236812 22.9840431,25.2920978 22.3209466,26.4405975 C21.6579653,27.588982 20.1894335,27.9824868 19.041049,27.3193904 C17.8925493,26.6564091 17.4991596,25.1878772 18.1621409,24.0394927 L18.1621409,24.0394927 Z M13.5149379,18.2204124 C14.2577257,18.2204124 14.8717637,18.7645476 14.9847365,19.4754359 L12.0451393,19.4754359 C12.1581122,18.7645476 12.7721501,18.2204124 13.5149379,18.2204124 L13.5149379,18.2204124 Z M14.9847365,19.9456378 C14.8717637,20.6565261 14.2577257,21.2005462 13.5149379,21.2005462 C12.7721501,21.2005462 12.1581122,20.6565261 12.0451393,19.9456378 L14.9847365,19.9456378 L14.9847365,19.9456378 Z M12.4613308,47.1429576 C11.936082,46.6177088 11.8865628,45.7989148 12.3094336,45.2163158 L14.3879727,47.2947397 C13.8053737,47.7176105 12.9864645,47.6680913 12.4613308,47.1429576 L12.4613308,47.1429576 Z M14.7204422,46.9623853 L12.6419031,44.8838462 C13.2245021,44.4609754 14.0434113,44.5104946 14.568545,45.0356283 C15.0937939,45.5608772 15.1433131,46.3797863 14.7204422,46.9623853 L14.7204422,46.9623853 Z M16.0184208,32.0398357 C16.0184208,30.7137579 17.0934478,29.6387309 18.4195256,29.6387309 C19.7456033,29.6387309 20.8206304,30.7137579 20.8206304,32.0398357 C20.8206304,33.3659135 19.7456033,34.4409405 18.4195256,34.4409405 C17.0934478,34.4409405 16.0184208,33.3659135 16.0184208,32.0398357 L16.0184208,32.0398357 Z M21.4421537,40.9190867 C20.2936541,41.5821832 18.8252374,41.1886784 18.1621409,40.0402939 C17.4991596,38.8917942 17.8925493,37.4233775 19.041049,36.7602811 C20.1894335,36.0972998 21.6579653,36.4906894 22.3209466,37.6391891 C22.9840431,38.7875736 22.5905383,40.2561054 21.4421537,40.9190867 L21.4421537,40.9190867 Z M27.2987766,45.0181238 C26.6357952,46.1665084 25.1672634,46.5600132 24.0188789,45.8969167 C22.8703792,45.2339354 22.4769896,43.7654036 23.1399709,42.617019 C23.8030674,41.4686345 25.271484,41.0751297 26.4199837,41.738111 C27.5683682,42.4012075 27.961873,43.8696242 27.2987766,45.0181238 L27.2987766,45.0181238 Z M32.0192219,48.0406369 C30.6931441,48.0406369 29.6181171,46.9656098 29.6181171,45.6395321 C29.6181171,44.3134543 30.6931441,43.2384273 32.0192219,43.2384273 C33.3452997,43.2384273 34.4203267,44.3134543 34.4203267,45.6395321 C34.4203267,46.9656098 33.3452997,48.0406369 32.0192219,48.0406369 L32.0192219,48.0406369 Z M40.0196801,45.8969167 C38.8711804,46.5600132 37.4027637,46.1665084 36.7396673,45.0181238 C36.076686,43.8696242 36.4700756,42.4012075 37.6185753,41.738111 C38.7669598,41.0751297 40.2354916,41.4686345 40.8984729,42.617019 C41.5615694,43.7654036 41.1680646,45.2339354 40.0196801,45.8969167 L40.0196801,45.8969167 Z M45.8763029,40.0402939 C45.2133216,41.1886784 43.7447898,41.5821832 42.5964052,40.9190867 C41.4480207,40.2561054 41.0545159,38.7875736 41.7174972,37.6391891 C42.3805937,36.4906894 43.8490104,36.0972998 44.99751,36.7602811 C46.1458946,37.4233775 46.5393994,38.8917942 45.8763029,40.0402939 L45.8763029,40.0402939 Z M42.4696131,32.0398357 C42.4696131,32.3225557 42.4579818,32.602627 42.4358709,32.879589 L48.0946473,33.2752819 C48.4129521,33.2976231 48.6782828,33.4976576 48.7874553,33.7973062 C48.8965127,34.0970701 48.8216581,34.4209025 48.5922576,34.6424721 L47.3191538,35.8721602 C47.042307,36.139679 46.6775924,36.2870849 46.2923792,36.2870849 C46.0553781,36.2870849 45.8188376,36.2289287 45.6085538,36.1190652 L43.1800407,35.1123286 C42.8160171,34.923004 42.3923401,34.9218524 42.0421358,35.0944786 L42.0113879,35.1084131 C40.7003962,39.3824948 36.7228538,42.4902269 32.0192219,42.4902269 C26.247703,42.4902269 21.5689459,37.8114698 21.5689459,32.0398357 C21.5689459,26.2683168 26.247703,21.5895597 32.0192219,21.5895597 C36.6235851,21.5895597 40.5321461,24.5672751 41.924902,28.701897 L42.0387962,28.7533739 C42.3959101,28.9291094 42.8248845,28.9221998 43.1708278,28.7413972 L45.6177667,27.7261387 C45.8188376,27.6205361 46.0553781,27.5623799 46.2923792,27.5623799 C46.6775924,27.5623799 47.042307,27.7096707 47.3191538,27.9771894 L48.5922576,29.2069927 C48.8216581,29.4285623 48.8965127,29.7523947 48.7874553,30.0520434 C48.6782828,30.3518072 48.4129521,30.5518417 48.0946473,30.5740678 L42.4156026,30.9711425 C42.4513025,31.3226136 42.4696131,31.6790366 42.4696131,32.0398357 L42.4696131,32.0398357 Z M50.5235059,47.5794175 C49.7808332,47.5794175 49.1667953,47.0352822 49.0538225,46.3243939 L51.9933045,46.3243939 C51.8803316,47.0352822 51.2662937,47.5794175 50.5235059,47.5794175 L50.5235059,47.5794175 Z M49.0538225,45.854192 C49.1667953,45.1433037 49.7808332,44.5992836 50.5235059,44.5992836 C51.2662937,44.5992836 51.8803316,45.1433037 51.9933045,45.854192 L49.0538225,45.854192 L49.0538225,45.854192 Z M50.5235059,21.2005462 C49.7808332,21.2005462 49.1667953,20.6565261 49.0538225,19.9456378 L51.9933045,19.9456378 C51.8803316,20.6565261 51.2662937,21.2005462 50.5235059,21.2005462 L50.5235059,21.2005462 Z" id="Fill-4"></path>
                    <path d="M32.0192219,33.9804121 C30.9491468,33.9804121 30.0785304,33.1099108 30.0785304,32.0398357 C30.0785304,30.9697606 30.9491468,30.0991442 32.0192219,30.0991442 C33.089297,30.0991442 33.9599134,30.9697606 33.9599134,32.0398357 C33.9599134,33.1099108 33.089297,33.9804121 32.0192219,33.9804121 L32.0192219,33.9804121 Z M32.0192219,30.2491989 C31.0319475,30.2491989 30.2285851,31.0524461 30.2285851,32.0398357 C30.2285851,33.0271101 31.0319475,33.8304726 32.0192219,33.8304726 C33.0064963,33.8304726 33.8098588,33.0271101 33.8098588,32.0398357 C33.8098588,31.0524461 33.0064963,30.2491989 32.0192219,30.2491989 L32.0192219,30.2491989 Z" id="Fill-5"></path>
                    <path d="M32.0192219,28.3387947 C29.9783404,28.3387947 28.3180657,29.9990694 28.3180657,32.0398357 C28.3180657,34.0807172 29.9783404,35.7408768 32.0192219,35.7408768 C34.0601034,35.7408768 35.7203781,34.0807172 35.7203781,32.0398357 C35.7203781,29.9990694 34.0601034,28.3387947 32.0192219,28.3387947 L32.0192219,28.3387947 Z M32.0192219,34.3398292 C30.7509549,34.3398292 29.7192284,33.3081027 29.7192284,32.0398357 C29.7192284,30.7715687 30.7509549,29.7398422 32.0192219,29.7398422 C33.2874889,29.7398422 34.3192154,30.7715687 34.3192154,32.0398357 C34.3192154,33.3081027 33.2874889,34.3398292 32.0192219,34.3398292 L32.0192219,34.3398292 Z" id="Fill-6"></path>
                    <path d="M32.0192219,29.9175355 C30.849072,29.9175355 29.8969217,30.8696858 29.8969217,32.0398357 C29.8969217,33.2099856 30.849072,34.1620208 32.0192219,34.1620208 C33.1893718,34.1620208 34.1415222,33.2099856 34.1415222,32.0398357 C34.1415222,30.8696858 33.1893718,29.9175355 32.0192219,29.9175355" id="Fill-7"></path>
                    <path d="M28.5486178,26.5706142 C28.4613259,26.0211815 27.9867478,25.6007291 27.4126707,25.6007291 C26.8387088,25.6007291 26.3641307,26.0211815 26.2768387,26.5706142 L28.5486178,26.5706142" id="Fill-8"></path>
                    <path d="M26.2768387,26.934062 C26.3641307,27.4834946 26.8387088,27.9039471 27.4126707,27.9039471 C27.9867478,27.9039471 28.4613259,27.4834946 28.5486178,26.934062 L26.2768387,26.934062" id="Fill-9"></path>
                    <path d="M37.9031379,27.4270658 C38.2298493,26.9767867 38.1916159,26.3439775 37.7856737,25.9380353 C37.3798467,25.5320932 36.7469224,25.4938597 36.2966433,25.8206864 L37.9031379,27.4270658" id="Fill-10"></path>
                    <path d="M36.0397193,26.0776104 C35.7130078,26.5278895 35.7512413,27.1606986 36.1570683,27.5666408 C36.5630104,27.972583 37.1959348,28.0108164 37.6462139,27.6839898 L36.0397193,26.0776104" id="Fill-11"></path>
                    <path d="M28.5486178,37.1457246 C28.4613259,36.5962919 27.9867478,36.1757243 27.4126707,36.1757243 C26.8387088,36.1757243 26.3641307,36.5962919 26.2768387,37.1457246 L28.5486178,37.1457246" id="Fill-12"></path>
                    <path d="M26.2768387,37.5090573 C26.3641307,38.0584899 26.8387088,38.4790575 27.4126707,38.4790575 C27.9867478,38.4790575 28.4613259,38.0584899 28.5486178,37.5090573 L26.2768387,37.5090573" id="Fill-13"></path>
                    <path d="M37.6462139,36.3956817 C37.1959348,36.0689702 36.5630104,36.1072036 36.1570683,36.5130306 C35.7512413,36.9189728 35.7130078,37.5518971 36.0397193,38.0021762 L37.6462139,36.3956817" id="Fill-14"></path>
                    <path d="M36.2966433,38.2591002 C36.7469224,38.5858117 37.3798467,38.5475783 37.7856737,38.1417512 C38.1916159,37.7358091 38.2298493,37.1028848 37.9031379,36.6526056 L36.2966433,38.2591002" id="Fill-15"></path>
                    <path d="M23.9686688,29.4621893 C24.0994916,29.2819624 24.0841752,29.0286085 23.9216831,28.8661164 C23.7593062,28.7036244 23.5059523,28.688308 23.3257255,28.8191308 L23.9686688,29.4621893" id="Fill-16"></path>
                    <path d="M23.2228868,28.9219695 C23.092064,29.1021963 23.1073804,29.3555503 23.2698724,29.5180423 C23.4323644,29.6805343 23.6856033,29.6958507 23.8658301,29.5650279 L23.2228868,28.9219695" id="Fill-17"></path>
                    <path id="Fill-18" d="M23.1411225,34.9926764 C23.1761314,35.2125186 23.3660318,35.3808838 23.5957778,35.3808838 C23.8255238,35.3808838 24.0155393,35.2125186 24.050433,34.9926764 L23.1411225,34.9926764"></path>
                    <path id="Fill-19" d="M24.050433,34.8472282 C24.0155393,34.6272709 23.8255238,34.4590208 23.5957778,34.4590208 C23.3660318,34.4590208 23.1761314,34.6272709 23.1411225,34.8472282 L24.050433,34.8472282"></path>
                    <path id="Fill-20" d="M24.0564214,30.2115865 L23.1352493,30.2115865 C23.0715653,30.2115865 23.0199733,30.1311695 23.0199733,30.0316826 C23.0199733,29.9321957 23.0715653,29.8517786 23.1352493,29.8517786 L24.0564214,29.8517786 C24.1201054,29.8517786 24.1716974,29.9321957 24.1716974,30.0316826 C24.1716974,30.1311695 24.1201054,30.2115865 24.0564214,30.2115865"></path>
                    <path id="Fill-21" d="M24.0564214,30.6722301 L23.1352493,30.6722301 C23.0715653,30.6722301 23.0199733,30.5918131 23.0199733,30.4923262 C23.0199733,30.3928393 23.0715653,30.3124222 23.1352493,30.3124222 L24.0564214,30.3124222 C24.1201054,30.3124222 24.1716974,30.3928393 24.1716974,30.4923262 C24.1716974,30.5918131 24.1201054,30.6722301 24.0564214,30.6722301"></path>
                    <path id="Fill-22" d="M24.0564214,31.1328738 L23.1352493,31.1328738 C23.0715653,31.1328738 23.0199733,31.0524567 23.0199733,30.9529698 C23.0199733,30.8534829 23.0715653,30.7730658 23.1352493,30.7730658 L24.0564214,30.7730658 C24.1201054,30.7730658 24.1716974,30.8534829 24.1716974,30.9529698 C24.1716974,31.0524567 24.1201054,31.1328738 24.0564214,31.1328738"></path>
                    <path id="Fill-23" d="M24.0564214,31.5935174 L23.1352493,31.5935174 C23.0715653,31.5935174 23.0199733,31.5131003 23.0199733,31.4136134 C23.0199733,31.3141265 23.0715653,31.2337094 23.1352493,31.2337094 L24.0564214,31.2337094 C24.1201054,31.2337094 24.1716974,31.3141265 24.1716974,31.4136134 C24.1716974,31.5131003 24.1201054,31.5935174 24.0564214,31.5935174"></path>
                    <path id="Fill-24" d="M24.0564214,32.054161 L23.1352493,32.054161 C23.0715653,32.054161 23.0199733,31.9737439 23.0199733,31.874257 C23.0199733,31.7747701 23.0715653,31.694353 23.1352493,31.694353 L24.0564214,31.694353 C24.1201054,31.694353 24.1716974,31.7747701 24.1716974,31.874257 C24.1716974,31.9737439 24.1201054,32.054161 24.0564214,32.054161"></path>
                    <path id="Fill-25" d="M24.0564214,32.5148046 L23.1352493,32.5148046 C23.0715653,32.5148046 23.0199733,32.4343875 23.0199733,32.3349006 C23.0199733,32.2354137 23.0715653,32.1549966 23.1352493,32.1549966 L24.0564214,32.1549966 C24.1201054,32.1549966 24.1716974,32.2354137 24.1716974,32.3349006 C24.1716974,32.4343875 24.1201054,32.5148046 24.0564214,32.5148046"></path>
                    <path id="Fill-26" d="M24.0564214,32.9754482 L23.1352493,32.9754482 C23.0715653,32.9754482 23.0199733,32.8950311 23.0199733,32.7955442 C23.0199733,32.6960573 23.0715653,32.6156402 23.1352493,32.6156402 L24.0564214,32.6156402 C24.1201054,32.6156402 24.1716974,32.6960573 24.1716974,32.7955442 C24.1716974,32.8950311 24.1201054,32.9754482 24.0564214,32.9754482"></path>
                    <path id="Fill-27" d="M24.0564214,33.4360918 L23.1352493,33.4360918 C23.0715653,33.4360918 23.0199733,33.3556747 23.0199733,33.2561878 C23.0199733,33.1567009 23.0715653,33.0762838 23.1352493,33.0762838 L24.0564214,33.0762838 C24.1201054,33.0762838 24.1716974,33.1567009 24.1716974,33.2561878 C24.1716974,33.3556747 24.1201054,33.4360918 24.0564214,33.4360918"></path>
                    <path id="Fill-28" d="M24.0564214,33.8967354 L23.1352493,33.8967354 C23.0715653,33.8967354 23.0199733,33.8163183 23.0199733,33.7168314 C23.0199733,33.6173445 23.0715653,33.5369274 23.1352493,33.5369274 L24.0564214,33.5369274 C24.1201054,33.5369274 24.1716974,33.6173445 24.1716974,33.7168314 C24.1716974,33.8163183 24.1201054,33.8967354 24.0564214,33.8967354"></path>
                    <path id="Fill-29" d="M24.0564214,34.357379 L23.1352493,34.357379 C23.0715653,34.357379 23.0199733,34.2769619 23.0199733,34.177475 C23.0199733,34.0779881 23.0715653,33.997571 23.1352493,33.997571 L24.0564214,33.997571 C24.1201054,33.997571 24.1716974,34.0779881 24.1716974,34.177475 C24.1716974,34.2769619 24.1201054,34.357379 24.0564214,34.357379"></path>
                </g>
            </g>
        </g>
    </g>
</svg>