<?xml version="1.0" encoding="UTF-8" standalone="no"?>
<svg width="122px" height="122px" viewBox="0 0 122 122" version="1.1" xmlns="http://www.w3.org/2000/svg" xmlns:xlink="http://www.w3.org/1999/xlink" xmlns:sketch="http://www.bohemiancoding.com/sketch/ns">
    <!-- Generator: Sketch 3.3.2 (12043) - http://www.bohemiancoding.com/sketch -->
    <title>Artboard</title>
    <desc>Created with Sketch.</desc>
    <defs></defs>
    <g id="Page-1" stroke="none" stroke-width="1" fill="none" fill-rule="evenodd" sketch:type="MSPage">
        <g id="Artboard" sketch:type="MSArtboardGroup">
            <g id="Rectangle-1-Copy-+-Imported-Layers-8-Copy-Copy" sketch:type="MSLayerGroup">
                <rect id="Rectangle-1-Copy" fill="#FFDD2E" sketch:type="MSShapeGroup" x="0" y="0" width="122" height="122" rx="138.24"></rect>
                <g id="Imported-Layers-8" transform="translate(34.641975, 34.641975)" fill="#454545" sketch:type="MSShapeGroup">
                    <path d="M42.6712516,9.36830945 C42.4858559,9.66898757 42.376641,10.022058 42.3768336,10.4015173 C42.3768336,10.8969331 42.5609773,11.3486244 42.8628111,11.6951458 C42.3092244,12.0690191 41.7843379,12.105713 41.091295,12.6721089 C39.3192011,14.1205068 38.2167468,16.1663122 38.5412133,16.3431364 C38.8301417,16.5006023 41.9503754,13.5229067 43.3159471,12.078939 C43.6165289,12.2645273 43.9695031,12.3734533 44.3486734,12.3734533 C44.8444744,12.3734533 45.2961658,12.1892133 45.6424946,11.8873795 C46.0166568,12.4411589 46.053447,12.9659491 46.6196503,13.6588956 C48.0680482,15.4310858 50.1139499,16.5335402 50.290774,16.2090736 C50.4483363,15.9201453 47.470448,12.8000079 46.0263841,11.4344362 C46.2120687,11.1336617 46.3209947,10.7806876 46.3208984,10.4013246 C46.3209947,9.90561989 46.136851,9.45402487 45.8349209,9.10750345 C46.3885076,8.73343754 46.9134904,8.69693625 47.6060517,8.13054036 C49.3786272,6.68214249 50.4810815,4.63633708 50.156615,4.45951293 C49.8677829,4.30175804 46.7475492,7.27974265 45.3819775,8.72371028 C45.0813957,8.53812197 44.7283252,8.42929228 44.348866,8.42929228 C43.8532575,8.42919597 43.4015662,8.61343596 43.0551411,8.91526978 C42.6811715,8.36168305 42.6444776,7.83670022 42.0778891,7.14394632 C40.6294912,5.37175607 38.5838784,4.26910914 38.4068617,4.59357569 C38.2493957,4.88250405 41.2274766,8.00283402 42.6712516,9.36830945 L42.6712516,9.36830945 Z M44.348866,9.32419972 C44.9436732,9.32419972 45.4259909,9.80651747 45.4258946,10.4013246 C45.4259909,10.9962281 44.9436732,11.4784496 44.348866,11.4784496 C43.7540588,11.4783533 43.2718374,10.9961318 43.2718374,10.4013246 C43.2718374,9.80661378 43.7540588,9.32429603 44.348866,9.32419972 L44.348866,9.32419972 Z M44.0441429,34.4269698 C42.5805281,34.2399368 40.6112887,34.1854257 38.7239124,33.6415662 C39.8219365,31.7068056 40.4494888,29.4701149 40.4494888,27.0865522 C40.4494888,24.9361547 39.9384709,22.9052773 39.0322952,21.1077576 C40.9818875,20.5061125 43.0424283,20.4540091 44.5593022,20.2600418 C49.9085218,20.1478413 54.2102799,15.777222 54.2102799,10.4013246 C54.2102799,4.95492875 49.7951656,0.539814486 44.3487697,0.539814486 C38.9724871,0.539814486 34.6013862,4.84224669 34.4899562,10.1920442 C34.3030195,11.655659 34.2484121,13.6249947 33.7045526,15.5121784 C31.769792,14.4142506 29.5331012,13.7866019 27.1495386,13.7866019 C24.9991411,13.7866019 22.9682637,14.2976199 21.1708403,15.2037955 C20.5690989,13.2542996 20.5169955,11.1937588 20.3229319,9.67688494 C20.2108277,4.32766529 15.8402084,0.0259072429 10.464311,0.0259072429 C5.01791514,0.0259072429 0.602897178,4.4409252 0.602897178,9.8873211 C0.602897178,15.2636037 4.90532939,19.6347046 10.2549343,19.7461346 C11.7186454,19.9331676 13.6879811,19.9876787 15.5753574,20.5316345 C14.477237,22.4662988 13.8496846,24.7029895 13.8496846,27.0865522 C13.8496846,29.2369497 14.3606063,31.2678271 15.2667819,33.0652504 C13.317286,33.6669919 11.2568415,33.7190953 9.73987132,33.9130626 C4.39074798,34.0252631 0.0888936254,38.3958824 0.0888936254,43.7717798 C0.0888936254,49.2181756 4.50391158,53.6332899 9.95030748,53.6332899 C15.3265901,53.6332899 19.6976909,49.3308577 19.809121,43.9811565 C19.9961539,42.5174454 20.0506651,40.5481097 20.5946209,38.660926 C22.5293815,39.7588538 24.7659759,40.3865025 27.1495386,40.3865025 C29.2999361,40.3865025 31.3308135,39.8754845 33.1282368,38.9693089 C33.7299783,40.9189011 33.7820817,42.9794419 33.9760489,44.4963158 C34.0882495,49.8454391 38.4588688,54.1472935 43.8347661,54.1472935 C49.281162,54.1472935 53.6962763,49.7321792 53.6962763,44.2857833 C53.6962763,38.9095007 49.3937478,34.5383998 44.0441429,34.4269698 L44.0441429,34.4269698 Z M44.3487697,1.72894731 C49.1384314,1.72894731 53.0210507,5.61175923 53.0210507,10.4013246 C53.0210507,15.1908901 49.1384314,19.0736057 44.3487697,19.0736057 C39.5592043,19.0736057 35.6763923,15.1908901 35.6763923,10.4013246 C35.6763923,5.61175923 39.5592043,1.72894731 44.3487697,1.72894731 L44.3487697,1.72894731 Z M10.464311,18.5596984 C5.6746493,18.5596984 1.79193369,14.6768865 1.79193369,9.8873211 C1.79193369,5.09785198 5.6746493,1.21504006 10.464311,1.21504006 C15.2539728,1.21504006 19.1364958,5.09785198 19.1364958,9.8873211 C19.1364958,14.6768865 15.2539728,18.5596984 10.464311,18.5596984 L10.464311,18.5596984 Z M9.95030748,52.4441571 C5.16074206,52.4441571 1.27793014,48.5615378 1.27793014,43.7717798 C1.27793014,38.9822143 5.16074206,35.099595 9.95030748,35.099595 C14.7398729,35.099595 18.6225885,38.9822143 18.6225885,43.7717798 C18.6225885,48.5615378 14.7398729,52.4441571 9.95030748,52.4441571 L9.95030748,52.4441571 Z M27.1495386,37.7178638 C21.2779365,37.7178638 16.5183233,32.9581543 16.5183233,27.0865522 C16.5183233,21.2150464 21.2779365,16.4552406 27.1495386,16.4552406 C33.0210444,16.4552406 37.7807539,21.2150464 37.7807539,27.0865522 C37.7807539,32.9581543 33.0210444,37.7178638 27.1495386,37.7178638 L27.1495386,37.7178638 Z M43.8347661,52.9581606 C39.0452007,52.9581606 35.1623888,49.0753487 35.1623888,44.2857833 C35.1623888,39.4963142 39.0452007,35.6135023 43.8347661,35.6135023 C48.6245242,35.6135023 52.5071435,39.4963142 52.5071435,44.2857833 C52.5071435,49.0753487 48.6245242,52.9581606 43.8347661,52.9581606 L43.8347661,52.9581606 Z M45.5124768,45.3189911 C45.6979688,45.0182167 45.8069911,44.6653389 45.8069911,44.2859759 C45.8068948,43.7902712 45.6227511,43.3385798 45.3210136,42.992251 C45.8746004,42.6181851 46.3993906,42.5813949 47.0924334,42.014999 C48.864431,40.5666011 49.9669816,38.520892 49.6427077,38.3440679 C49.3537794,38.1865056 46.2335457,41.1644902 44.8677813,42.6083616 C44.5671032,42.4226769 44.2141291,42.3137509 43.8346698,42.3136546 C43.339254,42.3138472 42.887659,42.4979909 42.5410412,42.7998247 C42.1671679,42.2461417 42.130474,41.7213515 41.5641745,41.028405 C40.115584,39.256311 38.0698749,38.1537604 37.8929544,38.4781306 C37.7352958,38.767059 40.7133768,41.887389 42.1572481,43.2528644 C41.9718524,43.5535425 41.8629264,43.9065167 41.8627338,44.285687 C41.8627338,44.7813918 42.0470701,45.2331794 42.3490002,45.5797008 C41.7951245,45.9535741 41.2703343,45.990268 40.5773878,46.5566639 C38.8052939,48.0051581 37.7027432,50.0508672 38.0273061,50.2277876 C38.3160418,50.3854462 41.4362755,47.4076542 42.8017509,45.9633977 C43.1025254,46.1490823 43.4555958,46.2580083 43.8349588,46.2580083 C44.3306635,46.2580083 44.7822585,46.0737683 45.1285873,45.7719345 C45.5027496,46.3257138 45.5393471,46.850504 46.105743,47.5430653 C47.5541409,49.3156408 49.59985,50.4180951 49.7766742,50.0936286 C49.9344291,49.8047965 46.9564444,46.6844665 45.5124768,45.3189911 L45.5124768,45.3189911 Z M43.8349588,45.3630045 C43.239959,45.3630045 42.7577375,44.8806868 42.7579301,44.2858796 C42.7579301,43.6910724 43.239959,43.2089473 43.8348624,43.2087547 C44.4295733,43.2087547 44.9118911,43.6910724 44.9119874,44.2858796 C44.9120837,44.8808794 44.4297659,45.3629082 43.8349588,45.3630045 L43.8349588,45.3630045 Z M12.1417328,10.9203363 C12.3274174,10.6195619 12.4364397,10.2664914 12.4364397,9.88722479 C12.4364397,9.39161634 12.252296,8.939925 11.9502696,8.59340359 C12.5041453,8.21943398 13.0288392,8.18274008 13.7217857,7.6164405 C15.4938796,6.16785001 16.5965265,4.1220446 16.27206,3.94522045 C15.9831316,3.78756187 12.8629943,6.76545017 11.4973262,8.20951411 C11.1966481,8.0240221 10.843674,7.91509611 10.4642147,7.91509611 C9.96870259,7.91509611 9.51691494,8.0993361 9.17058615,8.40107361 C8.79652023,7.84739057 8.75982633,7.32260036 8.19352674,6.62984646 C6.74493625,4.8575599 4.69932347,3.75500928 4.52249931,4.07947582 C4.36474442,4.36821157 7.34272903,7.48854154 8.78669666,8.85411328 C8.60110835,9.1547914 8.49227867,9.50786185 8.49218236,9.88712848 C8.49227867,10.3827369 8.67642234,10.8344283 8.97825617,11.1809497 C8.42447681,11.5549193 7.8996866,11.5916132 7.2069327,12.1581054 C5.43474245,13.6065996 4.33209552,15.652116 4.65656207,15.8290365 C4.94549043,15.9865988 8.06582041,13.0086142 9.43139215,11.5646465 C9.73207026,11.7502349 10.0851407,11.8592572 10.464311,11.8593535 C10.9599195,11.8592572 11.4115145,11.6751135 11.7581322,11.3732797 C12.1321018,11.9268664 12.1686994,12.4516566 12.7350953,13.1446994 C14.1834932,14.9167934 16.2292023,16.019344 16.4061228,15.6949738 C16.5637813,15.4060454 13.5857967,12.2857154 12.1417328,10.9203363 L12.1417328,10.9203363 Z M10.464311,10.9642534 C9.86950385,10.9643497 9.38728242,10.482032 9.38728242,9.88722479 C9.38728242,9.29222499 9.86931123,8.81009986 10.464311,8.81009986 C11.0592145,8.81009986 11.5415323,9.29232129 11.541436,9.88722479 C11.5412433,10.482032 11.0591182,10.9641571 10.464311,10.9642534 L10.464311,10.9642534 Z M11.6275366,44.8048913 C11.8132212,44.5042131 11.9223398,44.151239 11.9222435,43.7717798 C11.9222435,43.2763639 11.7380999,42.8246726 11.436266,42.4781512 C11.9898528,42.1041816 12.514643,42.067584 13.2076858,41.5010918 C14.9797798,40.0526939 16.0822341,38.0068885 15.7578638,37.829968 C15.4688392,37.6725021 12.3487981,40.6503904 10.9831301,42.094358 C10.6825483,41.9087697 10.3294778,41.79994 9.95021117,41.7998437 C9.45460272,41.79994 9.00281508,41.9839874 8.65648628,42.2859175 C8.28242037,41.7320418 8.24563016,41.2072516 7.67942688,40.5144014 C6.23083639,38.7422112 4.18503098,37.6397569 4.00820683,37.9642234 C3.85054825,38.2531518 6.82843655,41.3732891 8.27250049,42.7389572 C8.08700849,43.039539 7.97808249,43.3926094 7.97808249,43.7719724 C7.9781788,44.2674845 8.16222617,44.7192722 8.46415631,45.0656973 C7.91047326,45.4396669 7.38558674,45.4763608 6.69283284,46.0427567 C4.92054628,47.4911545 3.81799566,49.5368636 4.14246221,49.7137841 C4.43129426,49.8714427 7.55152793,46.8935544 8.91709966,45.4494904 C9.21777778,45.6351751 9.57084823,45.7439084 9.95001855,45.7440047 C10.4457233,45.7439084 10.8973183,45.5599574 11.2438397,45.2578346 C11.618002,45.811614 11.6546959,46.3364042 12.2209955,47.0293507 C13.6694896,48.801541 15.7151987,49.9040916 15.8921192,49.5797213 C16.0495852,49.2906967 13.0715042,46.170463 11.6275366,44.8048913 L11.6275366,44.8048913 Z M9.95011486,44.849001 C9.35511506,44.8490973 8.87318255,44.3667796 8.87318255,43.7719724 C8.87308624,43.1769726 9.35530768,42.6946548 9.95011486,42.6948474 C10.5450184,42.6950401 11.0270472,43.1770689 11.0271435,43.7719724 C11.0273361,44.3666832 10.5450184,44.849001 9.95011486,44.849001 L9.95011486,44.849001 Z" id="Fill-1"></path>
                    <path d="M28.2947543,26.7831774 C28.2431324,26.5874766 28.1408518,26.4022735 27.9874308,26.2487563 C27.986564,26.2478895 27.9857936,26.2472153 27.9849268,26.2463485 C28.5248376,25.5304804 29.205938,24.4912051 29.6879668,23.6563947 C30.3979601,22.426523 30.4456333,21.9115563 30.2143943,21.7780714 C29.9833479,21.6445865 29.561031,21.9432422 28.8509414,23.1732102 C28.3690089,24.0079242 27.809451,25.1175054 27.4594624,25.9430701 C27.256731,25.8883663 27.0424425,25.8883663 26.8397111,25.9430701 C26.4897225,25.1175054 25.9301646,24.0079242 25.4481358,23.1732102 C24.7382388,21.9432422 24.3158255,21.6445865 24.0847792,21.7780714 C23.8536365,21.9115563 23.901117,22.4266193 24.6113029,23.6563947 C25.0931391,24.4912051 25.7742396,25.5304804 26.3142467,26.2463485 C26.3133799,26.2472153 26.3125131,26.2478895 26.3117426,26.2487563 C26.1582254,26.4022735 26.0559447,26.5874766 26.0043229,26.7831774 C25.1144235,26.6735773 23.8736688,26.603464 22.9098038,26.603464 C21.4896246,26.603464 21.0199234,26.8196787 21.0199234,27.0865522 C21.0199234,27.353522 21.4896246,27.569833 22.9098038,27.569833 C23.8736688,27.569833 25.1143272,27.4996234 26.0042266,27.389927 C26.0558484,27.5857241 26.1580328,27.7710235 26.31155,27.9245408 C26.3123205,27.9253112 26.3132836,27.9260817 26.3140541,27.9268522 C25.7741433,28.642624 25.0931391,29.6819957 24.6113029,30.5166134 C23.901117,31.7465814 23.8535402,32.2615481 24.0847792,32.395033 C24.3158255,32.5284216 24.7382388,32.2298622 25.4481358,30.9998942 C25.9300683,30.1651802 26.4897225,29.055599 26.8397111,28.2301306 C27.0424425,28.2848344 27.256731,28.2848344 27.4594624,28.2300343 C27.809451,29.055599 28.3690089,30.1651802 28.8509414,30.9999905 C29.5611273,32.2299586 29.9832516,32.5284216 30.2143943,32.395033 C30.445537,32.2616444 30.3979601,31.7465814 29.6879668,30.5166134 C29.205938,29.6818993 28.5248376,28.6425277 27.9849268,27.9267559 C27.9857936,27.9259854 27.986564,27.9252149 27.9874308,27.9243481 C28.1408518,27.7709272 28.2431324,27.5857241 28.2947543,27.389927 C29.1846536,27.4996234 30.4254083,27.569833 31.3892733,27.569833 C32.8095488,27.569833 33.27925,27.353522 33.27925,27.0865522 C33.27925,26.8196787 32.8095488,26.603464 31.3892733,26.603464 C30.4254083,26.603464 29.1846536,26.6735773 28.2947543,26.7831774" id="Fill-2"></path>
                    <path d="M27.2831198,24.2637221 C25.7240624,24.2637221 24.4602897,25.5274948 24.4602897,27.0865522 C24.4602897,28.6455133 25.7240624,29.9093823 27.2831198,29.9093823 C28.8421772,29.9093823 30.1059499,28.6455133 30.1059499,27.0865522 C30.1059499,25.5274948 28.8421772,24.2637221 27.2831198,24.2637221" id="Fill-3"></path>
                    <path d="M27.1495386,35.6578046 C22.4233448,35.6578046 18.5782862,31.8126497 18.5782862,27.0864559 C18.5782862,22.3603584 22.4233448,18.5152998 27.1495386,18.5152998 C31.8757324,18.5152998 35.720791,22.3603584 35.720791,27.0864559 C35.720791,31.8126497 31.8757324,35.6578046 27.1495386,35.6578046 L27.1495386,35.6578046 Z M27.1495386,19.0931565 C22.7420328,19.0931565 19.1561429,22.6789501 19.1561429,27.0864559 C19.1561429,31.4941543 22.7420328,35.0799479 27.1495386,35.0799479 C31.5571407,35.0799479 35.1429343,31.4941543 35.1429343,27.0864559 C35.1429343,22.6789501 31.5571407,19.0931565 27.1495386,19.0931565 L27.1495386,19.0931565 Z" id="Fill-4"></path>
                </g>
            </g>
        </g>
    </g>
</svg>