<?xml version="1.0" encoding="UTF-8" standalone="no"?>
<svg width="36px" height="36px" viewBox="0 0 36 36" version="1.1" xmlns="http://www.w3.org/2000/svg" xmlns:xlink="http://www.w3.org/1999/xlink" xmlns:sketch="http://www.bohemiancoding.com/sketch/ns">
    <!-- Generator: Sketch 3.3.2 (12043) - http://www.bohemiancoding.com/sketch -->
    <title>Imported Layers 8</title>
    <desc>Created with Sketch.</desc>
    <defs></defs>
    <g id="Page-1" stroke="none" stroke-width="1" fill="none" fill-rule="evenodd" sketch:type="MSPage">
        <g id="Desktop" sketch:type="MSArtboardGroup" transform="translate(-47.000000, -2875.000000)" fill="#454545">
            <g id="Imported-Layers-8" sketch:type="MSLayerGroup" transform="translate(47.000000, 2875.000000)">
                <path d="M28.330913,6.21994316 C28.2078224,6.41957371 28.1353108,6.65398934 28.1354387,6.9059254 C28.1354387,7.23484902 28.257698,7.53474245 28.4580959,7.76480995 C28.0905506,8.0130373 27.7420604,8.03739964 27.2819254,8.41344938 C26.1053712,9.37509059 25.3734139,10.7333712 25.5888384,10.8507709 C25.7806679,10.9553179 27.8522984,8.97832327 28.7589485,8.01962345 C28.9585151,8.14284192 29.1928668,8.21516163 29.444611,8.21516163 C29.7737904,8.21516163 30.0736838,8.09283837 30.3036234,7.8924405 C30.5520426,8.26011368 30.5764689,8.60853996 30.9523908,9.06861101 C31.914032,10.2452291 33.2723766,10.9771865 33.3897762,10.761762 C33.4943872,10.5699325 31.5172647,8.4983659 30.5585009,7.59171581 C30.6817833,7.39202131 30.754103,7.15766963 30.7540391,6.90579751 C30.754103,6.57668206 30.6318437,6.27685258 30.4313819,6.04678508 C30.7989272,5.79842984 31.1474813,5.77419538 31.6072966,5.39814565 C32.7841705,4.43650444 33.5161279,3.0782238 33.3007034,2.96082416 C33.1089378,2.85608526 31.0373073,4.83327176 30.1306572,5.79197158 C29.9310906,5.66875311 29.696675,5.59649734 29.4447389,5.59649734 C29.1156874,5.59643339 28.815794,5.71875666 28.5857904,5.91915453 C28.3374991,5.55160924 28.3131368,5.20305506 27.9369591,4.7431119 C26.9753179,3.56649378 25.6171652,2.83440853 25.4996377,3.04983304 C25.3950906,3.24166252 27.372341,5.31335702 28.330913,6.21994316 L28.330913,6.21994316 Z M29.4447389,6.19065719 C29.8396519,6.19065719 30.1598792,6.51088455 30.1598153,6.90579751 C30.1598792,7.30077442 29.8396519,7.62093783 29.4447389,7.62093783 C29.0498259,7.62087389 28.7296625,7.30071048 28.7296625,6.90579751 C28.7296625,6.51094849 29.0498259,6.19072114 29.4447389,6.19065719 L29.4447389,6.19065719 Z M29.2424227,22.8572504 C28.2706785,22.7330728 26.9632327,22.696881 25.7101385,22.335794 C26.4391545,21.0512398 26.8558082,19.5662238 26.8558082,17.9836945 C26.8558082,16.5559716 26.5165258,15.2076021 25.9148845,14.014167 C27.209286,13.614714 28.5773499,13.5801208 29.5844547,13.4513393 C33.1359858,13.3768455 35.992071,10.4750409 35.992071,6.90579751 C35.992071,3.28974778 33.0607247,0.358401421 29.444675,0.358401421 C25.8751758,0.358401421 22.9730515,3.21493428 22.8990693,6.76684902 C22.7749556,7.73859325 22.7386998,9.04610302 22.3776128,10.2990693 C21.0930586,9.57011723 19.6080426,9.15339964 18.0255133,9.15339964 C16.5977904,9.15339964 15.249421,9.49268206 14.0560497,10.0943233 C13.6565329,8.79998579 13.6219396,7.43192185 13.4930941,6.42481705 C13.4186643,2.87328597 10.5168597,0.0172007105 6.94761634,0.0172007105 C3.33156661,0.0172007105 0.400284192,2.94848313 0.400284192,6.56453286 C0.400284192,10.134032 3.25681705,13.0361563 6.80860391,13.1101385 C7.78041208,13.2343162 9.08792185,13.270508 10.341016,13.631659 C9.61193606,14.9161492 9.19528242,16.4011652 9.19528242,17.9836945 C9.19528242,19.4114174 9.53450089,20.7597869 10.1361421,21.9531581 C8.84180462,22.352675 7.47380462,22.3872682 6.46663588,22.5160497 C2.91516874,22.5905435 0.0590195382,25.4923481 0.0590195382,29.0615915 C0.0590195382,32.6776412 2.99030195,35.6089876 6.60635169,35.6089876 C10.1758508,35.6089876 13.0779751,32.7524547 13.1519574,29.2006039 C13.276135,28.2287957 13.3123268,26.921286 13.6734778,25.6683197 C14.958032,26.3972718 16.442984,26.8139893 18.0255133,26.8139893 C19.4532362,26.8139893 20.8016057,26.4747069 21.9949769,25.8730657 C22.3944938,27.1674671 22.429087,28.5355311 22.5578686,29.5426359 C22.6323623,33.094103 25.534167,35.9502522 29.1034103,35.9502522 C32.71946,35.9502522 35.6508064,33.0189059 35.6508064,29.4028561 C35.6508064,25.833357 32.7942096,22.9312327 29.2424227,22.8572504 L29.2424227,22.8572504 Z M29.444675,1.14790764 C32.6246963,1.14790764 35.2025009,3.72584014 35.2025009,6.90579751 C35.2025009,10.0857549 32.6246963,12.6636234 29.444675,12.6636234 C26.2647176,12.6636234 23.6867851,10.0857549 23.6867851,6.90579751 C23.6867851,3.72584014 26.2647176,1.14790764 29.444675,1.14790764 L29.444675,1.14790764 Z M6.94761634,12.3224227 C3.76759503,12.3224227 1.18972647,9.74449023 1.18972647,6.56453286 C1.18972647,3.38463943 3.76759503,0.806706927 6.94761634,0.806706927 C10.1276377,0.806706927 12.7053783,3.38463943 12.7053783,6.56453286 C12.7053783,9.74449023 10.1276377,12.3224227 6.94761634,12.3224227 L6.94761634,12.3224227 Z M6.60635169,34.8194813 C3.42639432,34.8194813 0.848461812,32.2416767 0.848461812,29.0615915 C0.848461812,25.8816341 3.42639432,23.3038295 6.60635169,23.3038295 C9.78630906,23.3038295 12.3641776,25.8816341 12.3641776,29.0615915 C12.3641776,32.2416767 9.78630906,34.8194813 6.60635169,34.8194813 L6.60635169,34.8194813 Z M18.0255133,25.0421883 C14.1271545,25.0421883 10.9670835,21.8820533 10.9670835,17.9836945 C10.9670835,14.0853996 14.1271545,10.9252007 18.0255133,10.9252007 C21.9238082,10.9252007 25.0839432,14.0853996 25.0839432,17.9836945 C25.0839432,21.8820533 21.9238082,25.0421883 18.0255133,25.0421883 L18.0255133,25.0421883 Z M29.1034103,35.160746 C25.9234529,35.160746 23.3455204,32.5828135 23.3455204,29.4028561 C23.3455204,26.2229627 25.9234529,23.6450302 29.1034103,23.6450302 C32.2834956,23.6450302 34.8613002,26.2229627 34.8613002,29.4028561 C34.8613002,32.5828135 32.2834956,35.160746 29.1034103,35.160746 L29.1034103,35.160746 Z M30.2173002,30.0888384 C30.3404547,29.8891439 30.4128384,29.6548561 30.4128384,29.402984 C30.4127744,29.0738686 30.2905151,28.7739751 30.0901812,28.5440355 C30.4577265,28.2956803 30.8061528,28.271254 31.2662877,27.8952043 C32.442778,26.9335631 33.1747993,25.5753464 32.9595027,25.4579467 C32.7676732,25.3533357 30.6960426,27.3305222 29.7892647,28.2891581 C29.5896341,28.1658757 29.3552824,28.093556 29.1033464,28.093492 C28.7744227,28.0936199 28.4745933,28.2158792 28.2444618,28.4162771 C27.9962345,28.0486679 27.9718721,27.7002416 27.5958863,27.2401705 C26.6341172,26.0636163 25.2759005,25.331595 25.1584369,25.5469556 C25.053762,25.7387851 27.0310124,27.8104796 27.9896483,28.7170657 C27.8665577,28.9166963 27.794238,29.151048 27.7941101,29.4027922 C27.7941101,29.7319076 27.9164973,30.031865 28.1169591,30.2619325 C27.749222,30.5101599 27.4007957,30.5345222 26.9407247,30.9105719 C25.7641705,31.8722771 25.0321492,33.2304938 25.2476377,33.3479574 C25.4393393,33.4526323 27.5109698,31.4755737 28.417556,30.5166821 C28.6172504,30.6399645 28.8516661,30.7122842 29.1035382,30.7122842 C29.4326536,30.7122842 29.7324831,30.5899609 29.9624227,30.3895631 C30.2108419,30.7572362 30.2351403,31.1056625 30.6111901,31.5654778 C31.5728313,32.7423517 32.931048,33.4743091 33.0484476,33.2588845 C33.1531865,33.067119 31.176,30.9954245 30.2173002,30.0888384 L30.2173002,30.0888384 Z M29.1035382,30.1180604 C28.7084973,30.1180604 28.3883339,29.797833 28.3884618,29.4029201 C28.3884618,29.0080071 28.7084973,28.6879076 29.1034742,28.6877798 C29.4983233,28.6877798 29.8185506,29.0080071 29.8186146,29.4029201 C29.8186785,29.7979609 29.4984512,30.1179964 29.1035382,30.1180604 L29.1035382,30.1180604 Z M8.06131439,7.25038721 C8.1845968,7.05069272 8.25698046,6.81627709 8.25698046,6.56446892 C8.25698046,6.23541741 8.13472114,5.93552398 7.93419538,5.70545648 C8.3019325,5.45716519 8.65029485,5.43280284 9.1103659,5.05681705 C10.2869201,4.09504796 11.0190053,2.73676732 10.8035808,2.61936767 C10.6117513,2.51469272 8.54018472,4.49181528 7.63347069,5.45057904 C7.43384014,5.32742451 7.19948845,5.2551048 6.9475524,5.2551048 C6.61856483,5.2551048 6.31860746,5.37742806 6.08866785,5.57776199 C5.84031261,5.21015275 5.81595027,4.86172647 5.43996448,4.4017833 C4.47819538,3.22510124 3.12004263,2.49307993 3.00264298,2.70850444 C2.89790409,2.90020604 4.87509059,4.97190053 5.83379041,5.87855062 C5.71057194,6.07818117 5.63831616,6.3125968 5.63825222,6.56440497 C5.63831616,6.89345648 5.76057549,7.19334991 5.96097336,7.42341741 C5.59330018,7.6717087 5.24487389,7.69607105 4.78493073,8.07218472 C3.60831261,9.03388988 2.87622735,10.3919787 3.09165187,10.5094423 C3.28348135,10.6140533 5.35517584,8.63686679 6.26182593,7.67816696 C6.46145648,7.80138544 6.69587211,7.87376909 6.94761634,7.87383304 C7.27666785,7.87376909 7.57649734,7.75150977 7.80662877,7.5511119 C8.05492007,7.91865719 8.07921847,8.26708348 8.45526821,8.72721847 C9.41690941,9.90377265 10.7751261,10.635794 10.8925897,10.4204334 C10.9972647,10.2286039 9.02007815,8.15690941 8.06131439,7.25038721 L8.06131439,7.25038721 Z M6.94761634,7.27954529 C6.55270337,7.27960924 6.23253996,6.95938188 6.23253996,6.56446892 C6.23253996,6.16942806 6.55257549,5.8493286 6.94761634,5.8493286 C7.34259325,5.8493286 7.6628206,6.16949201 7.66275666,6.56446892 C7.66262877,6.95938188 7.34252931,7.27948135 6.94761634,7.27954529 L6.94761634,7.27954529 Z M7.71992185,29.7475098 C7.84320426,29.5478792 7.91565187,29.3135275 7.91558792,29.0615915 C7.91558792,28.7326679 7.7933286,28.4327744 7.59293073,28.2027069 C7.96047602,27.9544156 8.30890231,27.9301172 8.7690373,27.5540036 C9.94559147,26.5923623 10.6775488,25.2340817 10.4621883,25.1166181 C10.2702948,25.012071 8.19879218,26.9891936 7.29207815,27.9478934 C7.09251155,27.824675 6.85809591,27.7524192 6.60628774,27.7523552 C6.27723623,27.7524192 5.97727886,27.8746146 5.74733925,28.0750764 C5.49898401,27.7073393 5.47455773,27.358913 5.09863588,26.8989059 C4.13686679,25.7222877 2.77858615,24.9903304 2.6611865,25.2057549 C2.55651155,25.3975844 4.5336341,27.469151 5.49239787,28.375865 C5.36924334,28.5754316 5.29692362,28.8098472 5.29692362,29.0617194 C5.29698757,29.3907069 5.41918295,29.6906643 5.61964476,29.9206679 C5.25203552,30.1689591 4.90354529,30.1933215 4.44360213,30.5693712 C3.26692007,31.5310124 2.53489876,32.8892291 2.75032327,33.0066927 C2.94208881,33.1113677 5.01371936,31.1342451 5.92036945,30.1754813 C6.12,30.2987638 6.35441563,30.3709556 6.60615986,30.3710195 C6.93527531,30.3709556 7.2351048,30.2488242 7.46517229,30.0482345 C7.71359147,30.4159076 7.73795382,30.7643339 8.11393961,31.224405 C9.07564476,32.4010231 10.4338615,33.1330444 10.551325,32.9176838 C10.6558721,32.7257904 8.67862167,30.6541599 7.71992185,29.7475098 L7.71992185,29.7475098 Z M6.6062238,29.7767957 C6.21118295,29.7768597 5.89121137,29.4566323 5.89121137,29.0617194 C5.89114742,28.6666785 6.21131083,28.3464512 6.6062238,28.346579 C7.00120071,28.3467069 7.32123623,28.6667425 7.32130018,29.0617194 C7.32142806,29.4565684 7.00120071,29.7767957 6.6062238,29.7767957 L6.6062238,29.7767957 Z" id="Fill-1" sketch:type="MSShapeGroup"></path>
                <path d="M18.7858615,17.7822735 C18.7515879,17.652341 18.6836803,17.5293783 18.5818188,17.4274529 C18.5812433,17.4268774 18.5807318,17.4264298 18.5801563,17.4258544 C18.9386217,16.9505648 19.3908277,16.2605542 19.7108632,15.7062948 C20.1822522,14.8897407 20.2139041,14.5478366 20.0603766,14.4592114 C19.9069769,14.3705861 19.6265861,14.5688739 19.1551332,15.385492 C18.8351616,15.9396874 18.4636519,16.6763766 18.2312824,17.2244973 C18.0966821,17.1881776 17.9544085,17.1881776 17.8198082,17.2244973 C17.5874387,16.6763766 17.215929,15.9396874 16.8958934,15.385492 C16.4245684,14.5688739 16.1441137,14.3705861 15.990714,14.4592114 C15.8372504,14.5478366 15.8687744,14.8898046 16.3402913,15.7062948 C16.6601989,16.2605542 17.112405,16.9505648 17.4709343,17.4258544 C17.4703588,17.4264298 17.4697833,17.4268774 17.4692718,17.4274529 C17.3673464,17.5293783 17.2994387,17.652341 17.2651652,17.7822735 C16.6743304,17.7095062 15.8505506,17.6629556 15.2106075,17.6629556 C14.2677016,17.6629556 13.9558508,17.806508 13.9558508,17.9836945 C13.9558508,18.1609449 14.2677016,18.3045613 15.2106075,18.3045613 C15.8505506,18.3045613 16.6742664,18.2579467 17.2651012,18.1851155 C17.2993748,18.3151119 17.3672185,18.4381385 17.4691439,18.5400639 C17.4696554,18.5405755 17.4702948,18.541087 17.4708064,18.5415986 C17.112341,19.0168242 16.6601989,19.7068988 16.3402913,20.2610302 C15.8687744,21.0776483 15.8371865,21.4195524 15.990714,21.5081776 C16.1441137,21.5967389 16.4245684,21.3985151 16.8958934,20.581897 C17.215865,20.0277016 17.5874387,19.2910124 17.8198082,18.7429556 C17.9544085,18.7792753 18.0966821,18.7792753 18.2312824,18.7428917 C18.4636519,19.2910124 18.8351616,20.0277016 19.1551332,20.5819609 C19.6266501,21.398579 19.906913,21.5967389 20.0603766,21.5081776 C20.2138401,21.4196163 20.1822522,21.0776483 19.7108632,20.2610302 C19.3908277,19.7068348 18.9386217,19.0167602 18.5801563,18.5415346 C18.5807318,18.5410231 18.5812433,18.5405115 18.5818188,18.5399361 C18.6836803,18.4380746 18.7515879,18.3151119 18.7858615,18.1851155 C19.3766963,18.2579467 20.200476,18.3045613 20.8404192,18.3045613 C21.783389,18.3045613 22.0952398,18.1609449 22.0952398,17.9836945 C22.0952398,17.806508 21.783389,17.6629556 20.8404192,17.6629556 C20.200476,17.6629556 19.3766963,17.7095062 18.7858615,17.7822735" id="Fill-2" sketch:type="MSShapeGroup"></path>
                <path d="M18.1142025,16.1095204 C17.0790906,16.1095204 16.2400284,16.9485826 16.2400284,17.9836945 C16.2400284,19.0187425 17.0790906,19.8578686 18.1142025,19.8578686 C19.1493144,19.8578686 19.9883766,19.0187425 19.9883766,17.9836945 C19.9883766,16.9485826 19.1493144,16.1095204 18.1142025,16.1095204" id="Fill-3" sketch:type="MSShapeGroup"></path>
                <path d="M18.0255133,23.674444 C14.8876306,23.674444 12.3347638,21.1215133 12.3347638,17.9836306 C12.3347638,14.8458117 14.8876306,12.2929449 18.0255133,12.2929449 C21.1633961,12.2929449 23.7162629,14.8458117 23.7162629,17.9836306 C23.7162629,21.1215133 21.1633961,23.674444 18.0255133,23.674444 L18.0255133,23.674444 Z M18.0255133,12.6766039 C15.0992185,12.6766039 12.7184227,15.0573357 12.7184227,17.9836306 C12.7184227,20.9100533 15.0992185,23.2907851 18.0255133,23.2907851 C20.9518721,23.2907851 23.3326039,20.9100533 23.3326039,17.9836306 C23.3326039,15.0573357 20.9518721,12.6766039 18.0255133,12.6766039 L18.0255133,12.6766039 Z" id="Fill-4" sketch:type="MSShapeGroup"></path>
            </g>
        </g>
    </g>
</svg>