<?xml version="1.0" encoding="UTF-8" standalone="no"?>
<svg width="91px" height="86px" viewBox="0 0 91 86" version="1.1" xmlns="http://www.w3.org/2000/svg" xmlns:xlink="http://www.w3.org/1999/xlink" xmlns:sketch="http://www.bohemiancoding.com/sketch/ns">
    <!-- Generator: Sketch 3.3.2 (12043) - http://www.bohemiancoding.com/sketch -->
    <title>prototype</title>
    <desc>Created with Sketch.</desc>
    <defs></defs>
    <g id="Page-1" stroke="none" stroke-width="1" fill="none" fill-rule="evenodd" sketch:type="MSPage">
        <g id="prototype" sketch:type="MSArtboardGroup">
            <g id="Oval-8-Copy-7-+-Oval-2-+-Rectangle-17-+-Oval-4-+-Oval-5-+-Rectangle-19-+-Rectangle-18-+-Line-+-Line-Copy-33" sketch:type="MSLayerGroup">
                <ellipse id="Oval-8-Copy-7" fill="#FFDD2E" sketch:type="MSShapeGroup" cx="40.8999023" cy="44.625" rx="40.5" ry="40.5"></ellipse>
                <g id="Oval-2-+-Rectangle-17-+-Oval-4-+-Oval-5-+-Rectangle-19-+-Rectangle-18-+-Line-+-Line-Copy-33" transform="translate(10.149902, 0.000000)" stroke="#000000" sketch:type="MSShapeGroup">
                    <path d="M6.47030727,21.5951058 C2.91228044,20.0405377 0.425768174,16.4902159 0.425768174,12.3591381 C0.425768174,8.71241597 2.36339072,5.51824988 5.26527559,3.75 L5.26527559,3.75 L5.26527559,12.0233303 L10.5,15.0455999 L15.7347244,12.0233303 L15.7347244,3.75 C18.6366093,5.51824988 20.5742318,8.71241597 20.5742318,12.3591381 C20.5742318,16.4902159 18.0877196,20.0405377 14.5296927,21.5951058 L14.5296927,63.0188087 C18.0877196,64.5733768 20.5742318,68.1236986 20.5742318,72.2547764 C20.5742318,75.9014985 18.6366093,79.0956646 15.7347244,80.8639145 L15.7347244,80.8639145 L15.7347244,72.5905841 L10.5,69.5683146 L5.26527559,72.5905841 L5.26527559,80.8639145 C2.36339072,79.0956646 0.425768174,75.9014985 0.425768174,72.2547764 C0.425768174,68.1236986 2.91228044,64.5733768 6.47030727,63.0188087 L6.47030727,21.5951058 Z" id="Oval-2" stroke-width="1.5" stroke-linejoin="round" fill="#FFFFFF"></path>
                    <g id="Rectangle-17-+-Oval-4-+-Oval-5" transform="translate(24.750000, 50.850000)" stroke-width="1.5" fill="#FFFFFF">
                        <rect id="Rectangle-17" x="25.8" y="21.825" width="7.94250011" height="9.34500003" rx="1.5"></rect>
                        <path d="M30.96,15.69 C30.96,7.1406321 24.0293679,0.210000029 15.48,0.210000029 C6.93063207,0.210000029 0,7.1406321 0,15.69 L0,23.43 C0,27.6959859 3.46202633,31.17 7.73265224,31.17 L27.2100871,31.17 C29.2734695,31.17 30.96,29.4922873 30.96,27.4227238 L30.96,15.69 Z" id="Oval-4"></path>
                        <circle id="Oval-5" cx="15.48" cy="15.48" r="9.675"></circle>
                    </g>
                    <g id="Rectangle-19-+-Rectangle-18-+-Line-+-Line-Copy-32" transform="translate(51.824760, 39.779006) rotate(-30.000000) translate(-51.824760, -39.779006) translate(44.324760, -1.720994)">
                        <g id="Rectangle-19-+-Rectangle-18" transform="translate(0.000000, 0.000000)" stroke-width="1.5" fill="#FFFFFF">
                            <path d="M9,72.75 L9,38.25 L4.5,38.25 L4.5,72.75 L3.75,72.75 L4.5,82.5 L9,82.5 L9.75,72.75 L9,72.75 Z" id="Rectangle-19" stroke-linejoin="round"></path>
                            <path d="M13.5,39.0258599 L13.5,42.7523677 C13.5,43.5794872 12.8305329,44.25 12.003683,44.25 L1.49631697,44.25 C0.669923926,44.25 0,43.5726453 0,42.7523677 L0,39.0258599 L9.28740418e-12,39.0258599 C0.916127499,38.1836141 1.5,36.9094568 1.5,35.4834906 C1.5,34.0575243 0.916127499,32.7833671 0,31.9411212 L0,6.7446907 C0,3.01970089 3.02966351,0 6.75,0 C10.4779221,0 13.5,3.02406602 13.5,6.7446907 L13.5,31.9411212 C12.5838725,32.7833671 12,34.0575243 12,35.4834906 C12,36.9094568 12.5838725,38.1836141 13.5,39.0258599 Z" id="Rectangle-18"></path>
                        </g>
                        <path d="M0.375,32.625 L13.125,32.625" id="Line" stroke-width="0.75" stroke-linecap="square"></path>
                        <path d="M0.375,38.625 L13.125,38.625" id="Line-Copy-32" stroke-width="0.75" stroke-linecap="square"></path>
                    </g>
                </g>
            </g>
        </g>
    </g>
</svg>