<?xml version="1.0" encoding="UTF-8" standalone="no"?>
<svg width="122px" height="122px" viewBox="0 0 122 122" version="1.1" xmlns="http://www.w3.org/2000/svg" xmlns:xlink="http://www.w3.org/1999/xlink" xmlns:sketch="http://www.bohemiancoding.com/sketch/ns">
    <!-- Generator: Sketch 3.3.2 (12043) - http://www.bohemiancoding.com/sketch -->
    <title>Artboard</title>
    <desc>Created with Sketch.</desc>
    <defs></defs>
    <g id="Page-1" stroke="none" stroke-width="1" fill="none" fill-rule="evenodd" sketch:type="MSPage">
        <g id="Artboard" sketch:type="MSArtboardGroup">
            <g id="Rectangle-1-Copy-+-RI-Grey-Copy-Copy-Copy" sketch:type="MSLayerGroup">
                <rect id="Rectangle-1-Copy" fill="#FFDD2E" sketch:type="MSShapeGroup" x="0" y="0" width="122" height="122" rx="138.24"></rect>
                <g id="RI-Grey-Copy" transform="translate(49.703704, 31.629630)" sketch:type="MSShapeGroup">
                    <path d="M14.081911,48.0262264 L8.63410118,48.0262264 C3.87632624,48.0262264 0.00551397758,44.5696626 0.00551397758,40.3212994 L0.00551397758,33.0144316 L2.07010473,33.0144316 L2.07010473,40.3212994 C2.07010473,43.5295262 5.01456875,46.1403044 8.63410118,46.1403044 L14.081911,46.1403044 C17.7006557,46.1403044 20.6451198,43.5295262 20.6451198,40.3212994 L20.6451198,33.0144316 L22.7097105,33.0144316 L22.7097105,40.3212994 C22.7097105,44.5696626 18.8388983,48.0262264 14.081911,48.0262264" id="Fill-1" fill="#454545"></path>
                    <path d="M0.908230878,33.0144316 L21.2902551,33.0144316 L21.2902551,34.9003535 L0.908230878,34.9003535 L0.908230878,33.0144316 Z" id="Fill-2" fill="#454545"></path>
                    <path d="M1.0374155,37.7299563 L21.6770213,37.7299563 L21.6770213,39.6158782 L1.0374155,39.6158782 L1.0374155,37.7299563 Z" id="Fill-3" fill="#454545"></path>
                    <path d="M5.27293799,46.2173249 L17.6147952,46.2173249 L17.6147952,51.9341158 L5.27293799,51.9341158 L5.27293799,46.2173249 Z M7.33752874,50.0481939 L15.5494168,50.0481939 L15.5494168,48.1032469 L7.33752874,48.1032469 L7.33752874,50.0481939 Z" id="Fill-4" fill="#454545"></path>
                    <path d="M5.27293799,49.9891688 L17.6147952,49.9891688 L17.6147952,55.7066796 L5.27293799,55.7066796 L5.27293799,49.9891688 Z M7.33752874,53.8207576 L15.5494168,53.8207576 L15.5494168,51.8750908 L7.33752874,51.8750908 L7.33752874,53.8207576 Z" id="Fill-5" fill="#454545"></path>
                    <path d="M11.4438666,59.4785235 C7.14532723,59.4785235 5.53445807,56.4430529 5.28396594,54.8385796 L5.11539577,53.7617326 L17.7723374,53.7617326 L17.604555,54.8385796 C17.3524874,56.4437727 15.7416183,59.4785235 11.4438666,59.4785235 L11.4438666,59.4785235 Z M7.72114403,55.6476545 C8.20401093,56.5207932 9.24457727,57.5926015 11.4438666,57.5926015 C13.6415805,57.5926015 14.6813592,56.521513 15.1650138,55.6476545 L7.72114403,55.6476545 L7.72114403,55.6476545 Z" id="Fill-6" fill="#454545"></path>
                    <path d="M21.7644572,33.3297116 L19.6998665,33.3297116 L19.6998665,7.55160583 C19.6998665,4.98905538 16.8845871,1.89312013 13.3879376,1.89312013 L9.30838186,1.89312013 C5.79912899,1.89312013 3.17762651,4.78246775 3.17762651,7.36517309 L3.17762651,26.2949348 L1.11303576,26.2949348 L1.11303576,7.36517309 C1.11303576,3.88485527 4.47892522,0.00719817542 9.30838186,0.00719817542 L13.3879376,0.00719817542 C18.1047515,0.00719817542 21.7644572,4.06265021 21.7644572,7.55160583 L21.7644572,33.3297116" id="Fill-7" fill="#454545"></path>
                    <path id="Stroke-8"></path>
                    <path d="M15.5084558,33.3297116 L13.443865,33.3297116 L13.443865,10.6684158 C13.443865,8.49456681 12.8412661,8.49456681 12.4812821,8.49456681 L10.215825,8.49456681 C9.95194182,8.49456681 9.25166667,8.49456681 9.25166667,10.6684158 L9.25166667,33.3297116 L7.18707592,33.3297116 L7.18707592,10.6684158 C7.18707592,7.31334622 8.83417979,6.60864485 10.215825,6.60864485 L12.4812821,6.60864485 C14.4899454,6.60864485 15.5084558,7.97485855 15.5084558,10.6684158 L15.5084558,33.3297116" id="Fill-9" fill="#454545"></path>
                </g>
            </g>
        </g>
    </g>
</svg>