<?xml version="1.0" encoding="UTF-8" standalone="no"?>
<svg width="16px" height="40px" viewBox="0 0 16 40" version="1.1" xmlns="http://www.w3.org/2000/svg" xmlns:xlink="http://www.w3.org/1999/xlink" xmlns:sketch="http://www.bohemiancoding.com/sketch/ns">
    <!-- Generator: Sketch 3.3.2 (12043) - http://www.bohemiancoding.com/sketch -->
    <title>RI-Grey Copy</title>
    <desc>Created with Sketch.</desc>
    <defs></defs>
    <g id="Page-1" stroke="none" stroke-width="1" fill="none" fill-rule="evenodd" sketch:type="MSPage">
        <g id="Desktop" sketch:type="MSArtboardGroup" transform="translate(-57.000000, -2779.000000)">
            <g id="RI-Grey-Copy" sketch:type="MSLayerGroup" transform="translate(57.000000, 2779.500000)">
                <path d="M9.34946552,31.8862651 L5.73247701,31.8862651 C2.57362644,31.8862651 0.00366091954,29.5913333 0.00366091954,26.7706988 L0.00366091954,21.9194177 L1.37441379,21.9194177 L1.37441379,26.7706988 C1.37441379,28.900751 3.32934483,30.6341365 5.73247701,30.6341365 L9.34946552,30.6341365 C11.7520747,30.6341365 13.7070057,28.900751 13.7070057,26.7706988 L13.7070057,21.9194177 L15.0777586,21.9194177 L15.0777586,26.7706988 C15.0777586,29.5913333 12.5077931,31.8862651 9.34946552,31.8862651" id="Fill-1" fill="#454545" sketch:type="MSShapeGroup"></path>
                <path d="M0.603005747,21.9194177 L14.1353333,21.9194177 L14.1353333,23.1715462 L0.603005747,23.1715462 L0.603005747,21.9194177 Z" id="Fill-2" fill="#454545" sketch:type="MSShapeGroup"></path>
                <path d="M0.688775862,25.0502169 L14.3921207,25.0502169 L14.3921207,26.3023454 L0.688775862,26.3023454 L0.688775862,25.0502169 Z" id="Fill-3" fill="#454545" sketch:type="MSShapeGroup"></path>
                <path d="M3.50088506,30.6852731 L11.695069,30.6852731 L11.695069,34.4808474 L3.50088506,34.4808474 L3.50088506,30.6852731 Z M4.87163793,33.2287189 L10.3237931,33.2287189 L10.3237931,31.9374016 L4.87163793,31.9374016 L4.87163793,33.2287189 Z" id="Fill-4" fill="#454545" sketch:type="MSShapeGroup"></path>
                <path d="M3.50088506,33.1895301 L11.695069,33.1895301 L11.695069,36.9855823 L3.50088506,36.9855823 L3.50088506,33.1895301 Z M4.87163793,35.7334538 L10.3237931,35.7334538 L10.3237931,34.4416586 L4.87163793,34.4416586 L4.87163793,35.7334538 Z" id="Fill-5" fill="#454545" sketch:type="MSShapeGroup"></path>
                <path d="M7.59797701,39.4898394 C4.74402874,39.4898394 3.67451724,37.4744859 3.5082069,36.4092209 L3.39628736,35.6942651 L11.7996667,35.6942651 L11.6882701,36.4092209 C11.5209138,37.4749639 10.4514023,39.4898394 7.59797701,39.4898394 L7.59797701,39.4898394 Z M5.12633333,36.9463936 C5.44692529,37.5261004 6.1377931,38.2377108 7.59797701,38.2377108 C9.05711494,38.2377108 9.74745977,37.5265783 10.0685747,36.9463936 L5.12633333,36.9463936 L5.12633333,36.9463936 Z" id="Fill-6" fill="#454545" sketch:type="MSShapeGroup"></path>
                <path d="M14.4501724,22.128743 L13.0794195,22.128743 L13.0794195,5.01377108 C13.0794195,3.31240562 11.2102586,1.25690763 8.88871264,1.25690763 L6.18015517,1.25690763 C3.85024138,1.25690763 2.10973563,3.17524498 2.10973563,4.88999197 L2.10973563,17.4581124 L0.738982759,17.4581124 L0.738982759,4.88999197 C0.738982759,2.57928916 2.97371264,0.00477911647 6.18015517,0.00477911647 L8.88871264,0.00477911647 C12.0203678,0.00477911647 14.4501724,2.69733333 14.4501724,5.01377108 L14.4501724,22.128743" id="Fill-7" fill="#454545" sketch:type="MSShapeGroup"></path>
                <path id="Stroke-8" sketch:type="MSShapeGroup"></path>
                <path d="M10.2965977,22.128743 L8.92584483,22.128743 L8.92584483,7.08312851 C8.92584483,5.63983534 8.52575862,5.63983534 8.28675287,5.63983534 L6.78263793,5.63983534 C6.60743678,5.63983534 6.1425,5.63983534 6.1425,7.08312851 L6.1425,22.128743 L4.77174713,22.128743 L4.77174713,7.08312851 C4.77174713,4.85558233 5.86531609,4.38770683 6.78263793,4.38770683 L8.28675287,4.38770683 C9.62037356,4.38770683 10.2965977,5.29478313 10.2965977,7.08312851 L10.2965977,22.128743" id="Fill-9" fill="#454545" sketch:type="MSShapeGroup"></path>
            </g>
        </g>
    </g>
</svg>