<?xml version="1.0" encoding="UTF-8" standalone="no"?>
<svg width="122px" height="122px" viewBox="0 0 122 122" version="1.1" xmlns="http://www.w3.org/2000/svg" xmlns:xlink="http://www.w3.org/1999/xlink" xmlns:sketch="http://www.bohemiancoding.com/sketch/ns">
    <!-- Generator: Sketch 3.3.2 (12043) - http://www.bohemiancoding.com/sketch -->
    <title>Artboard</title>
    <desc>Created with Sketch.</desc>
    <defs></defs>
    <g id="Page-1" stroke="none" stroke-width="1" fill="none" fill-rule="evenodd" sketch:type="MSPage">
        <g id="Artboard" sketch:type="MSArtboardGroup">
            <g id="Rectangle-1-Copy-+-Group-Copy-Copy-Copy" sketch:type="MSLayerGroup">
                <rect id="Rectangle-1-Copy" fill="#FFDD2E" sketch:type="MSShapeGroup" x="0" y="0" width="122" height="122" rx="138.24"></rect>
                <g id="Group" transform="translate(28.617284, 28.617284)" sketch:type="MSShapeGroup">
                    <g id="Imported-Layers-2-Copy" fill="#454545">
                        <path d="M32.0192219,64.0241639 C23.4760104,64.0241639 15.443883,60.6972806 9.40288761,54.65617 C3.36177704,48.6150594 0.0348937532,40.5831624 0.0348937532,32.0398357 C0.0348937532,23.4965091 3.36177704,15.4644968 9.40288761,9.42350142 C15.443883,3.38239084 23.4760104,0.0553923937 32.0192219,0.0553923937 C40.5626637,0.0553923937 48.5945608,3.38239084 54.6356714,9.42350142 C60.6766668,15.4644968 64.0035501,23.4965091 64.0035501,32.0398357 C64.0035501,40.5831624 60.6766668,48.6150594 54.6356714,54.65617 C48.5945608,60.6972806 40.5626637,64.0241639 32.0192219,64.0241639 L32.0192219,64.0241639 Z M32.0192219,0.976679606 C23.7219941,0.976679606 15.9214553,4.20786418 10.0543528,10.0748515 C4.18725038,15.9420691 0.956180966,23.7426079 0.956180966,32.0398357 C0.956180966,40.3370635 4.18725038,48.1377175 10.0543528,54.0047048 C15.9214553,59.8716921 23.7219941,63.1028767 32.0192219,63.1028767 C40.3164497,63.1028767 48.1171037,59.8716921 53.984091,54.0047048 C59.8511934,48.1377175 63.0822629,40.3370635 63.0822629,32.0398357 C63.0822629,23.7426079 59.8511934,15.9420691 53.984091,10.0748515 C48.1171037,4.20786418 40.3164497,0.976679606 32.0192219,0.976679606 L32.0192219,0.976679606 Z" id="Fill-1"></path>
                        <path d="M50.5642729,13.9249107 C45.6106267,8.97126456 39.0245747,6.24333312 32.0192219,6.24333312 C25.0138691,6.24333312 18.4278171,8.97126456 13.4742861,13.9249107 C8.52075511,18.8784418 5.79270851,25.4644937 5.79270851,32.4698465 C5.79270851,39.4751993 8.52075511,46.0613664 13.4742861,51.0147823 C18.4278171,55.9684285 25.0138691,58.6963599 32.0192219,58.6963599 C39.0245747,58.6963599 45.6106267,55.9684285 50.5642729,51.0147823 C55.5178039,46.0613664 58.2458505,39.4751993 58.2458505,32.4698465 C58.2458505,25.4644937 55.5178039,18.8784418 50.5642729,13.9249107 L50.5642729,13.9249107 Z" id="Fill-4"></path>
                    </g>
                    <path d="M34.1817558,61.1673525 L32.382716,61.1673525 C32.382716,61.1673525 18.002286,28.8084129 10.7942387,14.3923182 L12.5932785,12.5932785 L34.1817558,61.1673525 Z" id="Path-950" fill="#FFDD2E"></path>
                    <path d="M21.5884774,28.7846365 C21.5884774,28.7846365 21.5884774,17.9903978 14.3923182,12.5932785 C7.19615912,7.19615912 28.7846365,7.19615912 32.382716,12.5932785 C35.9807956,17.9903978 46.7750343,14.3923182 46.7750343,12.5932785 C46.7750343,10.7942387 48.5740741,21.5884774 43.1769547,23.3875171 C37.7798354,25.1865569 34.1817558,23.3875171 30.5836763,23.3875171 C26.9855967,23.3875171 21.5884774,28.7846365 21.5884774,28.7846365 Z" id="Path-951" fill="#FFDD2E"></path>
                    <path d="M56.5721611,47.7847695 C51.0585394,42.6911124 43.6871984,39.5788752 35.5889554,39.5788752 C25.5766603,39.5788752 16.6754866,44.3361514 11.0225154,51.7136228 C16.6332327,56.4926048 23.907269,59.3769212 31.8549735,59.3769212 C41.7918643,59.3769212 50.6756696,54.8681259 56.5721579,47.7847666 Z" id="Oval-153" fill="#FFDD2E"></path>
                    <path d="M35.2136687,44.9371752 C35.2195454,44.9425933 35.2254193,44.9480143 35.2312905,44.9534382 C30.7500188,50.3367199 23.9984163,53.763359 16.4464793,53.763359 C10.406304,53.763359 4.8781097,51.5713075 0.614021126,47.9393294 C0.884081305,47.5868844 1.16389593,47.2423079 1.4530616,46.9060034 C3.72241476,47.9907878 6.14467095,48.8458263 8.69736131,49.4351613 C18.1563537,51.6189417 27.604956,49.7385469 35.2136687,44.9371752 Z" id="Oval-153-Copy-2" fill="#454545" transform="translate(17.922656, 49.350267) rotate(-315.000000) translate(-17.922656, -49.350267) "></path>
                    <ellipse id="Oval-155" fill="#454545" transform="translate(43.176955, 45.875514) rotate(12.000000) translate(-43.176955, -45.875514) " cx="43.1769547" cy="45.8755144" rx="5.39711934" ry="2.69855967"></ellipse>
                    <ellipse id="Oval-155-Copy" fill="#454545" transform="translate(25.186557, 46.775034) rotate(-14.000000) translate(-25.186557, -46.775034) " cx="25.1865569" cy="46.7750343" rx="3.59807956" ry="1.79903978"></ellipse>
                    <ellipse id="Oval-155-Copy-2" fill="#454545" transform="translate(35.882195, 43.002383) rotate(-2.000000) translate(-35.882195, -43.002383) " cx="35.8821948" cy="43.0023828" rx="1.36381267" ry="0.681906333"></ellipse>
                    <ellipse id="Oval-155-Copy-3" fill="#454545" transform="translate(30.485075, 53.796622) rotate(-2.000000) translate(-30.485075, -53.796622) " cx="30.4850755" cy="53.7966215" rx="1.36381267" ry="0.681906333"></ellipse>
                </g>
            </g>
        </g>
    </g>
</svg>