<?xml version="1.0" encoding="UTF-8"?>
<svg width="140px" height="138px" viewBox="0 0 140 138" version="1.1" xmlns="http://www.w3.org/2000/svg" xmlns:xlink="http://www.w3.org/1999/xlink" style="background: #FFFFFF;">
    <!-- Generator: Sketch 42 (36781) - http://www.bohemiancoding.com/sketch -->
    <title>Artboard</title>
    <desc>Created with Sketch.</desc>
    <defs></defs>
    <g id="Page-1" stroke="none" stroke-width="1" fill="none" fill-rule="evenodd">
        <g id="Artboard" fill-rule="nonzero" fill="#393939">
            <g id="Group-7" transform="translate(18.000000, 22.000000)">
                <g id="0204-clipboard-text-copy-2">
                    <g id="Group">
                        <path d="M34,68.25 C34,69.0383911 33.4974365,70 32,70 L5.29411765,70 C2.37529412,70 0,67.6445 0,64.75 L0,15.75 C0,12.8555 2.37529412,10.5 5.29411765,10.5 L8.82352941,10.5 C9.79764706,10.5 10.5882353,11.284 10.5882353,12.25 C10.5882353,13.216 9.79764706,14 8.82352941,14 L5.29411765,14 C4.32,14 3.52941176,14.784 3.52941176,15.75 L3.52941176,64.75 C3.52941176,65.716 4.32,66.5 5.29411765,66.5 L32,66.5 C33.5606689,66.5 34,67.4616089 34,68.25 Z" id="Shape"></path>
                        <path d="M56.4700012,27 L56.4705882,15.75 C56.4705882,14.784 55.68,14 54.7058824,14 L51.1764706,14 C50.2023529,14 49.4117647,13.216 49.4117647,12.25 C49.4117647,11.284 50.2023529,10.5 51.1764706,10.5 L54.7058824,10.5 C57.6247059,10.5 60,12.8555 60,15.75 L60,27 C60,27 60.0579224,29 58.25,29 C56.4420776,29 56.4700012,27 56.4700012,27 Z" id="Shape"></path>
                        <path d="M44.1211765,17.5 C44.1211765,17.5 44.1211765,17.5 44.1176471,17.5 L15.8823529,17.5 C14.9082353,17.5 14.1176471,16.716 14.1176471,15.75 C14.1176471,12.2325 15.7164706,9.499 18.6211765,8.0605 C19.5917647,7.5775 20.5517647,7.315 21.3176471,7.1715 C22.0694118,3.0975 25.6764706,0 29.9964706,0 C34.3164706,0 37.9235294,3.0975 38.6752941,7.1715 C39.4447059,7.315 40.4011765,7.5775 41.3717647,8.0605 C44.2517647,9.4885 45.8470588,12.1835 45.8752941,15.6555 C45.8788235,15.687 45.8788235,15.7185 45.8788235,15.75 C45.8788235,16.716 45.0882353,17.5 44.1141176,17.5 L44.1211765,17.5 Z M17.8588235,14 L42.1411765,14 C41.8023529,12.754 41.0576471,11.8405 39.8894118,11.235 C38.5164706,10.5245 37.0658824,10.5 37.0482353,10.5 C36.0741176,10.5 35.2941176,9.716 35.2941176,8.75 C35.2941176,5.8555 32.9188235,3.5 30,3.5 C27.0811765,3.5 24.7058824,5.8555 24.7058824,8.75 C24.7058824,9.716 23.9152941,10.5 22.9411765,10.5 C22.9376471,10.5 21.4835294,10.5245 20.1105882,11.235 C18.9423529,11.8405 18.1976471,12.7505 17.8588235,14 L17.8588235,14 Z" id="Shape"></path>
                        <path d="M30,10.5 C29.5341176,10.5 29.0788235,10.3145 28.7541176,9.9855 C28.4294118,9.6565 28.2352941,9.2085 28.2352941,8.75 C28.2352941,8.2915 28.4223529,7.8365 28.7541176,7.5145 C29.0823529,7.189 29.5376471,7 30,7 C30.4623529,7 30.9211765,7.1855 31.2458824,7.5145 C31.5741176,7.84 31.7647059,8.2915 31.7647059,8.75 C31.7647059,9.2085 31.5776471,9.66 31.2458824,9.9855 C30.9176471,10.311 30.4623529,10.5 30,10.5 L30,10.5 Z" id="Shape"></path>
                        <path d="M47.6470588,28 L12.3529412,28 C11.3788235,28 10.5882353,27.216 10.5882353,26.25 C10.5882353,25.284 11.3788235,24.5 12.3529412,24.5 L47.6470588,24.5 C48.6211765,24.5 49.4117647,25.284 49.4117647,26.25 C49.4117647,27.216 48.6211765,28 47.6470588,28 Z" id="Shape"></path>
                        <path d="M41,43.5 L12.7647059,43.5 C11.7905882,43.5 11,42.716 11,41.75 C11,40.784 11.7905882,40 12.7647059,40 L41,40 C41.9741176,40 42.7647059,40.784 42.7647059,41.75 C42.7647059,42.716 41.9741176,43.5 41,43.5 Z" id="Shape"></path>
                        <path d="M47.6470588,35.5 L12.3529412,35.5 C11.3788235,35.5 10.5882353,34.716 10.5882353,33.75 C10.5882353,32.784 11.3788235,32 12.3529412,32 L47.6470588,32 C48.6211765,32 49.4117647,32.784 49.4117647,33.75 C49.4117647,34.716 48.6211765,35.5 47.6470588,35.5 Z" id="Shape"></path>
                        <path d="M35.6470588,51.5 L12.3529412,51.5 C11.3788235,51.5 10.5882353,50.716 10.5882353,49.75 C10.5882353,48.784 11.3788235,48 12.3529412,48 L35.6470588,48 C36.6211765,48 37.4117647,48.784 37.4117647,49.75 C37.4117647,50.716 36.6211765,51.5 35.6470588,51.5 Z" id="Shape"></path>
                        <path d="M30,59.5 L12.3529412,59.5 C11.3788235,59.5 10.5882353,58.716 10.5882353,57.75 C10.5882353,56.784 11.3788235,56 12.3529412,56 L30,56 C30.9741176,56 31.7647059,56.784 31.7647059,57.75 C31.7647059,58.716 30.9741176,59.5 30,59.5 Z" id="Shape"></path>
                    </g>
                </g>
                <g id="0295-group-work-copy" transform="translate(34.000000, 24.000000)">
                    <g id="Group">
                        <path d="M45.8095238,22.6345 C45.7954286,22.0535 45.675619,19.453 44.5726667,16.828 C43.8185714,15.029 42.7614286,13.58 41.4329524,12.5265 C41.0946667,12.257 40.7352381,12.0155 40.3652381,11.7985 C41.5562857,10.5455 42.2857143,8.8585 42.2857143,7.0035 C42.2857143,3.143 39.1248571,0.0035 35.2380952,0.0035 C31.3513333,0.0035 28.1904762,3.143 28.1904762,7.0035 C28.1904762,8.8585 28.9234286,10.5455 30.1109524,11.7985 C29.7409524,12.0155 29.3850476,12.257 29.0432381,12.5265 C27.7147619,13.5835 26.657619,15.0325 25.9035238,16.828 C24.6807619,19.7435 24.6666667,22.631 24.6666667,22.75 C24.6666667,23.716 25.456,24.5 26.4285714,24.5 L44.047619,24.5 L44.0511429,24.5 C45.0237143,24.5 45.8130476,23.716 45.8130476,22.75 C45.8130476,22.7115 45.8130476,22.673 45.8095238,22.6345 Z M31.7142857,7 C31.7142857,5.0715 33.2964762,3.5 35.2380952,3.5 C37.1797143,3.5 38.7619048,5.0715 38.7619048,7 C38.7619048,8.9285 37.1797143,10.5 35.2380952,10.5 C33.2964762,10.5 31.7142857,8.9285 31.7142857,7 Z M28.3666667,21 C28.5005714,20.181 28.7401905,19.1695 29.156,18.172 C30.3329524,15.365 32.3239048,14 35.2380952,14 C40.273619,14 41.7113333,18.438 42.1200952,21 L28.3631429,21 L28.3666667,21 Z" id="Shape"></path>
                        <path d="M21.1428571,61.1345 C21.1287619,60.5535 21.0089524,57.953 19.906,55.328 C19.1519048,53.529 18.0947619,52.0835 16.7662857,51.0265 C16.428,50.757 16.0685714,50.5155 15.6985714,50.2985 C16.889619,49.0455 17.6190476,47.3585 17.6190476,45.5035 C17.6190476,41.643 14.4581905,38.5035 10.5714286,38.5035 C6.68466667,38.5035 3.52380952,41.643 3.52380952,45.5035 C3.52380952,47.3585 4.2567619,49.0455 5.44428571,50.2985 C5.07428571,50.5155 4.71838095,50.757 4.37657143,51.0265 C3.04809524,52.0835 1.99095238,53.5325 1.23685714,55.328 C0.0140952381,58.2435 0,61.131 0,61.25 C0,62.216 0.789333333,63 1.76190476,63 L19.3809524,63 L19.3844762,63 C20.3570476,63 21.146381,62.216 21.146381,61.25 C21.146381,61.2115 21.146381,61.173 21.1428571,61.1345 Z M7.04761905,45.5 C7.04761905,43.5715 8.62980952,42 10.5714286,42 C12.5130476,42 14.0952381,43.5715 14.0952381,45.5 C14.0952381,47.4285 12.5130476,49 10.5714286,49 C8.62980952,49 7.04761905,47.4285 7.04761905,45.5 Z M3.7,59.5 C3.83390476,58.681 4.07352381,57.6695 4.48933333,56.672 C5.66628571,53.865 7.6572381,52.5 10.5714286,52.5 C15.6069524,52.5 17.0446667,56.938 17.4534286,59.5 L3.69647619,59.5 L3.7,59.5 Z" id="Shape"></path>
                        <path d="M70.4761905,61.1345 C70.4620952,60.5535 70.3422857,57.953 69.2393333,55.328 C68.4852381,53.529 67.4280952,52.0835 66.099619,51.0265 C65.7613333,50.757 65.4019048,50.5155 65.0319048,50.2985 C66.2229524,49.0455 66.952381,47.3585 66.952381,45.5035 C66.952381,41.643 63.7915238,38.5035 59.9047619,38.5035 C56.018,38.5035 52.8571429,41.643 52.8571429,45.5035 C52.8571429,47.3585 53.5900952,49.0455 54.777619,50.2985 C54.407619,50.5155 54.0517143,50.757 53.7099048,51.0265 C52.3814286,52.0835 51.3242857,53.5325 50.5701905,55.328 C49.3474286,58.2435 49.3333333,61.131 49.3333333,61.25 C49.3333333,62.216 50.1226667,63 51.0952381,63 L68.7142857,63 L68.7178095,63 C69.690381,63 70.4797143,62.216 70.4797143,61.25 C70.4797143,61.2115 70.4797143,61.173 70.4761905,61.1345 L70.4761905,61.1345 Z M56.3809524,45.5 C56.3809524,43.5715 57.9631429,42 59.9047619,42 C61.846381,42 63.4285714,43.5715 63.4285714,45.5 C63.4285714,47.4285 61.846381,49 59.9047619,49 C57.9631429,49 56.3809524,47.4285 56.3809524,45.5 Z M53.0333333,59.5 C53.1672381,58.681 53.4068571,57.6695 53.8226667,56.672 C54.999619,53.865 56.9905714,52.5 59.9047619,52.5 C64.9402857,52.5 66.378,56.938 66.7867619,59.5 L53.0298095,59.5 L53.0333333,59.5 Z" id="Shape"></path>
                        <path d="M35.2380952,70 C30.6571429,70 26.1079048,68.8835 22.0801905,66.7695 C21.220381,66.318 20.8926667,65.2575 21.3472381,64.4035 C21.8018095,63.5495 22.8695238,63.224 23.7293333,63.6755 C27.249619,65.5235 31.228,66.5 35.2380952,66.5 C39.2481905,66.5 43.2265714,65.5235 46.7468571,63.6755 C47.6066667,63.224 48.674381,63.5495 49.1289524,64.4035 C49.5835238,65.2575 49.2558095,66.318 48.396,66.7695 C44.3718095,68.8835 39.8225714,70 35.2380952,70 Z" id="Shape"></path>
                        <path d="M60.7152381,36.75 C59.9435238,36.75 59.2317143,36.2425 59.0167619,35.4655 C57.3817143,29.5855 53.6077143,24.5455 48.3924762,21.2695 C47.5714286,20.7515 47.3247619,19.6735 47.8427619,18.8545 C48.3607619,18.0355 49.449619,17.794 50.2741905,18.3085 C56.2364762,22.05 60.5460952,27.811 62.4137143,34.531 C62.6709524,35.462 62.1212381,36.428 61.1839048,36.6835 C61.0288571,36.7255 60.8702857,36.7465 60.7152381,36.7465 L60.7152381,36.75 Z" id="Shape"></path>
                        <path d="M9.76095238,36.75 C9.60590476,36.75 9.44733333,36.729 9.29228571,36.687 C8.35495238,36.4315 7.8052381,35.4655 8.06247619,34.5345 C9.93009524,27.8145 14.2432381,22.0535 20.202,18.312 C21.0230476,17.7975 22.1119048,18.039 22.6334286,18.858 C23.1549524,19.677 22.9082857,20.755 22.0837143,21.273 C16.8649524,24.5455 13.0909524,29.589 11.4594286,35.469 C11.2444762,36.246 10.5361905,36.7535 9.76095238,36.7535 L9.76095238,36.75 Z" id="Shape"></path>
                    </g>
                </g>
            </g>
        </g>
    </g>
</svg>