<?xml version="1.0" encoding="UTF-8" standalone="no"?>
<svg width="32px" height="26px" viewBox="0 0 32 26" version="1.1" xmlns="http://www.w3.org/2000/svg" xmlns:xlink="http://www.w3.org/1999/xlink" xmlns:sketch="http://www.bohemiancoding.com/sketch/ns">
    <!-- Generator: Sketch 3.3.2 (12043) - http://www.bohemiancoding.com/sketch -->
    <title>Imported Layers 5</title>
    <desc>Created with Sketch.</desc>
    <defs></defs>
    <g id="Page-1" stroke="none" stroke-width="1" fill="none" fill-rule="evenodd" sketch:type="MSPage">
        <g id="Desktop" sketch:type="MSArtboardGroup" transform="translate(-744.000000, -2787.000000)" fill="#454545">
            <path d="M771.187887,2788.0583 C769.898847,2787.38641 768.420339,2787 766.842938,2787 C764.059842,2787 761.567458,2788.19993 759.921718,2790.08151 C758.268203,2788.19993 755.778169,2787 752.991277,2787 C751.417672,2787 749.941876,2787.38641 748.649944,2788.0583 C745.878056,2789.51071 744,2792.30314 744,2795.51226 C744,2796.43099 744.158011,2797.31208 744.444203,2798.13638 C745.987616,2804.70036 759.921718,2812.97879 759.921718,2812.97879 C759.921718,2812.97879 773.846599,2804.70053 775.392181,2798.13638 C775.678373,2797.31208 775.838011,2796.42979 775.838011,2795.51226 C775.838011,2792.30434 773.959955,2789.51276 771.187887,2788.0583" id="Imported-Layers-5" sketch:type="MSShapeGroup"></path>
        </g>
    </g>
</svg>