<?xml version="1.0" encoding="UTF-8" standalone="no"?>
<svg width="81px" height="81px" viewBox="0 0 81 81" version="1.1" xmlns="http://www.w3.org/2000/svg" xmlns:xlink="http://www.w3.org/1999/xlink" xmlns:sketch="http://www.bohemiancoding.com/sketch/ns">
    <!-- Generator: Sketch 3.3.2 (12043) - http://www.bohemiancoding.com/sketch -->
    <title>Rectangle 1 Copy + Imported Layers 5</title>
    <desc>Created with Sketch.</desc>
    <defs></defs>
    <g id="Page-1" stroke="none" stroke-width="1" fill="none" fill-rule="evenodd" sketch:type="MSPage">
        <g id="Desktop" sketch:type="MSArtboardGroup" transform="translate(-724.000000, -3010.000000)">
            <g id="Rectangle-1-Copy-+-Imported-Layers-5" sketch:type="MSLayerGroup" transform="translate(724.000000, 3010.000000)">
                <rect id="Rectangle-1-Copy" fill="#FFDD2E" sketch:type="MSShapeGroup" x="0" y="0" width="81" height="81" rx="92.16"></rect>
                <path d="M52.7367514,29.1804145 C51.3268644,28.4309934 49.7097458,28 47.9844633,28 C44.940452,28 42.2144068,29.3383882 40.4143785,31.4370724 C38.6058475,29.3383882 35.8823729,28 32.834209,28 C31.1130791,28 29.4989266,28.4309934 28.0858757,29.1804145 C25.0541243,30.8004079 23,33.9150461 23,37.4944474 C23,38.5191776 23.1728249,39.5019342 23.4858475,40.4213487 C25.1739548,47.7427039 40.4143785,56.9763421 40.4143785,56.9763421 C40.4143785,56.9763421 55.6447175,47.7428947 57.3351977,40.4213487 C57.6482203,39.5019342 57.8228249,38.5178421 57.8228249,37.4944474 C57.8228249,33.9163816 55.7687006,30.8026974 52.7367514,29.1804145" id="Imported-Layers-5" fill="#454545" sketch:type="MSShapeGroup"></path>
            </g>
        </g>
    </g>
</svg>