<?xml version="1.0" encoding="UTF-8" standalone="no"?>
<svg width="122px" height="122px" viewBox="0 0 122 122" version="1.1" xmlns="http://www.w3.org/2000/svg" xmlns:xlink="http://www.w3.org/1999/xlink" xmlns:sketch="http://www.bohemiancoding.com/sketch/ns">
    <!-- Generator: Sketch 3.3.2 (12043) - http://www.bohemiancoding.com/sketch -->
    <title>Artboard</title>
    <desc>Created with Sketch.</desc>
    <defs></defs>
    <g id="Page-1" stroke="none" stroke-width="1" fill="none" fill-rule="evenodd" sketch:type="MSPage">
        <g id="Artboard" sketch:type="MSArtboardGroup">
            <g id="Rectangle-1-Copy-+-Imported-Layers-5-Copy-Copy" sketch:type="MSLayerGroup">
                <rect id="Rectangle-1-Copy" fill="#FFDD2E" sketch:type="MSShapeGroup" x="0" y="0" width="122" height="122" rx="138.24"></rect>
                <path d="M79.4306626,43.9507477 C77.3071291,42.8219901 74.8714689,42.1728395 72.2728953,42.1728395 C67.6880882,42.1728395 63.5821929,44.1886834 60.8710393,47.3496646 C58.1470789,44.1886834 54.0450555,42.1728395 49.4539939,42.1728395 C46.8616747,42.1728395 44.430482,42.8219901 42.3021832,43.9507477 C37.7358415,46.3907378 34.6419753,51.0819212 34.6419753,56.4731183 C34.6419753,58.0165391 34.9022794,59.4967404 35.3737456,60.8815375 C37.916327,71.908764 60.8710393,85.816219 60.8710393,85.816219 C60.8710393,85.816219 83.8105622,71.9090513 86.3567176,60.8815375 C86.8281837,59.4967404 87.0911683,58.0145276 87.0911683,56.4731183 C87.0911683,51.0839327 83.9973021,46.3941862 79.4306626,43.9507477" id="Imported-Layers-5" fill="#454545" sketch:type="MSShapeGroup"></path>
            </g>
        </g>
    </g>
</svg>