<?xml version="1.0" encoding="UTF-8" standalone="no"?>
<svg width="47px" height="47px" viewBox="0 0 47 47" version="1.1" xmlns="http://www.w3.org/2000/svg" xmlns:xlink="http://www.w3.org/1999/xlink" xmlns:sketch="http://www.bohemiancoding.com/sketch/ns">
    <!-- Generator: Sketch 3.3.2 (12043) - http://www.bohemiancoding.com/sketch -->
    <title>l copy + Oval 282 Copy</title>
    <desc>Created with Sketch.</desc>
    <defs></defs>
    <g id="Page-1" stroke="none" stroke-width="1" fill="none" fill-rule="evenodd" sketch:type="MSPage">
        <g id="Blog" sketch:type="MSArtboardGroup" transform="translate(-267.000000, -1560.000000)">
            <g id="f-copy-+-Oval-282-+-l-copy-+-Oval-282-Copy-+-i-copy-+-Oval-282-Copy-2" sketch:type="MSLayerGroup" transform="translate(209.000000, 1561.000000)">
                <g id="l-copy-+-Oval-282-Copy" transform="translate(59.000000, 0.000000)" sketch:type="MSShapeGroup">
                    <path d="M33.126,16.972 C32.7393314,17.1266674 32.3526686,17.2523329 31.966,17.349 C31.5793314,17.4456671 31.1733355,17.5326663 30.748,17.61 C31.1733355,17.339332 31.5406651,17.0106686 31.85,16.624 C32.1593349,16.2373314 32.4106657,15.8120023 32.604,15.348 C32.1786645,15.5413343 31.7436689,15.7346657 31.299,15.928 C30.8543311,16.1213343 30.3806692,16.2566663 29.878,16.334 C29.5299983,15.9086645 29.1046692,15.5800012 28.602,15.348 C28.0993308,15.1159988 27.5386698,15 26.92,15 C25.7986611,15 24.8320041,15.4059959 24.02,16.218 C23.2079959,17.0300041 22.802,18.0159942 22.802,19.176 C22.802,19.4080012 22.8406663,19.7173314 22.918,20.104 C21.1779913,20.0266663 19.5830072,19.6013372 18.133,18.828 C16.6829927,18.0546628 15.4360052,17.0300064 14.392,15.754 C14.0439983,16.4113366 13.87,17.1073297 13.87,17.842 C13.87,19.3886744 14.4693273,20.5293297 15.668,21.264 C14.9719965,21.264 14.353336,21.1093349 13.812,20.8 L13.812,20.858 C13.812,21.8633384 14.1213302,22.7429962 14.74,23.497 C15.3586698,24.2510038 16.1319954,24.7246657 17.06,24.918 C16.9053326,24.9566669 16.7410009,24.9856666 16.567,25.005 C16.3929991,25.0243334 16.1900012,25.034 15.958,25.034 C15.8033326,25.034 15.5713349,24.9953337 15.262,24.918 C15.4940012,25.7300041 15.9579965,26.406664 16.654,26.948 C17.3500035,27.489336 18.1619954,27.7793331 19.09,27.818 C17.6206593,28.9780058 15.919343,29.558 13.986,29.558 L13,29.558 C13.8893378,30.1380029 14.8753279,30.5923317 15.958,30.921 C17.0406721,31.2496683 18.1619942,31.414 19.322,31.414 C21.2166761,31.414 22.8986593,31.0563369 24.368,30.341 C25.8373407,29.6256631 27.0649951,28.7073389 28.051,27.586 C29.0370049,26.4646611 29.7813308,25.208007 30.284,23.816 C30.7866692,22.423993 31.038,21.032007 31.038,19.64 L31.038,19.118 C31.4633355,18.8086651 31.8499983,18.4703352 32.198,18.103 C32.5460017,17.7356648 32.855332,17.3586686 33.126,16.972 L33.126,16.972 Z" id="l-copy" fill="#454545"></path>
                    <circle id="Oval-282-Copy" stroke="#454545" cx="22.5" cy="22.5" r="22.5"></circle>
                </g>
            </g>
        </g>
    </g>
</svg>