<?xml version="1.0" encoding="utf-8"?>
<!-- Generator: Adobe Illustrator 18.1.1, SVG Export Plug-In . SVG Version: 6.00 Build 0)  -->
<svg version="1.1" id="Layer_1" xmlns="http://www.w3.org/2000/svg" xmlns:xlink="http://www.w3.org/1999/xlink" x="0px" y="0px"
	 viewBox="0 0 400 100" enable-background="new 0 0 400 100" xml:space="preserve">
<g>
	<g>
		<path fill="#FFFFFF" d="M104.3,43.8v-3.9h-4v24.1h4V54c0-7,4.4-10.2,8.9-10.2h0.9v-4.2l-1.3,0C109.5,39.6,106.4,41.1,104.3,43.8z"
			/>
		<rect x="120.5" y="31.2" fill="#FFFFFF" width="4.6" height="4.8"/>
		<rect x="120.8" y="39.9" fill="#FFFFFF" width="4" height="24.1"/>
		<polygon fill="#FFFFFF" points="143.8,58.3 136,39.9 131.4,39.9 142.2,64.2 145.3,64.2 156.1,39.9 151.6,39.9 		"/>
		<path fill="#FFFFFF" d="M171,39.4c-6.4,0-11.5,5.5-11.5,12.6c0,7.1,5.1,12.5,11.8,12.5c5.1,0,7.9-2.4,9.9-4.5l0.7-0.7l-2.9-2.6
			l-0.6,0.7c-2,2.2-4.2,3.2-6.9,3.2c-3.2,0-6.9-2.2-7.7-6.9H182l0.1-0.8c0.1-0.4,0.1-0.6,0.1-1C182.2,44.6,177.6,39.4,171,39.4z
			 M177.9,50h-14c0.7-4,3.6-6.7,7.1-6.7C175.3,43.3,177.3,46.6,177.9,50z"/>
		<path fill="#FFFFFF" d="M201.9,39.6c-3.3,0-6.4,1.6-8.5,4.2v-3.9h-4v24.1h4V54c0-7,4.4-10.2,8.9-10.2h0.9v-4.2L201.9,39.6z"/>
	</g>
	<g>
		<path fill="#FFFFFF" d="M222.8,61.6c-5.1,0-9.1-4.3-9.1-9.6v-0.1c0-5.3,3.9-9.5,9-9.5c3.3,0,5.5,1.7,7.4,3.7l1.5-1.6
			c-2.1-2.2-4.7-4.1-8.9-4.1c-6.4,0-11.3,5.4-11.3,11.6v0.1c0,6.2,4.9,11.5,11.3,11.5c4.1,0,6.8-1.8,9.1-4.4l-1.5-1.3
			C228.3,60,225.9,61.6,222.8,61.6z"/>
		<path fill="#FFFFFF" d="M250.7,40.4c-4.1,0-6.5,2-8,4.7V31.3h-2.1v31.8h2.1V50.3c0-4.6,3.4-7.9,7.7-7.9c4.5,0,7.1,3,7.1,7.6v13.2
			h2.1V49.5C259.6,44.2,256.3,40.4,250.7,40.4z"/>
		<path fill="#FFFFFF" d="M286.6,53.7c0,4.6-3.4,7.9-7.7,7.9c-4.5,0-7.1-3-7.1-7.6V40.9h-2.1v13.6c0,5.3,3.3,9.1,8.9,9.1
			c4,0,6.5-2,8-4.7v4.1h2.1V40.9h-2.1V53.7z"/>
		<path fill="#FFFFFF" d="M301.8,47.2v-6.3h-2.1v22.2h2.1V54c0-7.2,4.5-11.1,9.6-11.1h0.2v-2.4C307.2,40.4,303.5,43.2,301.8,47.2z"
			/>
		<path fill="#FFFFFF" d="M328.7,61.6c-5.1,0-9.1-4.3-9.1-9.6v-0.1c0-5.3,3.9-9.5,9-9.5c3.3,0,5.5,1.7,7.4,3.7l1.5-1.6
			c-2.1-2.2-4.7-4.1-8.9-4.1c-6.4,0-11.3,5.4-11.3,11.6v0.1c0,6.2,4.9,11.5,11.3,11.5c4.1,0,6.8-1.8,9.1-4.4l-1.5-1.3
			C334.3,60,331.9,61.6,328.7,61.6z"/>
		<path fill="#FFFFFF" d="M359.2,40.4c-4.1,0-6.5,2-8,4.7V31.3H349v31.8h2.1V50.3c0-4.6,3.4-7.9,7.7-7.9c4.5,0,7.1,3,7.1,7.6v13.2
			h2.1V49.5C368.1,44.2,364.8,40.4,359.2,40.4z"/>
	</g>
	<g>
		<g>
			<path fill="none" stroke="#FFFFFF" stroke-miterlimit="10" d="M56.2,41.2c-5.4,2.4-11.4,5.3-14.4,7.2c1.3,0.3,3.4,0.7,5.6,1.2
				c2.2,0.4,4.4,0.9,6,1.3c1.8,0.4,3.9,0.8,6.2,1.3c2.9-1.8,6.3-4,7.9-5.2C64.8,46.1,60,43.5,56.2,41.2z"/>
		</g>
		<g>
			<path fill="none" stroke="#FFFFFF" stroke-miterlimit="10" d="M38.9,55.7c0.4,2.8,1.9,5.1,3.9,6.3c0.3,0.1,0.7,0.2,1.2,0.3
				c0.9-0.5,3.2-2.1,5.3-3.5c3.1-2.1,6.7-4.5,8.6-5.6c0.2-0.1,0.4-0.2,0.7-0.4c-2-0.4-3.8-0.8-5.4-1.1c-1.6-0.4-3.8-0.8-6-1.3
				c-2.7-0.6-5.3-1.1-6.3-1.4c-0.3,0.3-0.6,0.5-0.8,0.7C39.1,51,38.6,53.3,38.9,55.7z"/>
		</g>
		<g>
			<path fill="none" stroke="#FFFFFF" stroke-miterlimit="10" d="M51.3,31.8C50.7,32,50,33.1,50,34.4c0,1.2,0.5,2.2,1.3,2.9
				c0.5,0.4,2.5,1.7,4.9,3.1c4.3-1.9,8.2-3.5,9.8-4C62.4,34.8,53.3,30.9,51.3,31.8z"/>
		</g>
		<g>
			<path fill="none" stroke="#FFFFFF" stroke-miterlimit="10" d="M49.8,59.5c-2.1,1.4-3.6,2.4-4.6,3.1c2.6,0.5,6.5,1,10.2,1.5
				l18.7,2.3c0,0,2.5,0.3,4-1c0.8-0.7,1.2-1.8,1.2-3.2c0-5.3-4.2-6-4.2-6l0,0c-0.5-0.1-3.2-0.7-6.5-1.3c-2.6-0.5-5.8-1.1-8.8-1.7
				c-0.5,0.3-1,0.6-1.4,0.8C56.4,54.9,52.9,57.3,49.8,59.5z"/>
		</g>
		<g>
			<path fill="none" stroke="#FFFFFF" stroke-miterlimit="10" d="M69.8,40.2c-0.3-1.9-1.7-3.3-2.8-3.3c-0.1,0-0.1,0-0.2,0
				c-1,0.2-5.1,1.9-9.8,3.9c3.9,2.3,8.8,4.9,11.3,5.6c0.1-0.1,0.2-0.1,0.2-0.2C69.1,45.7,70.5,43.9,69.8,40.2z"/>
		</g>
		<g>
			<path fill="none" stroke="#FFFFFF" stroke-miterlimit="10" d="M78.6,65.9c-1.2,1-2.8,1.2-3.8,1.2c-0.5,0-0.8,0-0.8,0l-18.7-2.3
				c-1.5-0.2-7.7-0.9-11.1-1.6c-0.7-0.1-1.3-0.3-1.7-0.4c-0.2-0.1-0.4-0.2-0.5-0.3l0,0c-2-1.4-3.4-3.7-3.9-6.6
				c-0.4-2.6,0.1-5.1,1.4-6.6c1.4-1.6,9-5.4,15.8-8.4c-2.3-1.3-4-2.5-4.5-2.9c-1-0.8-1.6-2-1.6-3.5c0-1.5,0.7-2.9,1.8-3.4
				c2-0.9,9,1.9,15.6,4.7c0.5,0.2,0.9,0.4,1.2,0.5l0,0c1.3,0.4,2.5,2,2.8,3.8c0.7,4.1-0.8,6.1-1.5,6.8c-0.3,0.3-4.5,3.2-8.3,5.6
				c2.7,0.5,5.5,1.1,7.9,1.5c3.4,0.7,5.9,1.1,6.5,1.3c0.4,0.1,4.9,1.1,4.9,6.8C80.1,63.7,79.6,65,78.6,65.9z"/>
		</g>
	</g>
</g>
<rect x="31.7" y="22.3" fill="none" stroke="#FFFFFF" stroke-width="2" stroke-miterlimit="10" width="54.7" height="55"/>
</svg>
