<?xml version="1.0" encoding="UTF-8" standalone="no"?>
<svg width="264px" height="40px" viewBox="0 0 264 40" version="1.1" xmlns="http://www.w3.org/2000/svg" xmlns:xlink="http://www.w3.org/1999/xlink" xmlns:sketch="http://www.bohemiancoding.com/sketch/ns">
    <!-- Generator: Sketch 3.3.2 (12043) - http://www.bohemiancoding.com/sketch -->
    <title>Group</title>
    <desc>Created with Sketch.</desc>
    <defs></defs>
    <g id="Page-1" stroke="none" stroke-width="1" fill="none" fill-rule="evenodd" sketch:type="MSPage">
        <g id="Home-" sketch:type="MSArtboardGroup" transform="translate(-230.000000, -502.000000)" fill="#FFFFFF">
            <g id="Group" sketch:type="MSLayerGroup" transform="translate(230.000000, 502.000000)">
                <path d="M0.686450582,14.0233288 L0.686450582,8.86508182 C0.686450582,4.10277388 4.7288081,0.122040816 9.685237,0.122040816 L27.7504643,0.122040816 L27.7504643,7.17093364 L11.4464606,7.17093364 C9.22930437,7.17093364 8.12403543,8.93205293 8.12403543,11.0832237 L8.12403543,11.8699502 C8.12403543,14.0233288 9.22930437,15.7837122 11.4464606,15.7837122 L20.9033858,15.7837122 C26.1863213,15.7837122 30.4235532,19.9616788 30.4235532,25.1162461 L30.4235532,30.5968375 C30.4235532,35.7528767 26.1863213,39.8631363 20.9033858,39.8631363 L1.73141875,39.8631363 L1.73141875,32.8149794 L19.467198,32.8149794 C21.8174572,32.8149794 22.9889099,30.2038422 22.9889099,27.922409 L22.9889099,27.66262 C22.9889099,25.3112718 21.8174572,22.7678417 19.467198,22.8340769 L9.685237,22.8340769 C4.7288081,22.8340769 0.686450582,18.7834289 0.686450582,14.0233288" id="Fill-6" sketch:type="MSShapeGroup"></path>
                <path d="M34.2063233,0.122040816 L41.7086212,0.122040816 L41.7086212,39.8631363 L34.2063233,39.8631363 L34.2063233,0.122040816 Z M50.8338921,18.2005595 C50.6375469,18.4610845 50.5743047,18.7201376 50.5743047,19.0468977 C50.5743047,19.3096305 50.6375469,19.5017124 50.7706498,19.6982101 L64.7898428,39.8631363 L55.9182763,39.8631363 L43.0756837,21.3312747 C42.4851774,20.7425177 42.1638184,19.8954437 42.1638184,19.0468977 C42.1638184,18.2005595 42.4851774,17.4800682 42.8778677,16.8287558 L54.3548686,0.122040816 L63.2234936,0.122040816 L50.8338921,18.2005595 L50.8338921,18.2005595 Z" id="Fill-7" sketch:type="MSShapeGroup"></path>
                <path d="M86.2451499,0.122040816 C92.5017221,0.122040816 97.5258055,5.14560966 97.5258055,11.4129276 L97.5258055,27.4006231 C97.5258055,34.3177816 91.9825472,39.8631363 85.0670788,39.8631363 L76.6565925,39.8631363 C69.6800879,39.8631363 64.1397711,34.3177816 64.1397711,27.4006231 L64.1397711,11.4129276 C64.1397711,5.14560966 69.2226845,0.122040816 75.4196914,0.122040816 L86.2451499,0.122040816 L86.2451499,0.122040816 Z M90.0889561,13.0430485 C90.0889561,9.78133485 87.2879119,7.10396253 83.8345899,7.10396253 L77.8331929,7.10396253 C74.3776648,7.10396253 71.6376567,9.78133485 71.6376567,13.0430485 L71.6376567,26.0935827 C71.6376567,29.8159986 74.6394583,32.8812146 78.5501837,32.8812146 L83.180106,32.8812146 C87.0261183,32.8812146 90.0889561,29.8159986 90.0889561,26.0935827 L90.0889561,13.0430485 L90.0889561,13.0430485 Z" id="Fill-8" sketch:type="MSShapeGroup"></path>
                <path d="M124.588349,0.122040816 C130.847862,0.122040816 135.868269,5.14560966 135.868269,11.4129276 L135.868269,27.4006231 C135.868269,34.3177816 130.325746,39.8631363 123.411748,39.8631363 L115.004203,39.8631363 C108.025493,39.8631363 102.48297,34.3177816 102.48297,27.4006231 L102.48297,11.4129276 C102.48297,5.14560966 107.567354,0.122040816 113.763625,0.122040816 L124.588349,0.122040816 L124.588349,0.122040816 Z M128.434361,13.0430485 C128.434361,9.78133485 125.628904,7.10396253 122.174847,7.10396253 L116.174185,7.10396253 C112.720128,7.10396253 109.980855,9.78133485 109.980855,13.0430485 L109.980855,26.0935827 C109.980855,29.8159986 112.981186,32.8812146 116.893382,32.8812146 L121.523305,32.8812146 C125.369317,32.8812146 128.434361,29.8159986 128.434361,26.0935827 L128.434361,13.0430485 L128.434361,13.0430485 Z" id="Fill-9" sketch:type="MSShapeGroup"></path>
                <path d="M141.087227,0.122040816 L148.585848,0.122040816 L148.585848,39.8631363 L141.087227,39.8631363 L141.087227,0.122040816 Z M157.717002,18.2005595 C157.520656,18.4610845 157.455208,18.7201376 157.455208,19.0468977 C157.455208,19.3096305 157.520656,19.5017124 157.649347,19.6982101 L171.66854,39.8631363 L162.802857,39.8631363 L149.956587,21.3312747 C149.370493,20.7425177 149.041045,19.8954437 149.041045,19.0468977 C149.041045,18.2005595 149.370493,17.4800682 149.758771,16.8287558 L161.237978,0.122040816 L170.104397,0.122040816 L157.717002,18.2005595 L157.717002,18.2005595 Z" id="Fill-10" sketch:type="MSShapeGroup"></path>
                <path d="M196.116089,0.122040816 L203.616916,0.122040816 L203.616916,28.4412511 C203.616916,34.7100409 198.530326,39.8631363 192.268606,39.8631363 L184.577316,39.8631363 C178.379574,39.8631363 173.294455,34.7100409 173.294455,28.4412511 L173.294455,0.122040816 L180.726892,0.122040816 L180.726892,27.334388 C180.726892,30.2708134 183.403658,32.8149794 186.531944,32.8149794 L190.377956,32.8149794 C193.508448,32.8149794 196.116089,30.2708134 196.116089,27.334388 L196.116089,0.122040816" id="Fill-11" sketch:type="MSShapeGroup"></path>
                <path d="M221.485063,32.8812146 L216.397737,8.08497883 L216.334495,7.69198356 C216.266105,7.36743128 216.072701,7.10396253 215.683688,7.10396253 C215.485872,7.10396253 215.095388,7.36743128 215.095388,8.08497883 L215.095388,39.8631363 L207.657803,39.8631363 L207.657803,7.10396253 C208.052699,3.31972711 210.725053,0.122040816 214.312213,0.122040816 L217.182382,0.122040816 C221.093843,0.122040816 222.852125,3.19093652 223.574999,7.10396253 L228.007841,31.3828281 C228.007841,31.9031421 228.329935,32.0989037 228.52628,32.0989037 C228.721155,32.0989037 228.982948,31.9031421 229.048397,31.3828281 L233.483445,7.10396253 C234.201171,3.19093652 236.024166,0.122040816 239.875326,0.122040816 L242.741819,0.122040816 C246.326037,0.122040816 249.002803,3.31972711 249.394023,7.10396253 L249.394023,39.8631363 L241.893931,39.8631363 L241.893931,8.08497883 C241.893931,7.36743128 241.502711,7.10396253 241.308572,7.10396253 C241.048249,7.10396253 240.721743,7.36743128 240.656294,7.69198356 L240.590111,8.08497883 L235.505726,32.8812146 C234.722552,36.7949765 233.809216,39.8631363 229.961733,39.8631363 L227.027586,39.8631363 C223.181573,39.8631363 222.202054,36.6021586 221.485063,32.8812146" id="Fill-12" sketch:type="MSShapeGroup"></path>
                <path d="M261.81319,5.38434783 L260.77915,3.97913043 C261.240276,3.82608696 261.491799,3.40869565 261.491799,2.99130435 C261.491799,2.28173913 261.05862,1.97565217 259.773057,1.97565217 L259.060408,1.97565217 L259.060408,5.38434783 L259.731137,5.38434783 L259.731137,4.00695652 L259.968687,4.00695652 L261.002726,5.38434783 L261.81319,5.38434783 Z M260.793124,3.00521739 C260.793124,3.47826087 260.345971,3.50608696 259.731137,3.50608696 L259.731137,2.51826087 C260.513653,2.51826087 260.793124,2.57391304 260.793124,3.00521739 L260.793124,3.00521739 Z M257.07617,3.64521739 C257.07617,5.39826087 258.501468,6.8173913 260.26213,6.8173913 C262.022792,6.8173913 263.448091,5.39826087 263.448091,3.64521739 C263.448091,1.89217391 262.022792,0.473043478 260.26213,0.473043478 C258.501468,0.473043478 257.07617,1.89217391 257.07617,3.64521739 L257.07617,3.64521739 Z M257.774845,3.64521739 C257.774845,2.28173913 258.892726,1.15478261 260.26213,1.15478261 C261.631534,1.15478261 262.749415,2.28173913 262.749415,3.64521739 C262.749415,5.00869565 261.631534,6.13565217 260.26213,6.13565217 C258.892726,6.13565217 257.774845,5.00869565 257.774845,3.64521739 L257.774845,3.64521739 Z" id="®" sketch:type="MSShapeGroup"></path>
            </g>
        </g>
    </g>
</svg>