<?xml version="1.0" encoding="UTF-8" standalone="no"?>
<svg width="264px" height="40px" viewBox="0 0 264 40" version="1.1" xmlns="http://www.w3.org/2000/svg" xmlns:xlink="http://www.w3.org/1999/xlink" xmlns:sketch="http://www.bohemiancoding.com/sketch/ns">
    <!-- Generator: Sketch 3.3.2 (12043) - http://www.bohemiancoding.com/sketch -->
    <title>Group + ®</title>
    <desc>Created with Sketch.</desc>
    <defs></defs>
    <g id="Page-1" stroke="none" stroke-width="1" fill="none" fill-rule="evenodd" sketch:type="MSPage">
        <g id="Home-" sketch:type="MSArtboardGroup" transform="translate(-230.000000, -502.000000)" fill="#FFFFFF">
            <g id="Group-+-®" sketch:type="MSLayerGroup" transform="translate(230.000000, 502.000000)">
                <g id="Group" transform="translate(0.402870, 0.000000)" sketch:type="MSShapeGroup">
                    <path d="M0.283580825,14.0233288 L0.283580825,8.86508182 C0.283580825,4.10277388 4.32593834,0.122040816 9.28236724,0.122040816 L27.3475946,0.122040816 L27.3475946,7.17093364 L11.0435909,7.17093364 C8.82643461,7.17093364 7.72116567,8.93205293 7.72116567,11.0832237 L7.72116567,11.8699502 C7.72116567,14.0233288 8.82643461,15.7837122 11.0435909,15.7837122 L20.500516,15.7837122 C25.7834515,15.7837122 30.0206835,19.9616788 30.0206835,25.1162461 L30.0206835,30.5968375 C30.0206835,35.7528767 25.7834515,39.8631363 20.500516,39.8631363 L1.328549,39.8631363 L1.328549,32.8149794 L19.0643283,32.8149794 C21.4145874,32.8149794 22.5860401,30.2038422 22.5860401,27.922409 L22.5860401,27.66262 C22.5860401,25.3112718 21.4145874,22.7678417 19.0643283,22.8340769 L9.28236724,22.8340769 C4.32593834,22.8340769 0.283580825,18.7834289 0.283580825,14.0233288" id="Fill-6"></path>
                    <path d="M33.8034535,0.122040816 L41.3057514,0.122040816 L41.3057514,39.8631363 L33.8034535,39.8631363 L33.8034535,0.122040816 Z M50.4310224,18.2005595 C50.2346772,18.4610845 50.1714349,18.7201376 50.1714349,19.0468977 C50.1714349,19.3096305 50.2346772,19.5017124 50.3677801,19.6982101 L64.386973,39.8631363 L55.5154065,39.8631363 L42.6728139,21.3312747 C42.0823076,20.7425177 41.7609487,19.8954437 41.7609487,19.0468977 C41.7609487,18.2005595 42.0823076,17.4800682 42.474998,16.8287558 L53.9519988,0.122040816 L62.8206238,0.122040816 L50.4310224,18.2005595 L50.4310224,18.2005595 Z" id="Fill-7"></path>
                    <path d="M85.8422801,0.122040816 C92.0988524,0.122040816 97.1229358,5.14560966 97.1229358,11.4129276 L97.1229358,27.4006231 C97.1229358,34.3177816 91.5796775,39.8631363 84.664209,39.8631363 L76.2537228,39.8631363 C69.2772182,39.8631363 63.7369014,34.3177816 63.7369014,27.4006231 L63.7369014,11.4129276 C63.7369014,5.14560966 68.8198148,0.122040816 75.0168217,0.122040816 L85.8422801,0.122040816 L85.8422801,0.122040816 Z M89.6860863,13.0430485 C89.6860863,9.78133485 86.8850421,7.10396253 83.4317202,7.10396253 L77.4303231,7.10396253 C73.974795,7.10396253 71.234787,9.78133485 71.234787,13.0430485 L71.234787,26.0935827 C71.234787,29.8159986 74.2365886,32.8812146 78.1473139,32.8812146 L82.7772362,32.8812146 C86.6232486,32.8812146 89.6860863,29.8159986 89.6860863,26.0935827 L89.6860863,13.0430485 L89.6860863,13.0430485 Z" id="Fill-8"></path>
                    <path d="M124.185479,0.122040816 C130.444993,0.122040816 135.465399,5.14560966 135.465399,11.4129276 L135.465399,27.4006231 C135.465399,34.3177816 129.922876,39.8631363 123.008878,39.8631363 L114.601334,39.8631363 C107.622623,39.8631363 102.0801,34.3177816 102.0801,27.4006231 L102.0801,11.4129276 C102.0801,5.14560966 107.164484,0.122040816 113.360756,0.122040816 L124.185479,0.122040816 L124.185479,0.122040816 Z M128.031491,13.0430485 C128.031491,9.78133485 125.226035,7.10396253 121.771977,7.10396253 L115.771316,7.10396253 C112.317258,7.10396253 109.577986,9.78133485 109.577986,13.0430485 L109.577986,26.0935827 C109.577986,29.8159986 112.578317,32.8812146 116.490513,32.8812146 L121.120435,32.8812146 C124.966447,32.8812146 128.031491,29.8159986 128.031491,26.0935827 L128.031491,13.0430485 L128.031491,13.0430485 Z" id="Fill-9"></path>
                    <path d="M140.684357,0.122040816 L148.182978,0.122040816 L148.182978,39.8631363 L140.684357,39.8631363 L140.684357,0.122040816 Z M157.314132,18.2005595 C157.117787,18.4610845 157.052338,18.7201376 157.052338,19.0468977 C157.052338,19.3096305 157.117787,19.5017124 157.246477,19.6982101 L171.26567,39.8631363 L162.399987,39.8631363 L149.553717,21.3312747 C148.967623,20.7425177 148.638175,19.8954437 148.638175,19.0468977 C148.638175,18.2005595 148.967623,17.4800682 149.355901,16.8287558 L160.835108,0.122040816 L169.701527,0.122040816 L157.314132,18.2005595 L157.314132,18.2005595 Z" id="Fill-10"></path>
                    <path d="M195.713219,0.122040816 L203.214046,0.122040816 L203.214046,28.4412511 C203.214046,34.7100409 198.127456,39.8631363 191.865736,39.8631363 L184.174447,39.8631363 C177.976704,39.8631363 172.891585,34.7100409 172.891585,28.4412511 L172.891585,0.122040816 L180.324022,0.122040816 L180.324022,27.334388 C180.324022,30.2708134 183.000788,32.8149794 186.129074,32.8149794 L189.975086,32.8149794 C193.105579,32.8149794 195.713219,30.2708134 195.713219,27.334388 L195.713219,0.122040816" id="Fill-11"></path>
                    <path d="M221.082193,32.8812146 L215.994867,8.08497883 L215.931625,7.69198356 C215.863235,7.36743128 215.669831,7.10396253 215.280818,7.10396253 C215.083002,7.10396253 214.692518,7.36743128 214.692518,8.08497883 L214.692518,39.8631363 L207.254933,39.8631363 L207.254933,7.10396253 C207.649829,3.31972711 210.322183,0.122040816 213.909343,0.122040816 L216.779513,0.122040816 C220.690973,0.122040816 222.449256,3.19093652 223.172129,7.10396253 L227.604971,31.3828281 C227.604971,31.9031421 227.927065,32.0989037 228.123411,32.0989037 C228.318285,32.0989037 228.580079,31.9031421 228.645527,31.3828281 L233.080575,7.10396253 C233.798301,3.19093652 235.621296,0.122040816 239.472456,0.122040816 L242.338949,0.122040816 C245.923168,0.122040816 248.599933,3.31972711 248.991153,7.10396253 L248.991153,39.8631363 L241.491061,39.8631363 L241.491061,8.08497883 C241.491061,7.36743128 241.099842,7.10396253 240.905702,7.10396253 C240.64538,7.10396253 240.318873,7.36743128 240.253425,7.69198356 L240.187241,8.08497883 L235.102857,32.8812146 C234.319682,36.7949765 233.406346,39.8631363 229.558863,39.8631363 L226.624716,39.8631363 C222.778704,39.8631363 221.799184,36.6021586 221.082193,32.8812146" id="Fill-12"></path>
                </g>
                <path d="M261.81319,5.38434783 L260.77915,3.97913043 C261.240276,3.82608696 261.491799,3.40869565 261.491799,2.99130435 C261.491799,2.28173913 261.05862,1.97565217 259.773057,1.97565217 L259.060408,1.97565217 L259.060408,5.38434783 L259.731137,5.38434783 L259.731137,4.00695652 L259.968687,4.00695652 L261.002726,5.38434783 L261.81319,5.38434783 Z M260.793124,3.00521739 C260.793124,3.47826087 260.345971,3.50608696 259.731137,3.50608696 L259.731137,2.51826087 C260.513653,2.51826087 260.793124,2.57391304 260.793124,3.00521739 L260.793124,3.00521739 Z M257.07617,3.64521739 C257.07617,5.39826087 258.501468,6.8173913 260.26213,6.8173913 C262.022792,6.8173913 263.448091,5.39826087 263.448091,3.64521739 C263.448091,1.89217391 262.022792,0.473043478 260.26213,0.473043478 C258.501468,0.473043478 257.07617,1.89217391 257.07617,3.64521739 L257.07617,3.64521739 Z M257.774845,3.64521739 C257.774845,2.28173913 258.892726,1.15478261 260.26213,1.15478261 C261.631534,1.15478261 262.749415,2.28173913 262.749415,3.64521739 C262.749415,5.00869565 261.631534,6.13565217 260.26213,6.13565217 C258.892726,6.13565217 257.774845,5.00869565 257.774845,3.64521739 L257.774845,3.64521739 Z" id="®" sketch:type="MSShapeGroup"></path>
            </g>
        </g>
    </g>
</svg>