<?xml version="1.0" standalone="no"?>
<!DOCTYPE svg PUBLIC "-//W3C//DTD SVG 20010904//EN"
 "http://www.w3.org/TR/2001/REC-SVG-20010904/DTD/svg10.dtd">
<svg version="1.0" xmlns="http://www.w3.org/2000/svg"
 width="16.000000pt" height="16.000000pt" viewBox="0 0 16.000000 16.000000"
 preserveAspectRatio="xMidYMid meet">
<metadata>
Created by potrace 1.11, written by Peter Selinger 2001-2013
</metadata>
<g transform="translate(0.000000,16.000000) scale(0.000675,-0.000675)"
fill="#000000" stroke="none">
<path d="M8203 21931 c-57 -20 -119 -57 -162 -99 -23 -22 -131 -185 -131 -197
0 -2 -24 -43 -54 -92 -29 -48 -201 -335 -381 -638 -180 -302 -360 -604 -400
-670 -40 -66 -206 -345 -370 -620 -163 -275 -316 -531 -340 -570 -49 -82 -313
-523 -326 -545 -10 -18 -36 -62 -262 -440 -94 -157 -175 -294 -181 -305 -6
-11 -19 -31 -28 -45 -8 -14 -129 -216 -268 -450 -139 -234 -274 -460 -301
-503 -27 -43 -49 -80 -49 -83 0 -3 -16 -30 -35 -60 -19 -30 -35 -59 -35 -64 0
-6 -4 -10 -9 -10 -5 0 -11 -8 -15 -17 -3 -10 -14 -31 -23 -48 -10 -16 -92
-154 -182 -305 -90 -151 -174 -291 -186 -310 -26 -41 -155 -256 -171 -285 -12
-21 -479 -804 -578 -968 -11 -18 -24 -41 -30 -52 -6 -11 -19 -31 -27 -45 -19
-28 -356 -594 -373 -625 -18 -32 -543 -911 -602 -1007 -30 -48 -54 -90 -54
-93 0 -3 -9 -18 -19 -33 -17 -25 -261 -431 -285 -477 -6 -11 -19 -31 -27 -45
-19 -30 -237 -396 -253 -425 -6 -11 -16 -27 -22 -35 -7 -8 -21 -31 -32 -51
-19 -34 -184 -311 -529 -887 -89 -150 -163 -277 -163 -283 0 -5 -4 -9 -10 -9
-5 0 -10 -4 -10 -9 0 -4 -25 -48 -55 -97 -30 -49 -60 -100 -68 -114 -18 -34
-114 -196 -142 -240 -12 -19 -39 -64 -60 -100 -21 -36 -48 -81 -60 -100 -12
-19 -75 -125 -141 -235 -65 -110 -124 -209 -131 -220 -7 -11 -17 -29 -23 -40
-15 -27 -41 -71 -135 -227 -394 -658 -395 -661 -398 -733 -1 -37 4 -50 26 -73
25 -25 34 -27 100 -26 71 1 117 14 402 109 39 13 185 60 325 105 140 45 273
88 295 95 44 15 597 194 795 256 69 22 150 48 180 59 30 10 156 51 280 90 124
40 266 85 315 102 50 16 95 31 100 32 6 1 24 7 40 13 17 6 118 39 225 73 107
34 213 68 235 75 22 8 175 57 340 110 165 53 318 102 340 110 36 12 378 122
660 212 61 19 135 43 165 54 68 23 531 172 545 175 6 2 53 17 105 34 52 17
214 69 360 116 267 86 363 117 610 197 74 24 187 61 250 81 173 56 325 133
495 250 402 277 761 710 898 1081 28 76 149 413 174 485 8 25 19 54 24 65 8
19 47 129 164 460 29 83 60 168 68 190 9 22 73 200 142 395 69 195 129 364
134 375 5 11 16 40 24 65 9 25 34 97 57 160 23 63 55 153 72 200 54 154 79
224 98 275 10 28 52 145 94 260 41 116 106 298 144 405 39 107 116 323 172
480 56 157 105 294 110 305 5 11 16 40 24 65 8 25 65 185 126 355 61 171 133
371 159 445 71 200 249 695 276 770 14 36 45 124 70 195 26 72 67 186 91 255
181 500 244 677 244 685 0 4 6 21 14 38 8 18 45 118 81 222 102 290 119 327
174 378 27 25 70 56 97 69 l49 23 795 0 795 0 50 -27 c110 -58 144 -103 200
-268 20 -58 40 -114 45 -125 5 -11 32 -85 61 -165 57 -162 167 -470 204 -570
13 -36 69 -193 125 -350 56 -157 132 -370 170 -475 97 -270 267 -745 302 -845
16 -47 33 -94 38 -105 5 -11 20 -51 34 -90 24 -69 258 -726 346 -970 51 -141
106 -296 164 -460 32 -88 66 -185 78 -215 11 -30 73 -203 138 -385 65 -181
159 -445 210 -585 50 -140 118 -331 151 -425 33 -93 66 -186 74 -205 8 -19 39
-107 71 -195 86 -245 144 -405 164 -460 10 -27 42 -115 70 -195 28 -80 60
-167 70 -195 32 -86 61 -166 97 -270 40 -115 115 -268 177 -365 45 -70 145
-207 168 -231 7 -8 26 -30 42 -49 59 -73 201 -214 327 -325 50 -45 240 -186
258 -193 9 -3 18 -9 21 -12 6 -9 170 -99 233 -128 55 -26 203 -76 582 -197
149 -48 331 -106 405 -130 74 -24 250 -80 390 -125 140 -45 287 -92 325 -105
39 -13 129 -42 200 -64 72 -23 198 -64 280 -90 83 -27 251 -81 375 -121 124
-39 250 -80 280 -90 30 -10 156 -51 280 -90 254 -81 437 -140 655 -210 83 -27
195 -63 250 -81 137 -43 220 -70 351 -113 62 -21 118 -39 125 -40 13 -2 481
-152 564 -181 22 -7 148 -48 280 -90 132 -42 308 -99 390 -125 133 -43 404
-130 785 -252 69 -22 145 -47 170 -55 55 -18 145 -20 183 -5 24 10 45 42 53
81 7 36 -44 147 -143 313 -60 101 -257 431 -438 733 -180 303 -335 561 -344
575 -8 14 -21 34 -27 45 -6 11 -80 135 -164 275 -84 140 -161 269 -170 285
-14 26 -80 136 -110 185 -5 8 -35 58 -66 110 -32 52 -82 134 -111 182 -29 48
-53 92 -53 98 0 5 -4 10 -10 10 -5 0 -10 4 -10 9 0 7 -197 342 -271 461 -25
39 -553 924 -559 935 -4 9 -40 69 -83 140 -7 11 -24 39 -39 63 -16 24 -28 46
-28 49 0 4 -11 23 -24 42 -13 20 -120 198 -238 396 -118 198 -347 581 -508
850 -161 270 -300 504 -310 520 -9 17 -36 62 -60 100 -24 39 -48 79 -54 90 -7
11 -59 99 -116 195 -58 96 -109 183 -115 192 -47 81 -114 192 -142 235 -18 28
-33 54 -33 58 0 3 -12 25 -27 48 -36 55 -92 147 -127 212 -7 11 -23 38 -36 60
-31 50 -12 19 -242 403 -106 177 -200 335 -210 351 -9 16 -85 143 -168 282
-84 140 -160 268 -170 284 -16 28 -119 201 -140 235 -5 8 -52 87 -105 175 -53
88 -100 167 -106 175 -27 45 -214 359 -229 385 -9 17 -58 98 -107 180 -50 83
-99 165 -109 183 -11 18 -98 163 -194 323 -96 160 -182 303 -190 318 -8 14
-44 75 -80 134 -95 158 -108 180 -117 197 -14 26 -514 863 -538 900 -17 26
-202 335 -276 460 -5 8 -54 92 -111 185 -56 94 -106 179 -112 190 -82 149
-349 577 -378 606 -21 21 -69 53 -106 71 l-67 33 -3605 2 c-3436 2 -3607 1
-3657 -16z"/>
<path d="M9958 13348 c-9 -7 -23 -33 -31 -58 -9 -25 -66 -187 -127 -360 -62
-173 -138 -389 -170 -480 -32 -91 -85 -241 -118 -335 -33 -93 -87 -246 -120
-340 -227 -645 -270 -738 -482 -1055 -129 -193 -270 -361 -465 -555 -152 -152
-189 -185 -366 -329 -261 -212 -657 -428 -964 -525 -122 -39 -658 -212 -700
-226 -22 -8 -166 -54 -320 -104 -154 -49 -401 -129 -550 -177 -148 -48 -274
-89 -280 -90 -5 -1 -107 -34 -225 -72 -118 -39 -361 -118 -540 -176 -179 -57
-356 -115 -395 -127 -38 -13 -72 -24 -75 -24 -3 0 -99 -31 -215 -69 -239 -78
-503 -162 -555 -178 -19 -6 -41 -16 -49 -22 -8 -6 -15 -9 -15 -7 -1 2 -12 1
-26 -3 -30 -9 -546 -175 -680 -219 -52 -17 -99 -32 -105 -33 -5 -1 -50 -16
-100 -32 -124 -41 -405 -133 -745 -242 -1270 -409 -1205 -386 -1241 -423 -18
-17 -37 -45 -44 -61 -13 -31 -12 -96 2 -132 8 -20 410 -661 735 -1172 87 -136
161 -254 165 -263 4 -8 37 -61 73 -118 82 -129 86 -135 140 -223 24 -40 47
-75 50 -78 8 -7 90 -140 90 -146 0 -3 5 -10 10 -17 6 -7 50 -75 99 -152 352
-561 610 -970 645 -1025 23 -36 103 -162 177 -280 74 -118 137 -217 142 -218
4 -2 7 -8 7 -13 0 -5 20 -41 45 -79 25 -39 65 -101 89 -139 68 -105 128 -142
223 -137 48 3 118 39 180 92 33 30 48 41 218 174 88 68 162 127 165 130 3 3
46 37 95 75 71 55 620 486 685 538 8 7 58 46 110 87 52 41 102 80 110 87 21
17 156 123 625 492 226 177 417 327 425 334 8 7 35 28 60 47 25 19 47 37 50
40 3 3 77 61 165 130 88 68 174 135 191 149 17 14 48 40 69 56 22 17 71 55
110 86 38 31 201 158 360 284 337 264 348 273 383 302 15 11 65 51 112 87 91
71 106 83 239 189 47 37 111 87 141 111 416 326 544 442 765 697 423 486 861
1239 1071 1844 92 263 113 339 158 565 13 69 28 145 31 170 3 25 9 61 11 80 3
19 11 73 19 120 8 47 24 150 35 230 12 80 23 156 25 170 5 32 44 294 51 340 3
19 7 46 9 60 6 37 33 219 40 265 3 22 8 51 11 63 3 13 7 45 10 70 2 26 11 85
19 132 8 47 21 135 30 195 8 61 17 119 19 130 3 17 15 90 31 200 2 17 7 45 9
63 3 18 8 52 11 75 3 23 8 53 10 67 2 14 7 43 10 65 3 22 10 65 15 95 5 30 12
75 15 100 4 25 12 86 20 135 8 50 17 110 20 135 3 25 8 52 10 60 2 8 6 38 10
65 3 28 8 57 10 65 2 8 6 38 10 65 7 62 40 279 60 400 18 106 22 138 30 227 6
60 5 67 -13 77 -26 14 -25 14 -44 -1z"/>
<path d="M13642 13348 c-14 -14 -15 -76 -3 -133 5 -22 12 -62 15 -90 4 -27 11
-75 16 -105 5 -30 11 -71 14 -90 11 -84 47 -318 51 -340 3 -14 8 -50 11 -80 3
-30 7 -57 9 -60 2 -3 6 -30 10 -60 3 -30 10 -80 15 -110 5 -30 11 -71 14 -90
3 -19 8 -51 10 -70 31 -203 48 -314 51 -337 3 -25 9 -64 20 -133 3 -14 7 -42
10 -62 6 -44 10 -69 36 -243 10 -71 28 -193 40 -270 11 -77 24 -165 29 -195 5
-30 18 -118 29 -195 11 -77 23 -149 25 -160 2 -11 7 -45 11 -75 4 -30 9 -62
10 -70 2 -8 6 -35 9 -60 3 -25 8 -54 10 -65 2 -11 7 -42 10 -70 4 -27 11 -79
17 -115 6 -36 13 -83 15 -105 3 -22 7 -47 9 -55 2 -8 7 -37 10 -65 4 -27 8
-61 11 -75 12 -72 24 -150 29 -190 3 -25 7 -56 10 -70 3 -14 7 -36 10 -50 110
-584 423 -1294 854 -1930 78 -115 265 -368 308 -415 10 -12 43 -50 73 -85 78
-93 254 -275 354 -365 26 -24 232 -190 361 -291 77 -60 147 -114 155 -121 8
-7 65 -51 125 -98 61 -48 119 -94 130 -103 23 -20 263 -208 339 -266 28 -22
96 -76 152 -120 56 -45 113 -90 129 -101 15 -11 32 -25 39 -30 6 -6 67 -55
136 -108 69 -54 134 -106 145 -115 11 -9 38 -31 61 -48 22 -17 49 -38 60 -47
10 -9 71 -56 134 -106 170 -133 381 -299 415 -326 33 -26 494 -389 730 -575
81 -63 159 -125 173 -137 30 -24 593 -467 797 -626 71 -56 137 -107 145 -114
8 -7 85 -68 171 -135 216 -170 220 -174 323 -255 102 -82 163 -108 231 -100
96 12 124 41 280 292 65 105 136 216 157 247 21 31 38 59 38 62 0 4 25 43 108
171 7 11 25 40 40 64 33 53 75 120 118 186 17 28 98 156 180 285 81 129 197
312 256 405 59 94 133 212 165 263 96 154 350 556 408 647 17 28 83 131 145
230 63 99 186 295 275 435 88 140 174 276 190 302 17 26 84 134 151 240 146
234 144 228 148 275 6 71 -34 144 -95 175 -19 9 -176 62 -349 118 -173 56
-326 105 -340 110 -14 5 -146 48 -295 95 -148 48 -295 95 -325 105 -62 21
-242 79 -635 205 -148 47 -301 97 -340 110 -38 13 -198 65 -355 115 -157 50
-310 100 -340 110 -30 10 -170 55 -310 100 -140 45 -338 109 -440 142 -102 33
-228 73 -280 90 -52 17 -133 43 -180 59 -47 15 -211 68 -365 117 -154 50 -318
103 -365 118 -47 16 -87 29 -90 29 -16 4 -338 107 -355 115 -11 4 -112 38
-225 74 -113 36 -358 114 -545 175 -187 60 -411 132 -498 160 -212 69 -312
104 -372 131 -135 60 -229 108 -323 164 -57 33 -111 66 -120 71 -10 6 -32 20
-49 33 -17 12 -36 22 -41 22 -6 0 -12 3 -14 8 -1 4 -34 30 -73 57 -398 282
-793 708 -1047 1128 -127 210 -181 334 -328 752 -45 127 -92 259 -105 295 -13
36 -33 92 -44 125 -11 33 -29 85 -40 115 -38 106 -266 748 -388 1095 -14 39
-29 76 -35 83 -13 15 -40 16 -56 0z"/>
<path d="M11191 13206 c-12 -14 -26 -79 -36 -171 -4 -33 -9 -69 -11 -80 -3
-11 -7 -36 -9 -55 -3 -19 -7 -48 -10 -65 -3 -16 -7 -48 -11 -70 -4 -34 -19
-125 -40 -260 -2 -16 -6 -41 -9 -55 -2 -14 -7 -45 -10 -70 -3 -25 -7 -54 -9
-65 -2 -11 -7 -42 -10 -70 -4 -27 -11 -75 -16 -105 -5 -30 -12 -75 -15 -100
-4 -25 -22 -144 -40 -265 -19 -121 -36 -238 -40 -260 -3 -23 -7 -51 -10 -64
-2 -13 -7 -43 -9 -67 -3 -24 -10 -74 -16 -111 -6 -37 -13 -79 -15 -93 -2 -14
-10 -68 -19 -120 -8 -52 -18 -117 -21 -145 -3 -27 -7 -57 -10 -65 -2 -8 -6
-31 -9 -50 -7 -55 -27 -192 -31 -220 -2 -14 -9 -54 -14 -90 -6 -36 -13 -81
-15 -100 -3 -19 -9 -64 -15 -100 -6 -36 -13 -83 -16 -105 -2 -22 -7 -49 -9
-60 -2 -11 -7 -40 -10 -65 -3 -25 -8 -54 -10 -65 -2 -11 -7 -47 -12 -80 -4
-33 -8 -62 -9 -65 -1 -3 -5 -30 -9 -60 -5 -30 -10 -63 -12 -74 -2 -10 -6 -37
-8 -60 -3 -22 -8 -52 -10 -65 -3 -12 -8 -44 -11 -70 -12 -108 -58 -355 -86
-471 -17 -69 -32 -132 -34 -141 -30 -141 -158 -508 -267 -769 -174 -411 -413
-852 -670 -1237 -129 -191 -331 -466 -378 -513 -3 -3 -23 -27 -45 -55 -21 -27
-42 -52 -45 -55 -3 -3 -38 -43 -79 -90 -102 -116 -367 -379 -476 -472 -49 -43
-225 -183 -390 -313 -458 -361 -689 -542 -800 -630 -322 -253 -779 -613 -970
-764 -121 -95 -235 -185 -254 -200 -19 -14 -57 -44 -85 -67 -47 -38 -1599
-1259 -2041 -1607 -104 -82 -199 -159 -210 -171 -93 -98 -89 -175 12 -209 44
-14 361 -16 3664 -14 l3616 2 52 35 c36 24 59 50 76 84 l25 49 0 1631 c1 897
2 3427 3 5621 1 2195 1 4000 -2 4013 -5 29 -35 46 -50 28z"/>
<path d="M12410 13205 c-14 -17 -13 251 -9 -8165 l1 -3125 24 -47 c26 -51 75
-94 128 -112 26 -9 896 -12 3643 -11 l3608 0 47 23 c100 49 77 135 -67 248
-349 275 -826 651 -848 667 -16 12 -34 27 -40 32 -14 13 -418 332 -456 360
-14 11 -147 116 -296 233 -148 117 -335 263 -413 325 -79 61 -149 117 -155
122 -7 6 -41 33 -77 60 -36 28 -70 55 -76 60 -6 6 -68 55 -138 110 -70 55
-188 147 -261 205 -73 58 -210 166 -305 240 -95 74 -197 155 -228 180 -31 25
-124 98 -207 163 -195 153 -201 158 -319 252 -56 44 -113 89 -128 100 -26 20
-280 220 -513 404 -327 258 -580 501 -791 756 -27 33 -52 62 -55 65 -3 3 -39
48 -80 100 -67 85 -111 143 -229 305 -61 83 -221 331 -307 475 -185 309 -341
617 -465 915 -27 66 -55 134 -63 150 -7 17 -20 53 -30 80 -10 28 -23 64 -30
80 -42 101 -165 519 -191 650 -2 11 -10 54 -19 95 -15 77 -20 105 -30 175 -4
22 -8 51 -10 65 -2 14 -7 48 -11 75 -3 28 -7 52 -9 55 -2 3 -6 30 -10 60 -3
30 -10 80 -15 110 -5 30 -12 73 -15 95 -3 22 -12 83 -20 135 -7 52 -16 113
-20 135 -3 23 -7 50 -9 60 -2 11 -7 43 -10 70 -4 28 -11 75 -16 105 -5 30 -12
73 -14 95 -3 22 -17 114 -31 204 -14 90 -27 183 -30 205 -3 23 -9 66 -15 96
-5 30 -12 75 -15 100 -3 25 -11 74 -16 110 -5 36 -12 76 -14 90 -6 41 -17 114
-20 130 -1 8 -6 42 -11 75 -4 33 -8 62 -9 65 -1 4 -8 53 -20 130 -2 14 -13 90
-25 170 -12 80 -23 156 -25 170 -16 99 -25 160 -29 190 -3 19 -7 49 -10 65 -2
17 -7 50 -11 75 -10 68 -13 89 -24 160 -6 36 -13 85 -16 110 -3 25 -10 70 -15
100 -9 58 -15 93 -31 204 -5 38 -11 78 -14 90 -2 12 -7 40 -10 64 -3 23 -8 60
-11 83 -3 22 -7 46 -8 54 -2 16 -26 45 -36 45 -4 0 -13 -7 -20 -15z"/>
</g>
</svg>
